<svg xmlns="http://www.w3.org/2000/svg" width="22" height="22" viewBox="0 0 22 22">
  <g id="Group_15" data-name="Group 15" transform="translate(0 57)">
    <path id="Path_427" data-name="Path 427" d="M20.784-57H1.216A1.222,1.222,0,0,0,0-55.784v19.568A1.222,1.222,0,0,0,1.216-35H11.753v-8.491H8.877v-3.346h2.86v-2.443c0-2.845,1.733-4.392,4.269-4.392a23.986,23.986,0,0,1,2.578.147v2.968H16.832c-1.378,0-1.644.652-1.644,1.613v2.123h3.3l-.428,3.331H15.188V-35h5.6A1.222,1.222,0,0,0,22-36.216V-55.784A1.222,1.222,0,0,0,20.784-57Z" fill="#fff"/>
  </g>
</svg>
