<svg xmlns="http://www.w3.org/2000/svg" width="1921.541" height="3045.085" viewBox="0 0 1921.541 3045.085">
  <g id="Group_27" data-name="Group 27" transform="translate(1.541 -192.834)">
    <path id="Path_270" data-name="Path 270" d="M153.854-33.663C227.007,52.546,347.135,78.089,446.829,131.41,558.924,191.371,646.22,287.745,744,368.982c97.768,81.221,217.706,150.762,344.3,139.324,126.613-11.456,246.517-136.692,210.4-258.574-19.884-67.065-77.97-114.125-126.441-164.539-74.615-77.643-154.073-205.94-188.147-308.058H77.189c.017,56.383,39.976,145.978,76.664,189.2" transform="translate(1697.135 1525.65) rotate(90)" fill="#efefef"/>
    <path id="Path_269" data-name="Path 269" d="M691.087,361.848c-99.384-85.286-224.216-136.382-324.838-220.2C264.033,56.5,123.475-73.075,0-95.337V964.345S240.862,923.491,349.873,901.7c85.038-17,172.8-20.021,256.388-43.121S772.5,787.321,808.415,708.395C862.661,589.2,790.471,447.134,691.087,361.848" transform="translate(0 2273.574)" fill="#f8f8f8"/>
    <path id="Path_268" data-name="Path 268" d="M909.313-193.943c-40.722-34.7-103.281-30.416-151.7-7.585s-87.683,60.818-131.243,91.892C520.749-34.277,155.375,19.847,120,49.835l-1.541,503.292L120,1128.04c925.461,343.058,1230.48-30.452,1009.806-261.3S827.541,518.768,847.749,294.177,947.18,64.138,957.07-5.663a298.269,298.269,0,0,0-3.779-104.6c-6.775-31.347-19.539-62.85-43.978-83.677" transform="translate(-120 412.161)" fill="#dfedc5"/>
  </g>
</svg>
