<?xml version="1.0" encoding="UTF-8" standalone="no"?>
<!DOCTYPE svg PUBLIC "-//W3C//DTD SVG 1.1//EN" "http://www.w3.org/Graphics/SVG/1.1/DTD/svg11.dtd">
<svg width="100%" height="100%" viewBox="0 0 22 22" version="1.1" xmlns="http://www.w3.org/2000/svg" xmlns:xlink="http://www.w3.org/1999/xlink" xml:space="preserve" xmlns:serif="http://www.serif.com/" style="fill-rule:evenodd;clip-rule:evenodd;stroke-linejoin:round;stroke-miterlimit:2;">
    <g id="Group_15" transform="matrix(1,0,0,1,0,57)">
        <path id="Path_427" d="M20.784,-57L1.216,-57C0.55,-56.997 0.003,-56.45 0,-55.784L0,-36.216C0.003,-35.55 0.55,-35.003 1.216,-35L11.753,-35L11.753,-43.491L8.877,-43.491L8.877,-46.837L11.737,-46.837L11.737,-49.28C11.737,-52.125 13.47,-53.672 16.006,-53.672C16.867,-53.669 17.728,-53.62 18.584,-53.525L18.584,-50.557L16.832,-50.557C15.454,-50.557 15.188,-49.905 15.188,-48.944L15.188,-46.821L18.488,-46.821L18.06,-43.49L15.188,-43.49L15.188,-35L20.788,-35C21.452,-35.005 21.997,-35.552 22,-36.216L22,-55.784C21.997,-56.45 21.45,-56.997 20.784,-57Z" style="fill-rule:nonzero;"/>
    </g>
</svg>
