<svg xmlns="http://www.w3.org/2000/svg" width="295.95" height="358.666" viewBox="0 0 295.95 358.666">
  <g id="Group_27" data-name="Group 27" transform="translate(-1328.579 -1832.378)">
    <g id="Group_11" data-name="Group 11" transform="translate(3529.924 -555.149) rotate(59)">
      <path id="Path_351" data-name="Path 351" d="M171.853.006c-.163-.124-1.682,1.555-4.2,4.651A163.463,163.463,0,0,0,157.768,18.1a84.2,84.2,0,0,0-10.439,21.658c-2.611,8.558-3.72,18.125-4.288,27.722s-.86,19.31-1.465,28.594a237.51,237.51,0,0,1-2.922,25.951,124.517,124.517,0,0,1-5.123,19.841c-.987,2.6-1.824,4.875-2.705,6.671-.817,1.824-1.47,3.26-2.022,4.2-.529.95-1.212,2.33-2.185,3.989-1.063,1.6-2.2,3.625-3.75,5.758a95.814,95.814,0,0,1-12.94,14.343,158.978,158.978,0,0,1-42.551,27.812A131.27,131.27,0,0,1,42.94,212.6a119.732,119.732,0,0,1-21.8,2.705c-12.8.26-21.051-1.739-21.136-1.224-.051.237,1.981.8,5.636,1.6,1.824.432,4.092.617,6.692.985,2.6.324,5.578.389,8.827.515a111.957,111.957,0,0,0,22.282-2.234,128.6,128.6,0,0,0,25.017-7.814,158.132,158.132,0,0,0,43.452-28.157,97.978,97.978,0,0,0,13.324-14.792c1.61-2.22,2.786-4.316,3.885-5.981,1.005-1.723,1.714-3.152,2.261-4.136.568-.975,1.249-2.459,2.093-4.343.913-1.859,1.785-4.2,2.8-6.878a126.288,126.288,0,0,0,5.263-20.315,235.051,235.051,0,0,0,2.919-26.28c.577-9.344.842-19.08,1.316-28.622.49-9.519,1.486-18.873,3.885-27.191a86.6,86.6,0,0,1,9.717-21.327c3.582-5.861,6.913-10.5,9.163-13.789C170.8,2.047,172.03.142,171.853.006" transform="matrix(-0.914, 0.407, -0.407, -0.914, 1222.242, 3138.313)"/>
      <path id="Path_352" data-name="Path 352" d="M24.582.26c-.1-.38-1.3-.412-2.873.368A15.663,15.663,0,0,0,16.92,4.675C14.1,8.19,11.4,11.737,10.695,12.519c-.649.761-3.4,3.982-6.11,7.161C1.942,22.8-.455,25.836.074,26.326c.709.665,3.632-1.868,6.519-4.815s5.68-6.342,6.328-7.134c.66-.732,3.69-4.472,6.131-7.985a26.071,26.071,0,0,1,3.685-4.164C23.828,1.238,24.714.7,24.582.26" transform="matrix(-0.914, 0.407, -0.407, -0.914, 1082.359, 2989.494)"/>
      <path id="Path_353" data-name="Path 353" d="M35.52.033c-.159-.154-.752.248-1.822.824A32.408,32.408,0,0,1,28.957,2.81a39.525,39.525,0,0,0-7.145,3.057,58.323,58.323,0,0,0-7.5,5.1c-2.427,1.935-4.822,3.862-7.1,5.933A27.455,27.455,0,0,0,1.6,23.719,12.853,12.853,0,0,0,.137,27.5a6.751,6.751,0,0,0,.315,3.8,7.252,7.252,0,0,0,3.158,3.52,9.121,9.121,0,0,0,4.2,1.24,11.893,11.893,0,0,0,6.738-2.043,33.405,33.405,0,0,0,6.2-5.408,56.128,56.128,0,0,0,5.47-6.848C32.874,12.021,35.61,1.305,34.975,1.16,34,.813,30.6,11.087,23.992,20.2a59.413,59.413,0,0,1-5.321,6.425A32.107,32.107,0,0,1,13,31.528,9.152,9.152,0,0,1,7.94,33.146a6.231,6.231,0,0,1-2.862-.833,4.412,4.412,0,0,1-1.916-2.1c-.52-1.12-.2-2.993,1-5.082,2.206-4.194,7.221-8.1,11.861-12.025A66.719,66.719,0,0,1,23.038,7.96a49.342,49.342,0,0,1,6.627-3.382,18.508,18.508,0,0,0,4.67-2.811C35.322.864,35.667.176,35.52.033" transform="matrix(-0.914, 0.407, -0.407, -0.914, 1099.968, 2962.795)"/>
      <path id="Path_354" data-name="Path 354" d="M0,16.747c0,.4,1.5.7,3.842.752a40.509,40.509,0,0,0,8.629-1.014,82.254,82.254,0,0,0,13.892-4.7C27.743,11.254,33.51,8.668,38.771,6,44.028,3.325,48.964.9,48.7.242c-.363-.913-5.684.883-11.083,3.3S26.586,8.595,25.238,9.117a114.362,114.362,0,0,1-13.409,4.707c-2.981.824-5.93,1.36-8.139,1.778C1.484,15.974,0,16.29,0,16.747" transform="matrix(-0.914, 0.407, -0.407, -0.914, 1125.472, 2953.348)"/>
      <path id="Path_355" data-name="Path 355" d="M0,15.754c.087.817,4.566.706,9.266-.221a50.25,50.25,0,0,0,10.476-3.273A38.863,38.863,0,0,0,28.715,6.95C32.3,4.109,34.68.493,34.1.076c-.78-.587-3.529,2.319-7.019,4.7A50.786,50.786,0,0,1,18.6,9.6,71.089,71.089,0,0,1,8.674,12.86C4.228,14.035-.1,14.864,0,15.754" transform="matrix(-0.914, 0.407, -0.407, -0.914, 1072.438, 3026.513)"/>
      <path id="Path_356" data-name="Path 356" d="M45.108,5.53c-.11-.423-2.7.023-6.5-1.44-1.912-.653-4.118-1.7-6.772-2.519A35.488,35.488,0,0,0,23.266.058,37.211,37.211,0,0,0,6.418,3.136C4.106,4.12,1.9,5.56.835,7.525a6.233,6.233,0,0,0-.646,4.61,4.868,4.868,0,0,0,.883,1.776A5.864,5.864,0,0,0,3.3,15.569a21.691,21.691,0,0,0,6.218,1.477c4.831.525,10.692-.543,15.866-2.471,5.2-1.912,9.9-4.253,13.423-5.928,3.508-1.714,5.744-2.956,5.6-3.285-.191-.449-2.664.239-6.342,1.557C34.379,8.2,29.53,10.317,24.5,12c-5.022,1.714-10.4,2.609-14.693,2.135a19.754,19.754,0,0,1-5.3-1.222C3.3,12.376,3.121,11.8,2.988,11.387a3.352,3.352,0,0,1,.391-2.443A8.537,8.537,0,0,1,7.6,5.816,36.272,36.272,0,0,1,23.149,2.8a36.955,36.955,0,0,1,8.026,1.111c2.478.619,4.794,1.521,6.894,2.008a13.437,13.437,0,0,0,5.2.4c1.256-.207,1.884-.593,1.836-.789" transform="matrix(-0.914, 0.407, -0.407, -0.914, 1094.778, 3009.119)"/>
      <path id="Path_357" data-name="Path 357" d="M23.033.078C22.569-.619,16.6,3.4,12.182,9.57a46.023,46.023,0,0,0-5.289,9.37A54.132,54.132,0,0,0,4.8,25.01c-.242.826-.86,3.027-1.461,5.88s-1.212,6.324-1.783,9.687C.425,47.32-.452,53.68.252,53.811,1.212,54,2.8,47.773,4.225,41.09c.69-3.361,1.392-6.777,1.969-9.581.593-2.783,1.157-4.9,1.387-5.694a55.129,55.129,0,0,1,2.013-5.74,51.56,51.56,0,0,1,4.824-8.923C18.327,5.178,23.567.78,23.033.078" transform="matrix(-0.914, 0.407, -0.407, -0.914, 1065.591, 3018.595)"/>
      <path id="Path_358" data-name="Path 358" d="M3.478,31.559c.759-.343-.43-3.791-.571-7.573A28.2,28.2,0,0,1,3.8,15.431c.177-.87,1.415-4.5,2.618-8.084S8.166.143,7.441.007c-.945-.177-2.1,3-3.575,6.4A61.358,61.358,0,0,0,1,14.684a24.8,24.8,0,0,0-.826,9.54c.481,4.237,2.512,7.734,3.3,7.336" transform="matrix(-0.914, 0.407, -0.407, -0.914, 1047.245, 3056.635)"/>
      <path id="Path_359" data-name="Path 359" d="M2.284.008c-.361.122.354,3.078,2.54,7.106,2.139,4.042,5.813,8.942,9.222,14.023a56.658,56.658,0,0,1,4.477,7.844,29.637,29.637,0,0,1,2.31,7.718,8.877,8.877,0,0,1-.759,5.611,4.871,4.871,0,0,1-2.192,1.967,3.107,3.107,0,0,1-2.5.051c-1.118-.414-2.567-2.1-4.1-3.876a39.655,39.655,0,0,1-7.37-14.21A42.4,42.4,0,0,1,2.393,11.217C2.7,7.143,3.393,4.51,3,4.39c-.412-.145-1.714,2.367-2.48,6.6a37.748,37.748,0,0,0,.757,15.967A40.311,40.311,0,0,0,9.015,42.3c.828.973,1.617,1.859,2.406,2.675A9.356,9.356,0,0,0,14.21,47a6.015,6.015,0,0,0,4.819-.058,7.757,7.757,0,0,0,3.554-3.145,11.667,11.667,0,0,0,1.155-7.465,31.3,31.3,0,0,0-2.586-8.541A54.872,54.872,0,0,0,16.317,19.6C12.68,14.456,8.891,9.828,6.453,6.134,3.982,2.469,2.731-.16,2.284.008" transform="matrix(-0.914, 0.407, -0.407, -0.914, 1040.711, 3040.029)"/>
      <path id="Path_360" data-name="Path 360" d="M4.982,0c-.313-.127-1.654,3.043-1.1,8.079.485,5.01,3.085,11.316,6.632,17.055,3.51,5.735,7.313,11.364,9.268,16.381A31.2,31.2,0,0,1,21.634,48.1a3.789,3.789,0,0,1-.449,2.986,3.809,3.809,0,0,1-2.48,1.422,5.892,5.892,0,0,1-5.075-1.642,25.05,25.05,0,0,1-4.762-6.492,52.793,52.793,0,0,1-3.763-8.249A57.493,57.493,0,0,1,1.915,20.1c-.262-4.4,0-7.308-.4-7.361C1.08,12.672.2,15.55.036,20.128a48.855,48.855,0,0,0,2.5,16.88,51.192,51.192,0,0,0,3.826,8.767,26.914,26.914,0,0,0,5.362,7.3A10.421,10.421,0,0,0,15.453,55.2a8.089,8.089,0,0,0,3.782.177,6.721,6.721,0,0,0,4.309-2.6,5.742,5.742,0,0,0,.909-2.006,8.393,8.393,0,0,0,.074-3.05A33.393,33.393,0,0,0,22.5,40.431c-2.126-5.413-6.1-11.182-9.655-16.731C9.267,18.179,6.629,12.384,5.761,7.8,4.83,3.22,5.492.1,4.982,0" transform="matrix(-0.914, 0.407, -0.407, -0.914, 1046.89, 3075.554)"/>
      <path id="Path_361" data-name="Path 361" d="M.008,28.421c.173.794,5.206-.129,9.949-2.705a42.034,42.034,0,0,0,9.779-7.329,40.109,40.109,0,0,0,6.973-9.176C29.2,4.831,30.18.188,29.518.014c-.966-.283-2.57,3.885-5.151,7.817a49.2,49.2,0,0,1-6.673,8.5,50.726,50.726,0,0,1-9.073,7C4.34,25.985-.215,27.543.008,28.421" transform="matrix(-0.914, 0.407, -0.407, -0.914, 1076.675, 3089.372)"/>
      <path id="Path_362" data-name="Path 362" d="M49.88,3.346c-.064-.439-3.2-.2-7.969-.373A153.66,153.66,0,0,1,24.129,1.128,70.63,70.63,0,0,0,13.966,0,16.4,16.4,0,0,0,4.408,2.729,9.875,9.875,0,0,0,.051,9.738a8.992,8.992,0,0,0,.833,4.9,7.14,7.14,0,0,0,3.566,3.483,16.272,16.272,0,0,0,3.324.932c1.148.237,2.4.472,3.738.672,5.312.819,12.158,1.088,18.463-.853a28.184,28.184,0,0,0,8.5-4.145,28.008,28.008,0,0,0,5.661-5.682c2.7-3.635,4.725-5.581,4.548-5.859-.29-.446-2.94,1.261-5.974,4.628A30.874,30.874,0,0,1,37.1,12.757a27.734,27.734,0,0,1-7.881,3.5c-5.795,1.64-12.181,1.369-17.267.577a36.009,36.009,0,0,1-6.328-1.378A4.2,4.2,0,0,1,3.49,13.371a6.051,6.051,0,0,1-.541-3.319A6.956,6.956,0,0,1,6.1,5.124a13.676,13.676,0,0,1,7.888-2.236,76.154,76.154,0,0,1,9.768.952A102.134,102.134,0,0,0,41.925,4.875c4.907-.26,8.019-1.12,7.955-1.53" transform="matrix(-0.914, 0.407, -0.407, -0.914, 1100.082, 3059.071)"/>
      <path id="Path_363" data-name="Path 363" d="M.1,12.354c.462.686,2.225-.046,3.968-1.178A18.449,18.449,0,0,0,7.722,8,12.8,12.8,0,0,0,10.26,4.024c.784-1.974.584-4.017-.14-4.023-.971-.035-1.47,1.468-2.326,2.878a20.865,20.865,0,0,1-2.213,3.17C5.314,6.373,3.9,7.712,2.434,8.979.987,10.263-.394,11.615.1,12.354" transform="matrix(-0.914, 0.407, -0.407, -0.914, 1065.641, 3114.884)"/>
      <path id="Path_364" data-name="Path 364" d="M43.143.233c-.106-.828-11.537.55-23.2,4.141-2.915.879-5.843,1.863-8.622,2.9C8.6,8.317,5.784,9.239,3.488,11.047A9.337,9.337,0,0,0,.827,14.259,7.972,7.972,0,0,0,0,17.8a5.941,5.941,0,0,0,1.965,4.431,7.9,7.9,0,0,0,4.012,1.838A22.255,22.255,0,0,0,12.58,24a39.478,39.478,0,0,0,15.677-5.68A37.49,37.49,0,0,0,39.5,7.636c2.33-3.464,3.165-6.075,2.885-6.2-.481-.235-1.843,2.04-4.391,5.075a42.74,42.74,0,0,1-11.143,9.482,38.977,38.977,0,0,1-14.638,5.1,19.976,19.976,0,0,1-5.712.108,5,5,0,0,1-2.586-1.113,3,3,0,0,1-1-2.321,5.679,5.679,0,0,1,2.388-4.428c1.693-1.369,4.3-2.31,7.03-3.37,2.721-1.04,5.583-2.052,8.426-2.984C32.126,3.18,43.278,1.1,43.143.233" transform="matrix(-0.914, 0.407, -0.407, -0.914, 1096.267, 3092.82)"/>
      <path id="Path_365" data-name="Path 365" d="M.924,0C.735-.042.339.763.114,2.311A14.608,14.608,0,0,0,.779,8.775a16.644,16.644,0,0,0,5.4,7.665c2.652,2.222,5.728,3.943,8.479,6.071a44.27,44.27,0,0,1,7.518,7.065,26.744,26.744,0,0,1,4.654,7.957c.89,2.595.665,4.87-.228,6.305a4.163,4.163,0,0,1-2.517,2.075,5.9,5.9,0,0,1-3.432-.329,16.483,16.483,0,0,1-5.689-3.513c-3.934-3.582-7.4-9.517-9.266-15.753A95.842,95.842,0,0,1,2.477,8.9c-.522-4.762-.876-7.9-1.245-7.879C.756,1.048.505,4.2.6,9.04A73.967,73.967,0,0,0,3.1,27.1c1.831,6.637,5.457,13.069,9.894,17.129a19.2,19.2,0,0,0,6.722,4.118,8.841,8.841,0,0,0,5.1.377A7.113,7.113,0,0,0,29.124,45.3a8.845,8.845,0,0,0,1.187-4.019,12.682,12.682,0,0,0-.7-4.67c-2.1-6.151-7.364-12.075-13.319-16.3-2.963-2.183-6.119-3.844-8.585-5.758A15.605,15.605,0,0,1,2.562,8.113C.662,3.537,1.439.052.924,0" transform="matrix(-0.914, 0.407, -0.407, -0.914, 1052.444, 3108.93)"/>
      <path id="Path_366" data-name="Path 366" d="M41.528,0C41.047-.09,40.6,3.1,37.781,6.816c-2.747,3.766-7.936,7.559-14.141,9.772-6.193,2.369-12.912,3.688-18.465,6a9.879,9.879,0,0,0-3.685,2.779A6.808,6.808,0,0,0,0,29.288,5.33,5.33,0,0,0,1.027,32.6a6.178,6.178,0,0,0,1.564,1.5,7.7,7.7,0,0,0,4.766,1.261,22.159,22.159,0,0,0,7.108-1.99,51.91,51.91,0,0,0,7.9-4.18A52.189,52.189,0,0,0,29.9,23.119,47.067,47.067,0,0,0,39.908,9.061c1.912-4.221,2.452-7.212,2.153-7.295-.506-.163-1.615,2.583-3.83,6.443a54.506,54.506,0,0,1-10.2,12.94,53.294,53.294,0,0,1-7.221,5.624,51.543,51.543,0,0,1-7.456,3.895,20.011,20.011,0,0,1-6.114,1.781,4.729,4.729,0,0,1-3.02-.752,2.684,2.684,0,0,1-1.3-2.317A3.92,3.92,0,0,1,3.8,27.165a7.034,7.034,0,0,1,2.618-1.923c4.875-2.054,11.859-3.527,18.219-6.105,6.462-2.445,12.1-6.862,14.713-11.24C42.069,3.512,41.894-.021,41.528,0" transform="matrix(-0.914, 0.407, -0.407, -0.914, 1080.948, 3061.628)"/>
      <path id="Path_367" data-name="Path 367" d="M28.641,47.147c.124-.43-1.369-1.083-3.382-2.4A31.817,31.817,0,0,1,18.6,38.737,86.911,86.911,0,0,1,9.932,25.682a85.251,85.251,0,0,1-5.924-13.57C1.936,6.034,1.492-.007.781,0,.316.009-.04,1.571,0,3.991a37.56,37.56,0,0,0,1.4,8.9,68.434,68.434,0,0,0,5.983,14.18c.83,1.408,4.228,8.125,9.163,13.487a24.489,24.489,0,0,0,7.8,5.861c2.436,1.051,4.191,1.129,4.293.732" transform="matrix(-0.914, 0.407, -0.407, -0.914, 1064.186, 3138.063)"/>
      <path id="Path_368" data-name="Path 368" d="M.011,5.616c-.175.35,1.813,1.642,5.1,3.193a64.282,64.282,0,0,0,12.88,4.129,74.4,74.4,0,0,0,14.334,1.58c2.107.1,3.97-.037,5.457-.1a30.841,30.841,0,0,0,3.161-.219A76.225,76.225,0,0,0,62.071,9.35,63.789,63.789,0,0,0,73.355,3.7C76.152,1.8,77.836.385,77.64.1c-.283-.416-2.287.481-5.215,1.965A111.768,111.768,0,0,1,61.126,6.8a84.408,84.408,0,0,1-20.439,4.518A87.521,87.521,0,0,1,18.52,10.251,102.459,102.459,0,0,1,5.8,7.033C2.449,5.924.215,5.2.011,5.616" transform="matrix(-0.914, 0.407, -0.407, -0.914, 1132.938, 2964.833)"/>
      <path id="Path_369" data-name="Path 369" d="M11.82.231c-.474-.684-2.367.239-4.1,1.624A26.666,26.666,0,0,0,4.127,5.409,24.979,24.979,0,0,0,1.3,9.244C.247,11.024-.377,12.883.251,13.219c.865.467,2.068-.943,3.287-2.429,1.2-1.507,2.448-3.115,2.77-3.469S8.1,5.384,9.54,3.9C10.955,2.4,12.328.958,11.82.231" transform="matrix(-0.914, 0.407, -0.407, -0.914, 1089.335, 2945.286)"/>
      <path id="Path_370" data-name="Path 370" d="M14.157.756C13.856-.889,7.345.641,6.538.79c-.4.074-2.137.368-3.738.819A4.634,4.634,0,0,0,.359,2.9C-.3,3.719.092,4.42.421,4.439c.959-.117,1.1-.055,2.864-.154A35.464,35.464,0,0,0,7.06,3.641c.807-.147,7.417-1.148,7.1-2.885" transform="matrix(-0.914, 0.407, -0.407, -0.914, 1090.292, 3002.295)"/>
      <path id="Path_371" data-name="Path 371" d="M.667.076C-.106.4-.055,1.4.078,2.383c.15.985.384,2,.414,2.229s.133,1.2.292,2.126c.175.925.414,1.838,1.129,1.916.968.1,1.463-.86,1.587-1.948a8.545,8.545,0,0,0-.136-2.489,9.355,9.355,0,0,0-.646-2.56C2.252.582,1.479-.263.667.076" transform="matrix(-0.914, 0.407, -0.407, -0.914, 1011.272, 3011.745)"/>
      <path id="Path_372" data-name="Path 372" d="M.511.132c-1.468.8.667,4.023.895,4.44S3.267,8.178,4.523,7.493c1.716-.934-.347-3.895-.573-4.311S2.062-.713.511.132" transform="matrix(-0.914, 0.407, -0.407, -0.914, 1012.993, 3039.954)"/>
      <path id="Path_373" data-name="Path 373" d="M7.3,1.057C7.189-.613,3.775.181,3.361.238S-.271.641.018,2.044c.4,1.914,3.331,1.123,3.738,1.067S7.414,2.819,7.3,1.057" transform="matrix(-0.914, 0.407, -0.407, -0.914, 1068.259, 3036.964)"/>
      <path id="Path_374" data-name="Path 374" d="M15.926,2.579c.173-.83-1.774-1.484-3.812-1.613-2.038-.15-4.06-.06-4.49-.094A35.394,35.394,0,0,1,3.676.483C2.015.248.554-.327.136.246c-.6.787.87,2.243,2.855,2.866a15.473,15.473,0,0,0,4.516.656A38.787,38.787,0,0,0,12.059,3.7c1.921-.163,3.69-.269,3.867-1.125" transform="matrix(-0.914, 0.407, -0.407, -0.914, 1095.837, 3050.068)"/>
      <path id="Path_375" data-name="Path 375" d="M12.484,18.542c.649-.527-.683-2.7-2.183-4.923C8.7,11.344,7.119,9.115,6.767,8.614S4.934,5.883,3.487,3.859A22.821,22.821,0,0,1,1.821,1.253C1.44.56,1.223.02.857,0,.384-.031-.03.631,0,1.722A8.3,8.3,0,0,0,1.175,5.285a53.172,53.172,0,0,0,3.2,4.967,57.94,57.94,0,0,0,3.736,5.01c1.767,2.086,3.69,3.835,4.373,3.28" transform="matrix(-0.914, 0.407, -0.407, -0.914, 1045.407, 3098.146)"/>
      <path id="Path_376" data-name="Path 376" d="M.011,11.657c.212.805,3.7.225,7.285-.849a80.444,80.444,0,0,0,8.031-2.938,74.385,74.385,0,0,0,7.308-3.418C25.718,2.8,28.41.9,28.06.284c-.481-.858-3.469.375-6.611,1.725C18.217,3.433,15,4.851,14.23,5.186l-7.8,3.023C3.02,9.536-.216,10.8.011,11.657" transform="matrix(-0.914, 0.407, -0.407, -0.914, 1083.595, 3096.247)"/>
      <path id="Path_377" data-name="Path 377" d="M.877,27.052c.842.039,1.33-3.154,2.05-6.471C3.6,17.25,4.549,13.788,4.79,13.04c.223-.752,1.291-3.948,2.494-6.9C8.436,3.176,9.706.441,9.085.066,8.262-.44,6.3,2.031,4.811,5.019a42.906,42.906,0,0,0-2.788,7.159A45.474,45.474,0,0,0,.229,20.114c-.455,3.538-.225,6.9.649,6.938" transform="matrix(-0.914, 0.407, -0.407, -0.914, 1052.889, 3027.322)"/>
      <path id="Path_378" data-name="Path 378" d="M12.59,0c-.4-.014-.78,2.806-.612,7.111.12,4.3.916,10.016,1.422,15.82.524,5.8.485,11.746-.649,16.342a13.07,13.07,0,0,1-2.114,5.309,3.929,3.929,0,0,1-2.16,1.583,3.164,3.164,0,0,1-2.392-.384,5.865,5.865,0,0,1-2.717-3.872,27.459,27.459,0,0,1-.439-7.145,57.63,57.63,0,0,1,.819-8,64.266,64.266,0,0,1,4.127-13.9C9.381,9.257,10.625,7,10.3,6.786c-.382-.251-2.162,1.721-4.118,5.263a50.459,50.459,0,0,0-5.1,14.21A54.8,54.8,0,0,0,.055,34.651,28.879,28.879,0,0,0,.54,42.638a8.775,8.775,0,0,0,4.127,5.689,6.141,6.141,0,0,0,4.513.651,6.913,6.913,0,0,0,3.77-2.623,15.727,15.727,0,0,0,2.655-6.423c1.233-5.02,1.205-11.355.518-17.265-.667-5.928-1.7-11.534-2.247-15.719C13.284,2.772,13.052.012,12.59,0" transform="matrix(-0.914, 0.407, -0.407, -0.914, 1055.941, 3013.837)"/>
      <path id="Path_379" data-name="Path 379" d="M4.145,0C3.326-.145,2.357,3.269,1.7,6.963S.671,14.619.584,15.482.089,20.05.018,23.561C-.07,27.076.16,30.372.869,30.4c.982.032,1.477-3.207,1.863-6.65.327-3.563.656-7.113.734-7.962.094-.842.515-4.605.939-8.424C4.768,3.674,5.016.166,4.145,0" transform="matrix(-0.914, 0.407, -0.407, -0.914, 1047.117, 3011.86)"/>
    </g>
    <g id="Group_12" data-name="Group 12" transform="translate(4370.04 977.419) rotate(87)">
      <path id="Path_380" data-name="Path 380" d="M7.656.169C6.978-.324,6.071.348,5.2,1.082c-.994.9-1.744,1.576-1.932,1.746-.186.152-.874.7-1.919,1.544C.532,5.08-.239,5.818.069,6.467c.416.879,1.613.743,2.724.207A10.384,10.384,0,0,0,5.1,5.073,11.227,11.227,0,0,0,7.194,2.959C7.967,1.9,8.369.686,7.656.169" transform="matrix(-0.914, 0.407, -0.407, -0.914, 1020.361, 2820.207)"/>
      <path id="Path_381" data-name="Path 381" d="M89.906,0c-.458-.163-2.663,5.88-7.2,14.564A249.914,249.914,0,0,1,63.335,45.581C55.41,56.655,46.7,67.69,39.855,76.88c-6.874,9.165-11.872,16.475-13.6,19.139a216.183,216.183,0,0,0-11.516,19.259,130.311,130.311,0,0,0-12.71,34.741C-.6,162.7-.5,175.462,1.348,184.585c.4,2.289.973,4.343,1.433,6.156.577,1.785,1.033,3.347,1.523,4.592,1.017,2.475,1.663,3.837,1.829,3.773.58-.214-1.7-5.813-2.931-14.831a96.437,96.437,0,0,1,1.486-33.7,132.544,132.544,0,0,1,12.636-33.936A218.134,218.134,0,0,1,28.666,97.625c1.714-2.636,6.69-9.857,13.536-18.99,6.814-9.156,15.5-20.23,23.37-31.47,7.9-11.2,14.739-22.728,18.838-31.759C88.614,6.419,90.258.116,89.906,0" transform="matrix(-0.914, 0.407, -0.407, -0.914, 1058.988, 2982.427)"/>
      <path id="Path_382" data-name="Path 382" d="M21.849.019c-.672-.449-6.025,7.253-10.131,16.31A131.435,131.435,0,0,0,4.15,37.709,125.616,125.616,0,0,0,.426,58.776c-.9,9.248-.2,17.95.476,17.911,1.012-.034,1.049-8.606,2.229-17.626A156.819,156.819,0,0,1,6.952,38.447a161.066,161.066,0,0,1,7.267-21.005c3.75-8.979,8.4-16.933,7.63-17.423" transform="matrix(-0.914, 0.407, -0.407, -0.914, 1016.846, 2871.487)"/>
      <path id="Path_383" data-name="Path 383" d="M4.455.014C3.694-.281,1.669,4.262.765,9.45A52.243,52.243,0,0,0,.087,21.4a49.707,49.707,0,0,0,1.769,11.15c1.277,4.746,3.506,8.794,4.129,8.5.911-.414-.568-4.578-1.491-9.153A69.252,69.252,0,0,1,2.978,21.258,70.5,70.5,0,0,1,3.47,9.875C4.039,4.911,5.3.326,4.455.014" transform="matrix(-0.914, 0.407, -0.407, -0.914, 1002.51, 2871.924)"/>
      <path id="Path_384" data-name="Path 384" d="M4.39,3.255c-.168.442,2.116,1.44,4.985,3.757a29.661,29.661,0,0,1,4.4,4.513,28.054,28.054,0,0,1,3.651,6.34,23.933,23.933,0,0,1,1.449,14.03c-.732,4.092-4,3.876-4.909,3.761a5.9,5.9,0,0,1-2.427-.895,11.9,11.9,0,0,1-3.361-3.453A33.782,33.782,0,0,1,3.1,18.688a38.06,38.06,0,0,1-.14-12.882c.561-3.441,1.3-5.648.934-5.795-.412-.182-1.746,1.85-2.772,5.4a32.765,32.765,0,0,0-.7,13.731A34.343,34.343,0,0,0,5.762,32.955a14.551,14.551,0,0,0,4.233,4.276,8.9,8.9,0,0,0,3.591,1.3,7.842,7.842,0,0,0,4.037-.492,6.279,6.279,0,0,0,2.655-2.086,9.145,9.145,0,0,0,1.447-3.393,25.039,25.039,0,0,0,.4-7.725,27.208,27.208,0,0,0-2.181-8.045,27.905,27.905,0,0,0-4.29-6.8A25.643,25.643,0,0,0,10.5,5.475c-3.384-2.146-6-2.583-6.108-2.22" transform="matrix(-0.914, 0.407, -0.407, -0.914, 990.751, 2843.535)"/>
      <path id="Path_385" data-name="Path 385" d="M.1,20.166c.536.633,3.048-1.072,5.355-3.3a49.125,49.125,0,0,0,4.835-5.5,46.28,46.28,0,0,0,3.865-5.726C15.643,3.028,16.616.375,15.984.058c-.876-.449-2.45,1.783-4.125,4.122C10.219,6.54,8.45,9.018,8.006,9.575s-2.494,3.069-4.518,5.388c-2,2.34-3.961,4.525-3.386,5.2" transform="matrix(-0.914, 0.407, -0.407, -0.914, 1012.717, 2855.651)"/>
      <path id="Path_386" data-name="Path 386" d="M32.962.056c-.283-.345-2.243.978-5.758,1.891-1.746.495-3.867.922-6.211,1.5a31.059,31.059,0,0,0-7.327,2.726A30.272,30.272,0,0,0,2.325,16.647a14,14,0,0,0-2.264,5.8A7.216,7.216,0,0,0,.65,26.435a6.132,6.132,0,0,0,2.8,2.876A8.422,8.422,0,0,0,9.7,29.8a17.683,17.683,0,0,0,6.2-3.683,50.009,50.009,0,0,0,5.367-5.167,46.138,46.138,0,0,0,7.391-11.06c1.521-3.223,2.036-5.5,1.728-5.62C29.49,3.9,25.936,12.3,19.267,19.1a53.779,53.779,0,0,1-5.183,4.78,15.492,15.492,0,0,1-5.2,3.106A5.575,5.575,0,0,1,4.8,26.727,3.191,3.191,0,0,1,3.268,25.19,4.2,4.2,0,0,1,2.957,22.8,11.257,11.257,0,0,1,4.8,18.22,29,29,0,0,1,14.977,8.579c4.258-2.512,9.252-3.326,12.836-4.829,3.637-1.41,5.44-3.4,5.148-3.694" transform="matrix(-0.914, 0.407, -0.407, -0.914, 1030.575, 2837.494)"/>
      <path id="Path_387" data-name="Path 387" d="M1.935,33.286c.837-.124.614-3.993.821-8.072a74.357,74.357,0,0,1,.952-9.277A73.407,73.407,0,0,1,5.855,7.392c1.093-3.667,2.5-7,1.859-7.348C6.87-.415,4.74,2.725,3.293,6.486A45.435,45.435,0,0,0,.856,15.412a47.872,47.872,0,0,0-.837,9.768c.083,4.3,1.056,8.245,1.916,8.107" transform="matrix(-0.914, 0.407, -0.407, -0.914, 1000.145, 2907.444)"/>
      <path id="Path_388" data-name="Path 388" d="M4.884,0c-.377,0-.58,2.783.614,6.752,1.118,3.973,3.711,8.838,5.956,13.768,2.218,4.9,3.579,10.354,2.926,14.559a12.725,12.725,0,0,1-1.732,4.99c-.741,1.072-1.346,1.146-1.7,1.164a3.228,3.228,0,0,1-2.119-.872,13.926,13.926,0,0,1-3.108-3.989A26.84,26.84,0,0,1,2.781,22.724,65.515,65.515,0,0,1,4.96,9.285c.886-3.6,1.429-5.986,1.079-6.1-.453-.145-1.569,2.038-2.88,5.562A49.4,49.4,0,0,0,.065,22.607a28.323,28.323,0,0,0,3.1,15.173,16.389,16.389,0,0,0,3.876,4.879,6.163,6.163,0,0,0,4.037,1.47A4.443,4.443,0,0,0,13,43.616a5.786,5.786,0,0,0,2.05-1.893,15.305,15.305,0,0,0,2.231-6.232c.755-5.059-.879-11.028-3.338-16.11-2.482-5.072-5.192-9.625-6.648-13.26C5.77,2.526,5.365-.041,4.884,0" transform="matrix(-0.914, 0.407, -0.407, -0.914, 994.854, 2885.008)"/>
      <path id="Path_389" data-name="Path 389" d="M46.195,2.332c-.366-.315-2.321,2.063-6.453,3.876-4.106,1.884-10.2,2.806-16.657,2.875C16.644,9.22,9.651,9.443,4.2,11.66A6.647,6.647,0,0,0,.527,14.718,5.6,5.6,0,0,0,.32,18.96a8.964,8.964,0,0,0,2.758,3.977,10.836,10.836,0,0,0,4,2.08,17.57,17.57,0,0,0,7.182.564c5.45-.612,11.527-3.177,16.692-6.749A41.643,41.643,0,0,0,42.505,6.783C44.881,2.974,45.668.126,45.387.013,44.9-.207,43.57,2.328,40.95,5.725A47.427,47.427,0,0,1,29.427,16.579c-4.893,3.23-10.708,5.583-15.479,6.1-4.8.61-8.242-1.157-8.992-1.948a6.158,6.158,0,0,1-1.861-2.662c-.462-1.415-.131-2.8,2.213-3.7,4.746-1.953,11.376-2.282,17.888-2.551,6.531-.207,13.135-1.442,17.393-3.906,4.334-2.411,5.933-5.4,5.606-5.581" transform="matrix(-0.914, 0.407, -0.407, -0.914, 1039.032, 2870.779)"/>
      <path id="Path_390" data-name="Path 390" d="M.005,10.826c-.193.791,4.838,2.224,10.363,2.169a47.1,47.1,0,0,0,12.408-1.785A45.029,45.029,0,0,0,33.688,6.656C38.171,4.1,41.562.626,41.1.127c-.665-.755-4.35,2.006-8.714,4.141A56.619,56.619,0,0,1,22.009,8.416a58.581,58.581,0,0,1-11.7,1.845c-5.192.34-10.11-.32-10.3.566" transform="matrix(-0.914, 0.407, -0.407, -0.914, 1024.771, 2917.543)"/>
      <path id="Path_391" data-name="Path 391" d="M54.928,15.86c-.044-.5-3.175-.269-7.7-1.465-4.546-1.13-10.248-4.017-16.147-7.184C25.184,4.091,18.7.958,12.791.258A14.873,14.873,0,0,0,4.912.891,7.915,7.915,0,0,0,.937,4.04a6.621,6.621,0,0,0-.743,5A11.256,11.256,0,0,0,4.71,15.3a22.1,22.1,0,0,0,8.408,3.6,68.9,68.9,0,0,0,9.464,1.256c6.3.552,12.59.3,17.071-.939,4.509-1.176,7.019-2.993,6.858-3.25-.246-.478-2.928.722-7.255,1.415a61.776,61.776,0,0,1-16.425.067c-6.16-.6-12.551-1.523-16.37-4.493a8.431,8.431,0,0,1-3.43-4.576,3.666,3.666,0,0,1,.382-2.832A4.966,4.966,0,0,1,5.971,3.608a12.1,12.1,0,0,1,6.414-.449c5.314.607,11.5,3.5,17.444,6.487,5.942,3.02,12.045,5.836,17,6.607,4.941.837,8.178-.044,8.1-.393" transform="matrix(-0.914, 0.407, -0.407, -0.914, 1057.739, 2907.664)"/>
      <path id="Path_392" data-name="Path 392" d="M2.713,26.96c.824-.189.472-3.255.336-6.494-.182-3.239-.113-6.667-.06-7.414.032-.748.288-3.957.757-6.961C4.159,3.078,4.762.257,4.072.025,3.159-.29,1.822,2.433,1.079,5.562a38.264,38.264,0,0,0-.987,7.322A40.444,40.444,0,0,0,.32,20.7c.446,3.4,1.544,6.46,2.392,6.257" transform="matrix(-0.914, 0.407, -0.407, -0.914, 991.643, 2930.634)"/>
      <path id="Path_393" data-name="Path 393" d="M4.89,0C4.568-.063,3.837,3.021,5.1,7.51,6.275,12,9.542,17.256,12.848,22.345a69.157,69.157,0,0,1,4.447,7.768,24.781,24.781,0,0,1,2.314,7.506A8.7,8.7,0,0,1,18.6,43.09a6.008,6.008,0,0,1-2.22,2.114,4.126,4.126,0,0,1-2.659.488c-1.235-.173-2.756-1.219-4.148-2.991a34.308,34.308,0,0,1-3.911-6.42,35.2,35.2,0,0,1-2.491-7.828,37.39,37.39,0,0,1,.127-14.8C4.143,9.727,5.231,7.277,4.867,7.1c-.382-.212-2.061,2.031-3.389,6.082A33.93,33.93,0,0,0,.5,28.938a35.785,35.785,0,0,0,2.544,8.523,35.6,35.6,0,0,0,4.251,7.067c1.569,2.017,3.706,3.7,5.933,4.035a7.005,7.005,0,0,0,4.52-.8,8.973,8.973,0,0,0,3.32-3.117,11.534,11.534,0,0,0,1.458-7.311c-.626-5.618-3.918-11.426-7.382-16.485-3.476-5.077-6.754-9.9-8.235-13.929C5.341,2.932,5.42.015,4.89,0" transform="matrix(-0.914, 0.407, -0.407, -0.914, 989, 2918.303)"/>
      <path id="Path_394" data-name="Path 394" d="M48.725.386c-.391-.269-1.916,2.349-5.905,3.908a18.133,18.133,0,0,1-7.131,1.182,35.565,35.565,0,0,1-8.578-1.553C21.258,2.19,14.914-.164,9.246.009A20.792,20.792,0,0,0,5.3.439,7.272,7.272,0,0,0,1.845,2.091,5.606,5.606,0,0,0,.228,4.819,6.648,6.648,0,0,0,0,6.768a7.572,7.572,0,0,0,1.514,4.373,12.08,12.08,0,0,0,6,3.936,33.53,33.53,0,0,0,17.357.594A46.668,46.668,0,0,0,39.689,9.5c3.609-2.319,5.634-4.251,5.436-4.511-.308-.416-2.671,1.008-6.372,2.88A55.862,55.862,0,0,1,24.334,13a32.112,32.112,0,0,1-15.88-.7,9.307,9.307,0,0,1-4.61-2.922A4.669,4.669,0,0,1,2.9,6.7a3.2,3.2,0,0,1,.913-2.455c.771-.83,3.046-1.251,5.473-1.3a31.439,31.439,0,0,1,8.111,1.1c2.887.713,5.9,1.721,8.981,2.526A35.018,35.018,0,0,0,35.664,7.9,18.218,18.218,0,0,0,43.6,6.029,11.875,11.875,0,0,0,47.959,2.39c.768-1.136.936-1.907.766-2" transform="matrix(-0.914, 0.407, -0.407, -0.914, 1027.161, 2936.965)"/>
      <path id="Path_395" data-name="Path 395" d="M11.365.024c-.207-.271-3.018,1.758-5.038,6.469a21.053,21.053,0,0,0-1.6,8.56A22.14,22.14,0,0,0,7.39,24.9c1.573,3.108,3.533,5.917,5.125,8.668a24.729,24.729,0,0,1,3.2,8.005,12.144,12.144,0,0,1-.311,6.384A7.413,7.413,0,0,1,13.592,50.9a2.033,2.033,0,0,1-2.231.527C10.208,51,8.878,49.3,7.751,46.978a44.587,44.587,0,0,1-4.923-16.6A48.428,48.428,0,0,1,4.066,14.107C5.133,9.828,6.318,7.148,5.952,6.969,5.566,6.762,3.8,9.226,2.26,13.58A42.749,42.749,0,0,0,.118,30.608,45.03,45.03,0,0,0,5.168,48.342c1.192,2.34,2.675,4.78,5.1,5.79A4.744,4.744,0,0,0,13.7,54.2a5.8,5.8,0,0,0,1.829-1.141,10.269,10.269,0,0,0,2.616-4.113,14.974,14.974,0,0,0,.449-7.909,27.024,27.024,0,0,0-3.591-8.928c-1.7-2.869-3.669-5.62-5.185-8.465a20.524,20.524,0,0,1-2.668-8.691,21.186,21.186,0,0,1,.957-7.8C9.545,2.722,11.747.36,11.365.024" transform="matrix(-0.914, 0.407, -0.407, -0.914, 991.373, 2962.363)"/>
      <path id="Path_396" data-name="Path 396" d="M.01,27.129c-.156.338,1.567,1.507,4.55,2.576a34.789,34.789,0,0,0,11.633,1.829,40.821,40.821,0,0,0,12.418-2.04,41.038,41.038,0,0,0,6.9-3.062,38.424,38.424,0,0,0,5.944-4.067,48.569,48.569,0,0,0,7.948-8.627c4.753-6.6,7.962-13.388,7.4-13.708-.9-.534-4.764,5.91-9.567,12.058a53.5,53.5,0,0,1-7.651,8.026A36.874,36.874,0,0,1,34.106,23.9a39.5,39.5,0,0,1-6.416,2.813A42.658,42.658,0,0,1,16.14,28.8a45.838,45.838,0,0,1-11.07-.925c-2.94-.6-4.865-1.185-5.061-.743" transform="matrix(-0.914, 0.407, -0.407, -0.914, 1028.087, 2983.381)"/>
      <path id="Path_397" data-name="Path 397" d="M5.966.045C5.269-.387,3.244,2.326,2,5.677A31.478,31.478,0,0,0,.2,13.588,29.763,29.763,0,0,0,.3,21.237c.449,3.306,1.707,6.184,2.369,5.967.948-.294.458-3.177.334-6.241A46.482,46.482,0,0,1,3.081,13.9,47.167,47.167,0,0,1,4.588,6.563C5.46,3.393,6.732.51,5.966.045" transform="matrix(-0.914, 0.407, -0.407, -0.914, 982.881, 2995.215)"/>
      <path id="Path_398" data-name="Path 398" d="M2.339,0c-.373-.085-.957,2.275.508,5.367A17.855,17.855,0,0,0,6.1,9.958c1.424,1.5,3.08,2.853,4.645,4.249a23.533,23.533,0,0,1,4.08,4.391,9.579,9.579,0,0,1,1.647,4.734,6.169,6.169,0,0,1-.784,3.591,4.375,4.375,0,0,1-1.4,1.429A4.733,4.733,0,0,1,12.436,29a6.931,6.931,0,0,1-3.529-.531c-2.705-.966-4.815-4.311-5.648-8C1.47,12.949,2.673,5.454,1.96,5.364c-.925-.246-2.979,7.391-1.353,15.7A17.262,17.262,0,0,0,2.986,27.1a10.6,10.6,0,0,0,4.778,4.063,9.721,9.721,0,0,0,5.056.729,7.7,7.7,0,0,0,3-1.07,7.347,7.347,0,0,0,2.353-2.36,9,9,0,0,0,1.226-5.3,12.185,12.185,0,0,0-2.181-6.186,24.637,24.637,0,0,0-4.678-4.845C10.86,10.745,9.183,9.5,7.812,8.235A20.449,20.449,0,0,1,4.518,4.458C2.908,2.038,2.818.009,2.339,0" transform="matrix(-0.914, 0.407, -0.407, -0.914, 976.36, 2980.04)"/>
      <path id="Path_399" data-name="Path 399" d="M34.932.045c-.7-.495-3.727,3.2-7.5,6.515a66.652,66.652,0,0,1-9.153,6.91,65.461,65.461,0,0,1-9.708,4.808C4.221,20.086-.117,21.117,0,21.846c.14.943,4.8.6,9.5-1.014a48.525,48.525,0,0,0,10.285-4.884A50.959,50.959,0,0,0,29.31,8.554C33.08,4.827,35.647.53,34.932.045" transform="matrix(-0.914, 0.407, -0.407, -0.914, 1024.159, 2901.171)"/>
      <path id="Path_400" data-name="Path 400" d="M.413.065c-1.472.69,1.442,6.6,1.689,7.384.343.741,2.314,6.558,3.637,6.131,1.9-.616-.589-6.441-.936-7.189C4.554,5.6,2.056-.7.413.065" transform="matrix(-0.914, 0.407, -0.407, -0.914, 971.014, 2825.629)"/>
      <path id="Path_401" data-name="Path 401" d="M32.654.041c-.38-.223-1.081.5-2.241,1.355a22.58,22.58,0,0,1-4.732,2.659c-3.828,1.555-8.311,2.991-9.2,3.326-.948.3-5,1.647-8.859,2.468C3.765,10.754.062,10.867,0,11.578c-.1.975,3.906,1.608,8.088.95a53.028,53.028,0,0,0,9.287-2.39,79.249,79.249,0,0,0,9.459-3.6,14.431,14.431,0,0,0,4.918-3.793c1.044-1.366,1.263-2.5.9-2.705" transform="matrix(-0.914, 0.407, -0.407, -0.914, 1027.088, 2868.805)"/>
      <path id="Path_402" data-name="Path 402" d="M.89,0C-.78.1.393,14.058.5,15.772s.8,14.741,2.225,14.656c1.951-.12.773-13.115.669-14.828S2.652-.105.89,0" transform="matrix(-0.914, 0.407, -0.407, -0.914, 991.392, 2886.35)"/>
      <path id="Path_403" data-name="Path 403" d="M15.256,5.182c.124-.828-1.6-1.433-3.418-1.994-1.965-.57-3.761-1.1-4.178-1.217S5.648,1.3,3.763.666C2.059.135.412-.33.083.312c-.442.867.948,2.013,2.634,2.864A24.6,24.6,0,0,0,6.761,4.729a26.611,26.611,0,0,0,4.451,1.125c1.992.3,3.913.2,4.044-.672" transform="matrix(-0.914, 0.407, -0.407, -0.914, 1053.421, 2903.34)"/>
      <path id="Path_404" data-name="Path 404" d="M.375.026c-.784.276-.237,2.827.7,5.42a58.228,58.228,0,0,0,2.512,5.769A53.321,53.321,0,0,0,6.4,16.446c1.355,2.192,2.887,4.079,3.5,3.711.837-.508-.048-2.728-1.107-5.006C7.716,12.883,6.471,10.53,6.207,9.968S4.822,7,3.607,4.4C2.427,1.991,1.21-.269.375.026" transform="matrix(-0.914, 0.407, -0.407, -0.914, 971.222, 2896.693)"/>
      <path id="Path_405" data-name="Path 405" d="M28.49.182c-.483-.7-3.333.8-6.648,1.527a41.588,41.588,0,0,1-7.748,1.024c-.8.064-4.247.009-7.543-.184C3.255,2.39.1,2.25,0,2.97c-.131.957,2.917,1.815,6.287,2.287a43.469,43.469,0,0,0,7.881.375,30.132,30.132,0,0,0,8.4-1.281C26.215,3.218,29.005.886,28.49.182" transform="matrix(-0.914, 0.407, -0.407, -0.914, 1009.251, 2937.917)"/>
      <path id="Path_406" data-name="Path 406" d="M1.929.005C1.115-.137.3,2.674.084,5.761a37.323,37.323,0,0,0,.225,7.046,35,35,0,0,0,1.3,6.522c.828,2.77,2.121,5.164,2.777,4.9.92-.357.354-2.885-.138-5.56-.543-2.664-.991-5.507-1.054-6.177-.083-.669-.322-3.727-.37-6.641-.087-2.91-.016-5.7-.893-5.848" transform="matrix(-0.914, 0.407, -0.407, -0.914, 985.039, 2953.942)"/>
    </g>
    <g id="Group_10" data-name="Group 10" transform="translate(1533.854 1940.729) rotate(68)">
      <path id="Path_407" data-name="Path 407" d="M92.838,97.6c-.437.129-1.836-3.639-4.074-9.307-1.272-2.779-2.475-6.154-4.27-9.588-.863-1.732-1.691-3.561-2.643-5.376-1-1.794-2.015-3.625-3.043-5.468A152.439,152.439,0,0,0,65.144,47.945C63,45.134,60.851,42.864,59.2,41c-.828-.927-1.553-1.732-2.151-2.4-.635-.633-1.136-1.13-1.481-1.472-.692-.688-1.958-1.942-3.639-3.607-1.668-1.682-3.959-3.554-6.423-5.788-2.526-2.165-5.459-4.426-8.516-6.768-3.168-2.192-6.379-4.605-9.788-6.607A170.32,170.32,0,0,0,8.517,4.258C3.3,1.978-.119.465,0,.108.15-.336,3.792.61,9.248,2.526a122.483,122.483,0,0,1,19.374,9.519c3.513,1.974,6.816,4.389,10.062,6.6,3.135,2.36,6.135,4.656,8.712,6.86,2.517,2.271,4.849,4.189,6.545,5.91l3.7,3.683c.354.35.865.856,1.511,1.5.614.676,1.353,1.5,2.2,2.438,1.686,1.891,3.885,4.2,6.068,7.069a140.972,140.972,0,0,1,13.77,20.407c1,1.9,2,3.784,2.979,5.634.922,1.873,1.716,3.759,2.53,5.549,1.7,3.552,2.763,7.044,3.844,9.938,1.863,5.9,2.678,9.862,2.291,9.97" transform="matrix(0.914, 0.407, -0.407, 0.914, 43.589, 44.838)"/>
      <path id="Path_408" data-name="Path 408" d="M.044,4.415c-.152-.106.071-.824.964-1.767A9,9,0,0,1,5.744.23a12.714,12.714,0,0,1,7.559.9,24.759,24.759,0,0,1,7.129,4.927A66.5,66.5,0,0,1,30.8,19.036c2.576,4.1,4.221,7.419,4.842,8.59s2.2,4.311,4.113,8.378,4.175,9.052,6.512,13.789A135.387,135.387,0,0,0,53.087,62.2c1.971,3.23,3.416,5.259,3.1,5.521-.329.285-2.268-1.387-4.649-4.454a79.72,79.72,0,0,1-7.688-12.234c-2.51-4.743-4.822-9.733-6.733-13.777s-3.439-7.143-4.049-8.3c-1.2-2.275-6.609-13.076-14.532-20.929a24.136,24.136,0,0,0-6.23-4.686A11.55,11.55,0,0,0,6.034,2.11C2.16,2.446.4,4.737.044,4.415" transform="matrix(0.914, 0.407, -0.407, 0.914, 51.016, 2.576)"/>
      <path id="Path_409" data-name="Path 409" d="M2.264,15.249c-.228-.363.223-1.012-.193-2.284A11.912,11.912,0,0,0,.943,10.7a6.164,6.164,0,0,1-.874-4C.623,3.593,3.207,1.743,5.183.936A12.429,12.429,0,0,1,9.519.016a15.044,15.044,0,0,1,4.1.382,18.916,18.916,0,0,1,6.048,2.65c3.77,2.519,6.471,5.549,6.052,6.05-.651.8-3.9-1.709-7.453-3.722A19.965,19.965,0,0,0,12.993,3.25,12.827,12.827,0,0,0,9.65,2.912a9.921,9.921,0,0,0-3.326.722A5.778,5.778,0,0,0,2.765,7.177c-.511,1.41,1.136,3.4,1.189,5.528a3.132,3.132,0,0,1-.741,2.282c-.442.43-.826.426-.95.262" transform="matrix(0.914, 0.407, -0.407, 0.914, 37.177, 0)"/>
      <path id="Path_410" data-name="Path 410" d="M17.521,37.618c.092.147-.488.759-1.868.837a6.055,6.055,0,0,1-4.812-2.475C9.378,34.1,8.876,31.419,8.674,28.847s-.363-5.227-1.665-7.113c-1.272-1.96-3.929-3.37-5.717-6.085A7.036,7.036,0,0,1,.054,10.894,6.882,6.882,0,0,1,2.311,6.9a43.123,43.123,0,0,1,5.1-3.738,27.489,27.489,0,0,1,3.257-1.785A15.178,15.178,0,0,1,14.216.216a12.062,12.062,0,0,1,6.351.515C24.814,2.263,29.8,4.138,34.646,6.3A70.829,70.829,0,0,1,47.07,13.211c3.092,2.25,4.8,4.088,4.582,4.341-.329.393-2.383-.945-5.608-2.765A113.643,113.643,0,0,0,33.574,8.792C28.819,6.837,23.7,4.962,19.668,3.51a9.938,9.938,0,0,0-7.791.506A23.569,23.569,0,0,0,8.985,5.624a42.817,42.817,0,0,0-4.656,3.4c-1.548,1.376-1.916,3.03-.605,5.063,1.141,1.967,3.754,3.416,5.569,6.137,1.792,2.866,1.691,5.995,1.8,8.463a12.755,12.755,0,0,0,1.3,6.193,5.5,5.5,0,0,0,3.338,2.466c1.021.23,1.7.046,1.79.271" transform="matrix(0.914, 0.407, -0.407, 0.914, 15.643, 5.319)"/>
      <path id="Path_411" data-name="Path 411" d="M71.3,13.325c-.2.361-2.452-1.074-5.905.191a15.838,15.838,0,0,0-5.2,3.49,67.935,67.935,0,0,1-6.073,5.275c-4.46,3.43-10.221,5.8-15.176,5.864a18.079,18.079,0,0,1-9.756-2.33,25.2,25.2,0,0,1-2.912-1.978c-1.265-.973-2.719-2.289-4.316-3.665a23.993,23.993,0,0,0-5.445-3.75,47,47,0,0,0-7.1-2.073,15.537,15.537,0,0,1-7.065-3.635A8.325,8.325,0,0,1,.289,7.485a6.21,6.21,0,0,1-.071-3.5A5.484,5.484,0,0,1,3.36.192C4.558-.2,5.244.1,5.221.245c0,.269-.63.389-1.378.932a4.919,4.919,0,0,0-1.79,3.211,4.514,4.514,0,0,0,.274,2.344A6.469,6.469,0,0,0,4,8.964a13.914,13.914,0,0,0,6.087,2.751,43.782,43.782,0,0,1,7.6,2.08,25.8,25.8,0,0,1,6.174,4.15,43.8,43.8,0,0,0,6.77,5.351,15.227,15.227,0,0,0,8.224,1.923c4.27-.051,9.372-2.05,13.664-5.155,2.19-1.511,4.118-3.246,6.089-4.893a15.967,15.967,0,0,1,6.25-3.481,7.788,7.788,0,0,1,5.054.329c1.125.527,1.509,1.159,1.389,1.307" transform="matrix(0.914, 0.407, -0.407, 0.914, 14.48, 44.672)"/>
      <path id="Path_412" data-name="Path 412" d="M30.251,58.483c-1.6.5-10.936-30.506-12.123-34.3-.292-.948-1.074-3.458-2.082-6.692C15,14.258,14.04,10.232,12.108,7.06A11.023,11.023,0,0,0,8.552,3.3,9.312,9.312,0,0,0,4.383,1.9C1.77,1.681.3,2.917.045,2.594-.1,2.438.086,1.907.8,1.322A6.276,6.276,0,0,1,4.386.023,10.1,10.1,0,0,1,9.739,1.212,12.731,12.731,0,0,1,14.4,5.594c2.4,3.681,3.391,7.856,4.437,11.028l2.063,6.7c1.182,3.793,11.037,34.635,9.353,35.162" transform="matrix(0.914, 0.407, -0.407, 0.914, 67.792, 17.966)"/>
      <path id="Path_413" data-name="Path 413" d="M1.166,7.971C.874,8.229-.2,7.254.034,5.354A5.377,5.377,0,0,1,1.311,2.57,6.837,6.837,0,0,1,4.283.647,18.794,18.794,0,0,1,10.416,0c1.712.021,3.025.12,3.5.145a56.245,56.245,0,0,1,8.735,1.146c3.74.8,7.083,2.114,6.883,2.795-.274.943-3.708.359-7.352-.117-3.642-.52-7.522-.89-8.431-.932-.455-.021-1.716-.085-3.361-.106a21.43,21.43,0,0,0-5.277.329,5.137,5.137,0,0,0-2.043.989A4.6,4.6,0,0,0,1.884,5.8c-.52,1.042-.317,1.939-.718,2.169" transform="matrix(0.914, 0.407, -0.407, 0.914, 15.841, 42.888)"/>
      <path id="Path_414" data-name="Path 414" d="M.017,10.524c.2-.4,1.852.209,4.435.591A30.677,30.677,0,0,0,14.142,11c7.173-1.189,14.311-4.916,15.9-5.576l5.592-2.645C38.321,1.587,41.912-.246,46.012.027a11.372,11.372,0,0,1,5.355,1.886,17.859,17.859,0,0,1,3.485,3.039c1.739,1.974,2.576,3.428,2.328,3.655-.375.34-1.7-.741-3.632-2.3-1.916-1.525-4.635-3.5-7.69-3.568-3.069-.115-6.305,1.452-8.988,2.68L31.285,8.04c-1.585.642-8.831,4.635-16.742,5.666A24.923,24.923,0,0,1,4.018,12.97c-2.731-.867-4.2-2.086-4-2.445" transform="matrix(0.914, 0.407, -0.407, 0.914, 38.229, 87.631)"/>
      <path id="Path_415" data-name="Path 415" d="M57.573,3.9c-.419.113-.975-1.723-3.554-1.85a5.781,5.781,0,0,0-3.888,1.109,20.475,20.475,0,0,0-3.692,4.005,20.228,20.228,0,0,1-4.527,4.53,19.978,19.978,0,0,1-5.346,2.6,27.442,27.442,0,0,1-7.177,1.189,35.229,35.229,0,0,1-6.828-.407,42.033,42.033,0,0,1-10.7-3.147C4.643,8.832-.494,3.456.038,2.977.7,2.259,6.053,6.81,12.918,9.432a45.591,45.591,0,0,0,10.073,2.76,33.425,33.425,0,0,0,6.28.4,25.082,25.082,0,0,0,6.4-1.081,17.844,17.844,0,0,0,4.592-2.183,18.616,18.616,0,0,0,4.049-3.883,20.1,20.1,0,0,1,4.449-4.286A7.34,7.34,0,0,1,54.314.175a4.534,4.534,0,0,1,3.209,2.248c.4.9.237,1.449.051,1.481" transform="matrix(0.914, 0.407, -0.407, 0.914, 35.83, 94.548)"/>
      <path id="Path_416" data-name="Path 416" d="M.006,12.882c.076-.432.971-.506,2.084-1.01a12.213,12.213,0,0,0,3.782-2.8c1.27-1.3,2.415-2.949,3.575-4.274A19.456,19.456,0,0,1,12.056,2.22,10.082,10.082,0,0,1,15.332.384a8.945,8.945,0,0,1,6.147.363,14.7,14.7,0,0,1,4.433,2.945c.994.966,1.5,1.725,1.284,2-.623.84-3.527-1.35-6.655-2.4a6.944,6.944,0,0,0-4.3-.138,7.6,7.6,0,0,0-2.36,1.311A17.582,17.582,0,0,0,11.669,6.7a45.65,45.65,0,0,1-3.89,4.336,9.881,9.881,0,0,1-5.222,2.675C.887,13.9-.088,13.28.006,12.882" transform="matrix(0.914, 0.407, -0.407, 0.914, 63.656, 102.733)"/>
      <path id="Path_417" data-name="Path 417" d="M12.232,59.556c-.778.265-3.393-6.243-5.7-13.349A156.72,156.72,0,0,1,2.151,29.644a97.22,97.22,0,0,1-2.084-16.1C-.29,6.475.861-.1,1.542,0c.994.127.593,6.561,1.24,13.384A132.83,132.83,0,0,0,4.992,29.053C5.307,30.725,7.1,38.3,9.149,45.411c2,7.117,3.931,13.86,3.083,14.145" transform="matrix(0.914, 0.407, -0.407, 0.914, 101.997, 94.316)"/>
      <path id="Path_418" data-name="Path 418" d="M1.3,2.794C.482,2.937.077,2.537.013,2.028A1.843,1.843,0,0,1,.25.97,1.721,1.721,0,0,1,.875.16.949.949,0,0,1,2.228.494c1.134,1.573.748,1.472.695,1.6-.053.1.092.359-1.619.7" transform="matrix(0.914, 0.407, -0.407, 0.914, 94.087, 86.68)"/>
      <path id="Path_419" data-name="Path 419" d="M1.71,3.14A1.01,1.01,0,0,1,.2,2.767a2.212,2.212,0,0,1-.2-1.152A2.037,2.037,0,0,1,.238.538,1,1,0,0,1,1.62.121C3.364.931,2.876,1.4,2.906,1.564c-.032.15.313.736-1.2,1.576" transform="matrix(0.914, 0.407, -0.407, 0.914, 92.489, 93.588)"/>
      <path id="Path_420" data-name="Path 420" d="M1.175,3.993C.351,4.119-.074,3.427.011,2.647A2.975,2.975,0,0,1,.7,1.113,2.761,2.761,0,0,1,1.927.119C2.6-.153,3.319.036,3.459.733,3.806,2.6,3.167,2.6,3.04,2.824c-.173.159-.2.849-1.866,1.169" transform="matrix(0.914, 0.407, -0.407, 0.914, 101.994, 82.813)"/>
      <path id="Path_421" data-name="Path 421" d="M2.933,3.27C1.7,4.4.8,2.93.663,2.776S-.609,1.522.444.556A1.381,1.381,0,0,1,2.8.816,1.552,1.552,0,0,1,2.933,3.27" transform="matrix(0.914, 0.407, -0.407, 0.914, 108.451, 88.912)"/>
      <path id="Path_422" data-name="Path 422" d="M1.78,2.618C.188,3.131.142,1.9.1,1.767S-.371.607.988.17c1.861-.6,1.824.571,1.868.706s.6,1.2-1.077,1.741" transform="matrix(0.914, 0.407, -0.407, 0.914, 108.288, 98.882)"/>
      <path id="Path_423" data-name="Path 423" d="M32.726.936c-.1.442-1.081.412-2.307.955a16.034,16.034,0,0,0-4.35,3.046,33.981,33.981,0,0,1-5.017,4.046,22.185,22.185,0,0,1-3.577,1.776,22.137,22.137,0,0,1-9.82,1.488C3.267,11.95-.326,9.82.024,9.21c.437-.888,3.915.359,7.759.32A23.837,23.837,0,0,0,16.4,8.065,20.939,20.939,0,0,0,19.5,6.5a48.884,48.884,0,0,0,4.808-3.66A12.057,12.057,0,0,1,29.966.041c1.831-.223,2.885.52,2.76.895" transform="matrix(0.914, 0.407, -0.407, 0.914, 42.077, 68.037)"/>
    </g>
  </g>
</svg>
