<svg xmlns="http://www.w3.org/2000/svg" width="111.141" height="152.208" viewBox="0 0 111.141 152.208">
  <g id="Group_4" data-name="Group 4" transform="translate(65.315 163.881) rotate(-34)">
    <path id="Path_82" data-name="Path 82" d="M66.452-49.771c-.242-.015.05-3.04-.562-7.584a44.759,44.759,0,0,0-1.781-7.661,54.724,54.724,0,0,0-3.617-8.456A70.611,70.611,0,0,0,49.842-88.205c-3.655-3.887-6.744-6.636-7.832-7.639L34.2-102.825c-1.888-1.693-3.962-3.609-6.07-5.667-2.093-2.075-4.2-4.316-6.136-6.643a63.111,63.111,0,0,1-5.094-7.154,34.606,34.606,0,0,1-3.193-6.816,21.27,21.27,0,0,1-1.06-5.146,5.223,5.223,0,0,1,.077-1.974c.257-.014.251,2.85,1.779,6.84a37.37,37.37,0,0,0,3.317,6.533,67.141,67.141,0,0,0,5.11,6.935c1.932,2.265,4.022,4.46,6.1,6.5,2.1,2.028,4.161,3.927,6.044,5.613l7.811,6.993c1.093,1.008,4.21,3.761,7.918,7.706A69.253,69.253,0,0,1,61.578-74.044a52.6,52.6,0,0,1,3.568,8.7,40.9,40.9,0,0,1,1.59,7.888,32.346,32.346,0,0,1,.071,5.6,6.081,6.081,0,0,1-.356,2.08" transform="translate(0.404 0.123)"/>
    <path id="Path_83" data-name="Path 83" d="M61.19-71.653c.272-.253,1.459.82,2.5,2.16a24.663,24.663,0,0,1,2.105,3.243,23.262,23.262,0,0,1,1.548,3.3c.559,1.481.842,2.941.539,3.032-.424.128-1-1.19-1.663-2.558-.638-1.379-1.371-2.812-1.558-3.137s-1.058-1.8-1.963-3.155c-.89-1.361-1.8-2.614-1.5-2.885" transform="translate(1.958 2.19)"/>
    <path id="Path_84" data-name="Path 84" d="M66.057-63.992c.2.015.216,1.038.4,2.564a21.872,21.872,0,0,0,1.4,5.512,18.672,18.672,0,0,0,3.063,5.133,3.2,3.2,0,0,0,1.585,1.07,1.177,1.177,0,0,0,.857-.137,2.154,2.154,0,0,0,.706-2.468,11.981,11.981,0,0,0-1.008-2.447,26.426,26.426,0,0,0-1.5-2.57c-2.167-3.373-5.159-5.758-4.963-6.007.125-.167,1.007.27,2.172,1.212a20.914,20.914,0,0,1,3.8,4.105A23.443,23.443,0,0,1,74.2-55.359a12.454,12.454,0,0,1,1.14,2.738,3.9,3.9,0,0,1-.2,2.617,2.912,2.912,0,0,1-1.107,1.264,2.492,2.492,0,0,1-1.783.311,4.412,4.412,0,0,1-2.3-1.465,18.317,18.317,0,0,1-3.241-5.579,17.413,17.413,0,0,1-1.1-5.9c.006-1.612.268-2.637.452-2.619" transform="translate(2.101 2.437)"/>
    <path id="Path_85" data-name="Path 85" d="M56.137-58.812c-.271-.265.659-1.441,1.525-2.758a33.412,33.412,0,0,0,1.849-3.091,33.522,33.522,0,0,0,1.354-3.121c.54-1.376.932-2.721,1.253-2.664.426.073.344,1.545-.095,3.044a17.81,17.81,0,0,1-1.35,3.324,18.867,18.867,0,0,1-2.015,3.224c-1.027,1.315-2.244,2.316-2.522,2.04" transform="translate(1.797 2.23)"/>
    <path id="Path_86" data-name="Path 86" d="M59.267-61.722c.05.2-.853.511-2.123,1.165a17.437,17.437,0,0,0-4.279,3.08A15.423,15.423,0,0,0,51-55.239a9.175,9.175,0,0,0-1.2,2.293,3.147,3.147,0,0,0-.121,1.784,1.409,1.409,0,0,0,.48.711,1.5,1.5,0,0,0,.807.286,2.456,2.456,0,0,0,1.562-.442,6.739,6.739,0,0,0,1.639-1.729c.535-.736,1.055-1.528,1.532-2.332,1.947-3.2,2.926-6.634,3.234-6.553.431.085-.256,3.727-2.174,7.156a26.131,26.131,0,0,1-1.541,2.478,7.76,7.76,0,0,1-1.962,2.071,3.739,3.739,0,0,1-2.394.653,2.818,2.818,0,0,1-1.486-.551,2.716,2.716,0,0,1-.947-1.366,4.359,4.359,0,0,1,.118-2.558,9.991,9.991,0,0,1,1.39-2.635,15.2,15.2,0,0,1,2.077-2.388,14.339,14.339,0,0,1,4.79-2.977c1.429-.511,2.425-.562,2.466-.384" transform="translate(1.547 2.506)"/>
    <path id="Path_87" data-name="Path 87" d="M58.946-42.6c-.343-.18,1.056-3.142,2.007-6.466a46.909,46.909,0,0,0,1.591-7.727,45.734,45.734,0,0,0,.183-7.446c-.137-3.234-.753-6.227-.427-6.309.409-.11,1.362,2.886,1.643,6.217a36.859,36.859,0,0,1-.105,7.679A38.57,38.57,0,0,1,62.127-48.7c-1.114,3.393-2.845,6.285-3.181,6.1" transform="translate(1.886 2.226)"/>
    <path id="Path_88" data-name="Path 88" d="M55.607-81c.188-.326,1.944.507,3.791,1.413l4.212,2.1,4.014,1.9c1.733.838,3.356,1.645,3.236,1.944-.161.407-1.92-.1-3.726-.827s-3.655-1.64-4.087-1.849-2.423-1.145-4.223-2.185-3.413-2.157-3.217-2.5" transform="translate(1.781 1.889)"/>
    <path id="Path_89" data-name="Path 89" d="M64.226-76.509c.171-.117.957.915,2.347,2.292a26.785,26.785,0,0,0,5.736,4.423,24.629,24.629,0,0,0,3.634,1.7,9.224,9.224,0,0,0,3.426.749,3.5,3.5,0,0,0,2.3-.872,2.112,2.112,0,0,0,.665-1.141,2.5,2.5,0,0,0-.09-1.318,4.981,4.981,0,0,0-1.37-2.052,12.694,12.694,0,0,0-6.383-2.783c-5.009-.844-9.881-.631-9.886-.966-.032-.419,4.85-.975,10.088-.237a13.406,13.406,0,0,1,7.071,3.025,6.228,6.228,0,0,1,1.725,2.618,3.84,3.84,0,0,1,.116,1.988,3.445,3.445,0,0,1-1.039,1.819,4.77,4.77,0,0,1-3.156,1.232,10.2,10.2,0,0,1-3.921-.848,23.9,23.9,0,0,1-3.8-1.849,22.427,22.427,0,0,1-5.746-4.908c-1.3-1.564-1.866-2.771-1.716-2.868" transform="translate(2.056 2.017)"/>
    <path id="Path_90" data-name="Path 90" d="M49.5-66.65c-.252-.291,1.261-1.743,2.624-3.441a18.951,18.951,0,0,0,2.637-4.15,13.435,13.435,0,0,0,1.071-4.438,13.553,13.553,0,0,0-.126-2.667c-.1-.716-.2-1.2-.04-1.264.193-.085.548.313.857,1.05a8.015,8.015,0,0,1,.529,2.91,12.29,12.29,0,0,1-1.1,4.928,14.389,14.389,0,0,1-.911,1.777A16.894,16.894,0,0,1,53.061-69.3c-1.55,1.709-3.313,2.94-3.561,2.645" transform="translate(1.585 1.84)"/>
    <path id="Path_91" data-name="Path 91" d="M54.343-71.036c.1.146-.989,1.066-2.89,2.085-1.884,1.04-4.567,2.1-7.14,3.417a19.312,19.312,0,0,0-3.583,2.27,6.862,6.862,0,0,0-2.166,2.923,4.137,4.137,0,0,0,.017,2.695,3.189,3.189,0,0,0,.811,1.294,2.488,2.488,0,0,0,1.245.637,3.592,3.592,0,0,0,2.443-.54A10.753,10.753,0,0,0,45.766-58.6a39.914,39.914,0,0,0,2.524-3.17c3.226-4.4,4.934-9.29,5.235-9.18.425.106-1.011,5.244-4.234,9.877a35.951,35.951,0,0,1-2.553,3.321,11.741,11.741,0,0,1-3.007,2.633,4.888,4.888,0,0,1-3.341.685,3.811,3.811,0,0,1-1.89-.974,4.516,4.516,0,0,1-1.153-1.8,5.412,5.412,0,0,1-.025-3.562A8.051,8.051,0,0,1,39.9-64.257a19.4,19.4,0,0,1,3.862-2.375c2.7-1.306,5.394-2.242,7.32-3.089,1.938-.82,3.148-1.487,3.263-1.316" transform="translate(1.186 2.21)"/>
    <path id="Path_92" data-name="Path 92" d="M57.774-87.626c-.033.369-1.335.392-2.681.1a15.141,15.141,0,0,1-2.969-1,14.231,14.231,0,0,1-2.58-1.439c-1.054-.737-1.866-1.635-1.658-1.872.289-.336,1.26.267,2.311.841,1.039.6,2.174,1.164,2.449,1.278s1.525.623,2.752,1c1.22.4,2.415.695,2.377,1.093" transform="translate(1.533 1.541)"/>
    <path id="Path_93" data-name="Path 93" d="M50.077-90.922c.118-.165,1.08.484,2.806.438,1.69.012,4.106-.629,6.694-.61a15.2,15.2,0,0,1,7.249,1.53,10.156,10.156,0,0,1,1.327.829,4.712,4.712,0,0,1,1.051.952,2.336,2.336,0,0,1,.5,1.2,2.233,2.233,0,0,1-.076.853,2.907,2.907,0,0,1-1.112,1.567,4.818,4.818,0,0,1-2.818.745,21.316,21.316,0,0,1-6.805-1.118A20.208,20.208,0,0,1,53.2-87.494c-1.367-1.043-2.092-1.905-1.992-2.012.156-.172,1.048.471,2.467,1.315a25.623,25.623,0,0,0,5.588,2.5,21.908,21.908,0,0,0,6.415.968,3.615,3.615,0,0,0,2.069-.492,1.6,1.6,0,0,0,.625-.853.938.938,0,0,0-.2-.907,7.221,7.221,0,0,0-1.958-1.42,14.726,14.726,0,0,0-6.639-1.465,31.854,31.854,0,0,0-3.557.155,16.78,16.78,0,0,1-3.175.08,5.1,5.1,0,0,1-2.172-.659c-.465-.3-.646-.56-.593-.632" transform="translate(1.604 1.568)"/>
    <path id="Path_94" data-name="Path 94" d="M44.789-83.016c-.332-.19.221-1.478.48-2.92a14.313,14.313,0,0,0,.257-3.326,13.953,13.953,0,0,0-.567-3.1c-.364-1.328-.992-2.484-.72-2.672.346-.254,1.323.83,1.87,2.266a10.643,10.643,0,0,1,.714,3.427,11.189,11.189,0,0,1-.357,3.685c-.43,1.584-1.345,2.841-1.677,2.64" transform="translate(1.415 1.441)"/>
    <path id="Path_95" data-name="Path 95" d="M46.408-89.122c.079-.012.232.332.193.979a5.013,5.013,0,0,1-.974,2.43A29.448,29.448,0,0,1,43.3-82.985c-.853.963-1.73,2.035-2.563,3.163a30.069,30.069,0,0,0-2.266,3.471,5.867,5.867,0,0,0-.8,3.353,3.4,3.4,0,0,0,1.187,2.211,2.056,2.056,0,0,0,1.261.46A3.148,3.148,0,0,0,41.5-70.67a7.684,7.684,0,0,0,2.156-1.574,11.915,11.915,0,0,0,3.022-6.473,27.873,27.873,0,0,0-.029-6.99c-.2-1.894-.323-3.147-.159-3.175.21-.036.6,1.159.994,3.052a22.8,22.8,0,0,1,.4,7.284,12.733,12.733,0,0,1-3.291,7.217,8.844,8.844,0,0,1-2.542,1.843,4.493,4.493,0,0,1-1.951.458,3.386,3.386,0,0,1-2.049-.728,4.678,4.678,0,0,1-1.686-3.072,7.026,7.026,0,0,1,.958-4.125,28.4,28.4,0,0,1,2.434-3.61A37.514,37.514,0,0,1,42.5-83.724c.932-.954,1.814-1.736,2.442-2.5A5.812,5.812,0,0,0,46.11-88.23c.166-.537.189-.882.3-.892" transform="translate(1.164 1.632)"/>
    <path id="Path_96" data-name="Path 96" d="M35.209-102.411c.114-.159,1.232.654,3.279.519a35.344,35.344,0,0,0,7.566-1.565c1.384-.419,2.714-.992,4.126-1.461a8.319,8.319,0,0,1,4.309-.428,5.036,5.036,0,0,1,2.974,2.013,3.425,3.425,0,0,1,.625,2.144,3.323,3.323,0,0,1-.84,2A6.142,6.142,0,0,1,54.385-97.5a16.86,16.86,0,0,1-8.109.262,28.508,28.508,0,0,1-7.06-2.5c-1.778-.9-2.856-1.63-2.784-1.765.105-.2,1.307.284,3.131,1A37.135,37.135,0,0,0,46.5-98.434,16.362,16.362,0,0,0,54-98.75a4.93,4.93,0,0,0,2.265-1.3,2,2,0,0,0,.528-1.219,2.088,2.088,0,0,0-.41-1.331,3.766,3.766,0,0,0-2.186-1.468,7.2,7.2,0,0,0-3.619.382c-1.307.419-2.727,1-4.163,1.4a28.138,28.138,0,0,1-7.927,1.244,5.6,5.6,0,0,1-2.566-.664c-.554-.333-.766-.64-.71-.709" transform="translate(1.127 1.108)"/>
    <path id="Path_97" data-name="Path 97" d="M32.418-106.143c.038-.069.477.061.987.644a4.516,4.516,0,0,1,.97,2.968,11.207,11.207,0,0,1-1.139,4.205L31.3-93.82c-.658,1.553-1.412,3.118-1.942,4.6a8.206,8.206,0,0,0-.535,4.2,4.408,4.408,0,0,0,1.649,2.627,2.874,2.874,0,0,0,1.6.621,2.491,2.491,0,0,0,1.536-.46,6.423,6.423,0,0,0,1.951-2.407c1.16-2.22,1.364-5.476,1.18-8.573a26.173,26.173,0,0,0-1.645-8.125c-.809-2.076-1.664-3.286-1.515-3.393.15-.125,1.256.956,2.289,3.056a23.145,23.145,0,0,1,2.088,8.381c.251,3.171.1,6.658-1.225,9.241a7.611,7.611,0,0,1-2.392,2.9,3.824,3.824,0,0,1-2.327.676,4.193,4.193,0,0,1-2.315-.87,5.678,5.678,0,0,1-2.16-3.429,9.332,9.332,0,0,1,.6-4.882c.59-1.607,1.351-3.127,2.04-4.672l2.064-4.449a11.517,11.517,0,0,0,1.282-3.8,4.582,4.582,0,0,0-.524-2.64c-.327-.579-.644-.843-.58-.933" transform="translate(0.878 1.086)"/>
    <path id="Path_98" data-name="Path 98" d="M39.42-111.918c.093.152-.3.566-1.066.975a8.728,8.728,0,0,1-3.07.906,13.2,13.2,0,0,1-5.374-.575,17.893,17.893,0,0,1-4.546-2.174c-1.815-1.2-3.265-2.6-3.067-2.845.28-.347,1.91.78,3.706,1.806a22.4,22.4,0,0,0,4.29,1.971,14.309,14.309,0,0,0,4.876.594c2.172-.067,4.045-.99,4.251-.658" transform="translate(0.714 0.78)"/>
    <path id="Path_99" data-name="Path 99" d="M31.041-110.085c-.029-.159,1.392-.529,3.589-.372a47.418,47.418,0,0,1,7.9,1.589,37.678,37.678,0,0,0,4.271.85,11.307,11.307,0,0,0,3.809-.021,2.551,2.551,0,0,0,2-1.428,1.753,1.753,0,0,0-.074-1.335,3.668,3.668,0,0,0-.919-1.212,7.931,7.931,0,0,0-2.409-1.421,13.109,13.109,0,0,0-7.468-.691,12.627,12.627,0,0,0-3.61,1.3c-1.08.591-2.073,1.249-3,1.7a6.805,6.805,0,0,1-2.385.74c-.607.042-.944-.053-.942-.123.007-.228,1.293-.3,2.925-1.359.83-.5,1.75-1.2,2.868-1.891a12.813,12.813,0,0,1,3.893-1.556,13.881,13.881,0,0,1,8.214.67,9.115,9.115,0,0,1,2.8,1.671,5.006,5.006,0,0,1,1.227,1.652,3.054,3.054,0,0,1,.118,2.3,3.075,3.075,0,0,1-1.1,1.458,4.945,4.945,0,0,1-1.823.811,7.823,7.823,0,0,1-2.109.2,21.549,21.549,0,0,1-2.177-.172,34.935,34.935,0,0,1-4.409-.945,74.486,74.486,0,0,0-7.688-1.931c-2.076-.342-3.471-.255-3.5-.477" transform="translate(0.994 0.782)"/>
    <path id="Path_100" data-name="Path 100" d="M18.447-105.256c-.275-.267.631-1.424,1.258-2.827a14.236,14.236,0,0,0,1.078-3.324,13.819,13.819,0,0,0,.15-3.3c-.068-1.442-.464-2.762-.159-2.89.39-.174,1.147,1.153,1.371,2.748a10.874,10.874,0,0,1-.079,3.662,11.425,11.425,0,0,1-1.265,3.663c-.83,1.5-2.083,2.547-2.353,2.268" transform="translate(0.589 0.719)"/>
    <path id="Path_101" data-name="Path 101" d="M22.393-112.006c.168-.01.2,1.5-1.028,3.287a12.843,12.843,0,0,1-2.461,2.627c-1.014.846-2.16,1.626-3.242,2.471a13.148,13.148,0,0,0-2.809,2.8,8.758,8.758,0,0,0-1.387,3.257,4.96,4.96,0,0,0,.143,2.632,2.4,2.4,0,0,0,.8,1.12,2.167,2.167,0,0,0,1.223.434,3.507,3.507,0,0,0,2.252-.713c1.574-1.146,2.585-3.762,3.465-6.146,1.764-4.867,1.818-9.8,2.133-9.795.208,0,.4,1.236.321,3.151a27.43,27.43,0,0,1-1.3,7.029,29.58,29.58,0,0,1-1.475,3.725,8.357,8.357,0,0,1-2.357,3.084,4.783,4.783,0,0,1-3.122.97,3.506,3.506,0,0,1-1.927-.7,3.74,3.74,0,0,1-1.239-1.691,6.212,6.212,0,0,1-.211-3.347,9.854,9.854,0,0,1,1.614-3.749,13.737,13.737,0,0,1,3.126-3.037c1.147-.85,2.311-1.59,3.307-2.345a14.345,14.345,0,0,0,2.456-2.285c1.261-1.493,1.5-2.818,1.714-2.778" transform="translate(0.322 0.899)"/>
    <path id="Path_102" data-name="Path 102" d="M23.7-97.091c-.369-.107.148-2.409.254-4.889a30.507,30.507,0,0,0-.222-5.658,29.66,29.66,0,0,0-1.263-5.2c-.71-2.215-1.742-4.161-1.457-4.336.358-.229,1.721,1.631,2.6,3.912a23.19,23.19,0,0,1,1.406,5.431,24.234,24.234,0,0,1,.16,5.938c-.249,2.6-1.11,4.913-1.479,4.8" transform="translate(0.671 0.733)"/>
    <path id="Path_103" data-name="Path 103" d="M69.641-67.027c-.029.165-.573.231-1.361.032a8.124,8.124,0,0,1-2.713-1.292,16.833,16.833,0,0,1-3.516-3.579c-.712-.772-4.735-7.036-4.209-7.373.75-.483,4.6,5.9,5.242,6.581A20.7,20.7,0,0,0,66.3-69.273,13.805,13.805,0,0,0,68.572-67.8c.646.356,1.111.556,1.069.77" transform="translate(1.851 1.947)"/>
    <path id="Path_104" data-name="Path 104" d="M73.523-72.575c.172-.335,1.229.037,2.326.469l2.49,1.032,2.37.929c1.021.423,1.974.856,1.884,1.165-.121.42-1.186.294-2.276-.009a21.41,21.41,0,0,1-2.453-.875,23.46,23.46,0,0,1-2.522-1.122c-1.069-.566-2-1.237-1.819-1.588" transform="translate(2.354 2.157)"/>
    <path id="Path_105" data-name="Path 105" d="M70.871-54.035c.627-.412,1.708,1.642,1.856,1.882s1.306,2.057.747,2.374c-.762.433-1.711-1.457-1.858-1.7s-1.408-2.125-.745-2.559" transform="translate(2.264 2.754)"/>
    <path id="Path_106" data-name="Path 106" d="M52.473-54.4c.339.159.233.735-.015,1.287a7.186,7.186,0,0,1-.707,1.182c-.121.253-1.413,1.946-1.911,1.489-.622-.572.713-1.972.832-2.215.184-.2,1.114-2.056,1.8-1.743" transform="translate(1.591 2.743)"/>
    <path id="Path_107" data-name="Path 107" d="M36.674-101.4c.147-.353,1.928.219,3.872.509a25.918,25.918,0,0,0,4.475.329,25.262,25.262,0,0,0,4.209-.5c1.813-.335,3.459-.927,3.6-.626.184.387-1.415,1.318-3.313,1.813a18.238,18.238,0,0,1-4.452.612,19.2,19.2,0,0,1-4.741-.421c-2.047-.445-3.8-1.36-3.645-1.716" transform="translate(1.174 1.227)"/>
    <path id="Path_108" data-name="Path 108" d="M32.378-89.568c-.314-.219.5-1.665,1.042-3.32a18.992,18.992,0,0,0,.88-3.868,18.461,18.461,0,0,0-.017-3.749c-.135-1.629-.571-3.121-.262-3.242.4-.165,1.179,1.318,1.47,3.068a14.006,14.006,0,0,1,.1,4.054,14.716,14.716,0,0,1-1.024,4.167c-.718,1.754-1.879,3.119-2.193,2.89" transform="translate(1.035 1.163)"/>
    <path id="Path_109" data-name="Path 109" d="M43.977-80.154c.266.268-.436,1.228-.969,2.39-.552,1.149-1.059,2.452-1.173,2.739s-.542,1.54-1.1,2.7c-.544,1.168-1.321,2.144-1.588,1.966-.368-.24.07-1.282.465-2.441.411-1.148.893-2.393,1.011-2.685a17.3,17.3,0,0,1,1.308-2.861c.714-1.224,1.776-2.093,2.051-1.808" transform="translate(1.249 1.917)"/>
    <path id="Path_110" data-name="Path 110" d="M63.921-86.464c.064-.747,2.136-.418,2.392-.4s2.2.15,2.146.788c-.075.873-2,.529-2.258.508s-2.348-.11-2.28-.9" transform="translate(2.047 1.701)"/>
    <path id="Path_111" data-name="Path 111" d="M33.355-108.489c-.518.542-2.21-1.09-2.432-1.28s-1.916-1.576-1.531-2.09c.527-.7,2.147.907,2.372,1.1s2.14,1.7,1.591,2.271" transform="translate(0.94 0.898)"/>
    <path id="Path_112" data-name="Path 112" d="M35.923-110.7c-.075-.171.265-.47.84-.834a10.737,10.737,0,0,1,2.348-1.1,11.948,11.948,0,0,1,4.447-.444,19.249,19.249,0,0,1,4.062.759c1.7.506,3.209,1.161,3.117,1.459-.131.426-1.741.082-3.416-.277a30.194,30.194,0,0,0-3.852-.643,13.734,13.734,0,0,0-4.015.325c-1.693.445-3.365,1.156-3.532.756" transform="translate(1.15 0.863)"/>
    <path id="Path_113" data-name="Path 113" d="M14.108-95.532c-.376.045-.644-1.78-.148-3.633a13.344,13.344,0,0,1,1.759-3.921,17.527,17.527,0,0,1,2.528-3.105c1.237-1.206,2.554-2.124,2.761-1.884.289.334-.794,1.482-1.874,2.722a26.8,26.8,0,0,0-2.317,2.965,16.419,16.419,0,0,0-1.673,3.554c-.571,1.625-.643,3.269-1.036,3.3" transform="translate(0.438 1.023)"/>
    <path id="Path_114" data-name="Path 114" d="M44.722-62.328c.539.522-2.382,3.322-2.728,3.678s-2.936,3.091-3.4,2.644c-.63-.61,2.119-3.192,2.463-3.548s3.093-3.325,3.662-2.774" transform="translate(1.233 2.488)"/>
    <path id="Path_115" data-name="Path 115" d="M50.021-10.321a6.99,6.99,0,0,1-1.988-.947c-.618-.332-1.356-.763-2.172-1.31S44.09-13.7,43.122-14.439A73.808,73.808,0,0,1,29.877-26.85,88.153,88.153,0,0,1,19.165-42.941a94.973,94.973,0,0,1-4.7-10.567A103.626,103.626,0,0,1,11.116-64,123.551,123.551,0,0,1,7.817-81.8a142.317,142.317,0,0,1-.829-16.9c.039-2.263.1-4.132.206-5.431a7.169,7.169,0,0,1,.263-2.031c.234.008.248,2.955.374,7.457s.445,10.56,1.2,16.765a131.114,131.114,0,0,0,3.354,17.614,104.376,104.376,0,0,0,3.3,10.365,94.892,94.892,0,0,0,4.645,10.419A90.726,90.726,0,0,0,30.82-27.636,81.985,81.985,0,0,0,43.635-15.122c3.8,2.959,6.508,4.6,6.386,4.8" transform="translate(0.223 1.086)"/>
    <path id="Path_116" data-name="Path 116" d="M32.573-26.654c.319-.2,1.91,1.947,3.845,4.043,1.912,2.112,4.026,4.3,4.48,4.794s2.476,2.523,4.186,4.649c1.742,2.1,3.01,4.353,2.739,4.517-.376.234-1.866-1.764-3.668-3.728-1.771-1.988-3.741-4.053-4.2-4.54s-2.614-2.641-4.469-4.888c-1.879-2.232-3.254-4.64-2.918-4.848" transform="translate(1.042 3.632)"/>
    <path id="Path_117" data-name="Path 117" d="M31.984-27.424c.332-.166,1.319,1.5,2.108,3.386A37.3,37.3,0,0,1,35.6-19.61a35.293,35.293,0,0,1,.968,4.307c.3,1.89.346,3.687.032,3.721-.441.047-.8-1.676-1.23-3.491-.4-1.819-.889-3.737-1.02-4.18s-.743-2.457-1.407-4.34c-.646-1.887-1.322-3.654-.964-3.832" transform="translate(1.021 3.607)"/>
    <path id="Path_118" data-name="Path 118" d="M35.158-17.525c.136-.085.783.965.667,2.7-.064,1.721-.9,3.831-1.269,5.917a10.755,10.755,0,0,0,.727,5.919A4.864,4.864,0,0,0,36.434-1.2a1.542,1.542,0,0,0,.875.452.97.97,0,0,0,.753-.246,2.694,2.694,0,0,0,.665-1.666,21.517,21.517,0,0,0,.035-2.779A28.9,28.9,0,0,0,38.5-8.491a17.329,17.329,0,0,0-1.54-5.212c-.651-1.306-1.266-2.065-1.135-2.186.141-.141.991.46,1.868,1.768a14.5,14.5,0,0,1,2.011,5.436,25.77,25.77,0,0,1,.343,3.191,20.681,20.681,0,0,1-.022,3,3.9,3.9,0,0,1-1.1,2.48,2.28,2.28,0,0,1-1.76.565,2.879,2.879,0,0,1-1.611-.772,6.1,6.1,0,0,1-1.488-2.24,11.516,11.516,0,0,1-.729-6.655c.492-2.308,1.4-4.256,1.631-5.794.292-1.526-.032-2.537.182-2.613" transform="translate(1.062 3.925)"/>
    <path id="Path_119" data-name="Path 119" d="M31.547-26.711c.229-.308,2.073.873,4.187,1.8A31.472,31.472,0,0,0,40.7-23.163a30.765,30.765,0,0,0,4.91.774c2.152.2,4.194.07,4.239.4.063.423-2.026.891-4.3.82a22.708,22.708,0,0,1-5.162-.731A23.85,23.85,0,0,1,35.2-23.8c-2.165-1.1-3.894-2.6-3.658-2.906" transform="translate(1.01 3.629)"/>
    <path id="Path_120" data-name="Path 120" d="M41.591-22.254c.085-.178,1.348.538,3.359.019a11.587,11.587,0,0,0,3.236-1.435c1.145-.688,2.326-1.561,3.617-2.383a13.97,13.97,0,0,1,4.263-1.911,6.664,6.664,0,0,1,4.459.361,5.66,5.66,0,0,1,2.567,2.554,4.194,4.194,0,0,1,.4,2.172,3.916,3.916,0,0,1-.769,2,6.536,6.536,0,0,1-2.7,2.028,15.279,15.279,0,0,1-8.252.872,28.5,28.5,0,0,1-7.3-2.271c-1.849-.839-3-1.481-2.94-1.624.087-.206,1.354.19,3.253.84a36.558,36.558,0,0,0,7.154,1.847,14.631,14.631,0,0,0,7.56-.862,5.315,5.315,0,0,0,2.171-1.6,2.6,2.6,0,0,0,.529-1.349,2.859,2.859,0,0,0-.289-1.49,4.391,4.391,0,0,0-1.967-1.94,5.443,5.443,0,0,0-3.59-.277,13.291,13.291,0,0,0-3.9,1.693c-1.257.76-2.482,1.611-3.722,2.282a11.033,11.033,0,0,1-3.616,1.33,5.165,5.165,0,0,1-2.7-.238c-.612-.255-.864-.546-.817-.619" transform="translate(1.33 3.584)"/>
    <path id="Path_121" data-name="Path 121" d="M26.064-35.115c.346-.127,1.166,1.763,1.541,3.912a22.669,22.669,0,0,1,.3,4.955,21.575,21.575,0,0,1-.671,4.632c-.5,1.976-1.375,3.677-1.661,3.552-.413-.172.131-1.92.471-3.822A31.305,31.305,0,0,0,26.6-26.3a31.783,31.783,0,0,0-.215-4.714c-.224-2.057-.706-3.967-.326-4.1" transform="translate(0.814 3.361)"/>
    <path id="Path_122" data-name="Path 122" d="M27.4-26.206c.079-.006.208.291.185.85a4.46,4.46,0,0,1-.794,2.135,15.967,15.967,0,0,1-2.052,2.365,18.217,18.217,0,0,0-2.231,2.62,13.269,13.269,0,0,0-2.466,6.107A3.677,3.677,0,0,0,21.3-8.922a2.458,2.458,0,0,0,1.049.506,2.474,2.474,0,0,0,1.889-.456c1.4-.93,2.472-3.088,2.913-5.208a20.112,20.112,0,0,0,.182-5.967c-.153-1.62-.333-2.683-.166-2.724.2-.051.647.955,1,2.6a16.78,16.78,0,0,1,.182,6.322,11.719,11.719,0,0,1-1.158,3.42,6.988,6.988,0,0,1-2.216,2.641,3.769,3.769,0,0,1-2.881.652,3.745,3.745,0,0,1-1.608-.774A4.608,4.608,0,0,1,19.343-9.28a5.346,5.346,0,0,1-.612-2.915,10.268,10.268,0,0,1,.9-3.456,16.6,16.6,0,0,1,1.881-3.3,17.04,17.04,0,0,1,2.477-2.693A21,21,0,0,0,26.1-23.722c1.119-1.287,1.086-2.477,1.3-2.484" transform="translate(0.6 3.647)"/>
    <path id="Path_123" data-name="Path 123" d="M26.417-33.59c.186-.334,1.843.41,3.685.912a25.879,25.879,0,0,0,4.276.84,25.251,25.251,0,0,0,4.117.032c1.789-.1,3.449-.451,3.545-.136.131.409-1.525,1.1-3.415,1.35a18.04,18.04,0,0,1-4.368.05,18.977,18.977,0,0,1-4.523-.963c-1.923-.667-3.511-1.747-3.317-2.085" transform="translate(0.846 3.408)"/>
    <path id="Path_124" data-name="Path 124" d="M35.943-30.589c.012-.1.313-.114.754-.276a3.975,3.975,0,0,0,1.576-1.2c.582-.645,1.115-1.538,1.837-2.515a17.886,17.886,0,0,1,2.578-2.809c1.994-1.741,4.657-3.014,7.114-2.773a4.245,4.245,0,0,1,2.83,1.455,3.3,3.3,0,0,1,.783,1.8,4.126,4.126,0,0,1-.264,1.8,7.977,7.977,0,0,1-1.42,2.449,7.984,7.984,0,0,1-2.822,2.13,10.155,10.155,0,0,1-3.669.849,37.439,37.439,0,0,1-6.469-.474c-1.688-.227-2.789-.283-2.8-.452-.013-.211,1.125-.426,2.86-.39,1.73,0,4.04.286,6.316.1a9.355,9.355,0,0,0,3.217-.8,6.838,6.838,0,0,0,2.361-1.805,6.788,6.788,0,0,0,1.191-2.04,2.8,2.8,0,0,0,.2-1.235,1.97,1.97,0,0,0-.488-1.089,2.948,2.948,0,0,0-1.976-.992,6.58,6.58,0,0,0-3.1.541,11.628,11.628,0,0,0-3.076,1.862A19.121,19.121,0,0,0,40.968-33.9a23.9,23.9,0,0,1-2.084,2.438,3.678,3.678,0,0,1-2.079,1.088c-.584.043-.879-.129-.863-.212" transform="translate(1.151 3.199)"/>
    <path id="Path_125" data-name="Path 125" d="M20.175-43.985c.335-.16.875.648,1.173,1.629a9.035,9.035,0,0,1,.365,2.292,8.449,8.449,0,0,1-.148,2.183c-.186.937-.6,1.737-.9,1.638-.422-.134-.344-.952-.308-1.8.059-.847.073-1.744.057-1.954a20.507,20.507,0,0,0-.257-2.059c-.14-.9-.345-1.761.018-1.93" transform="translate(0.64 3.077)"/>
    <path id="Path_126" data-name="Path 126" d="M20.406-42.364c.165-.045.506,1.268-.091,3.113-.535,1.846-1.952,3.918-2.668,6.216a16.308,16.308,0,0,0-.7,6.838,3.721,3.721,0,0,0,.883,2.1,1.648,1.648,0,0,0,1.01.49,2.215,2.215,0,0,0,1.15-.22,3.19,3.19,0,0,0,1.487-1.511,9.94,9.94,0,0,0,.844-2.919,21.091,21.091,0,0,0,.292-3.415,23.678,23.678,0,0,0-.8-6.131c-.413-1.616-.827-2.642-.667-2.717.181-.09.851.838,1.472,2.464a19.189,19.189,0,0,1,1.212,6.373,20.38,20.38,0,0,1-.238,3.63,10.853,10.853,0,0,1-.954,3.319,4.479,4.479,0,0,1-2.1,2.092,3.536,3.536,0,0,1-1.83.329,2.971,2.971,0,0,1-1.8-.852A4.95,4.95,0,0,1,15.643-26a16.606,16.606,0,0,1,.839-7.426c.873-2.511,2.381-4.49,3.031-6.119.72-1.611.677-2.8.893-2.82" transform="translate(0.497 3.129)"/>
    <path id="Path_127" data-name="Path 127" d="M18.081-47.365c.332-.185.94.574,1.72,1.215a10.473,10.473,0,0,0,1.9,1.3,10.23,10.23,0,0,0,2.051.731c.917.251,1.832.3,1.869.627.055.427-.969.719-2.077.575a7.088,7.088,0,0,1-2.416-.767,7.479,7.479,0,0,1-2.171-1.569c-.821-.864-1.221-1.923-.876-2.107" transform="translate(0.575 2.968)"/>
    <path id="Path_128" data-name="Path 128" d="M20.519-44.5c.009-.2,1.161-.251,2.9-.546,1.745-.255,4.085-.8,6.619-1.053a16.4,16.4,0,0,1,3.844.044,7.389,7.389,0,0,1,3.465,1.284,3.544,3.544,0,0,1,1.535,2.779,3.514,3.514,0,0,1-.514,1.823,4.287,4.287,0,0,1-1.192,1.3,6.244,6.244,0,0,1-2.621,1.018,13.937,13.937,0,0,1-6.877-.723A13.893,13.893,0,0,1,22.325-42.1c-1.161-1.283-1.625-2.319-1.5-2.391.2-.13.877.723,2.1,1.791a15.587,15.587,0,0,0,5.169,2.975,13.413,13.413,0,0,0,6.248.582,5.007,5.007,0,0,0,2.084-.787,2.964,2.964,0,0,0,.833-.9,2.223,2.223,0,0,0,.326-1.147,2.227,2.227,0,0,0-1.013-1.743c-1.445-1.108-4.039-1.321-6.422-1.157-2.419.171-4.811.609-6.629.678-1.816.107-3.006-.12-2.993-.3" transform="translate(0.657 3.007)"/>
    <path id="Path_129" data-name="Path 129" d="M12.521-61.185c.331-.152,1.376,1.921,1.767,4.34a19.68,19.68,0,0,1,.107,5.55A18.749,18.749,0,0,1,13.1-46.223c-.844,2.126-2.193,3.805-2.442,3.623-.373-.255.637-2.02,1.3-4.056A23.22,23.22,0,0,0,13.1-51.444a23.952,23.952,0,0,0-.03-5.221c-.236-2.283-.926-4.361-.552-4.52" transform="translate(0.339 2.526)"/>
    <path id="Path_130" data-name="Path 130" d="M14.159-48.984c.074.018.1.387-.137.978a5.339,5.339,0,0,1-1.589,2.059,16.468,16.468,0,0,1-3.071,1.914A24.119,24.119,0,0,0,5.9-42,13.371,13.371,0,0,0,3-39.208a8.953,8.953,0,0,0-1.567,3.224,4.448,4.448,0,0,0,.161,2.615,1.951,1.951,0,0,0,.869,1,1.893,1.893,0,0,0,1.255.188,4.866,4.866,0,0,0,2.225-1.194A22.771,22.771,0,0,0,10.449-39.2a25.808,25.808,0,0,0,2.471-6.508c.422-1.829.551-3.064.726-3.057.2.006.348,1.276.1,3.213a21.514,21.514,0,0,1-2.223,6.924A22.381,22.381,0,0,1,6.8-32.384a6.08,6.08,0,0,1-2.863,1.489,3.224,3.224,0,0,1-2.085-.33A3.283,3.283,0,0,1,.4-32.845a5.681,5.681,0,0,1-.247-3.421,10.043,10.043,0,0,1,1.814-3.72A14.059,14.059,0,0,1,5.186-43,22.236,22.236,0,0,1,8.879-45.01a19.9,19.9,0,0,0,3.031-1.612c1.663-1.091,2.034-2.434,2.249-2.362" transform="translate(0 2.917)"/>
    <path id="Path_131" data-name="Path 131" d="M11.9-64.57c.2-.02.335.5.746,1.148a7.933,7.933,0,0,0,1.967,2.108,31.45,31.45,0,0,0,4.437,2.693,26.777,26.777,0,0,0,4.578,1.741c2.039.589,4.046.664,4.061.988.034.434-2.118.694-4.343.2a20.682,20.682,0,0,1-4.868-1.76,23.631,23.631,0,0,1-4.645-2.912,6.418,6.418,0,0,1-1.963-2.7c-.3-.881-.149-1.5.03-1.5" transform="translate(0.375 2.418)"/>
    <path id="Path_132" data-name="Path 132" d="M20.367-57.273c.042-.2,1.084-.077,2.654-.305,1.58-.209,3.653-.838,5.934-1.322a13.824,13.824,0,0,1,3.539-.312,7.549,7.549,0,0,1,3.281.909,3.289,3.289,0,0,1,1.65,2.45,3.856,3.856,0,0,1-.2,1.7,4.611,4.611,0,0,1-.765,1.4,4.663,4.663,0,0,1-.891.865,4.569,4.569,0,0,1-1.315.647,6.806,6.806,0,0,1-3.2.157,13.57,13.57,0,0,1-3.167-1.005,20.555,20.555,0,0,1-4.963-3.07c-1.19-1.013-1.817-1.822-1.712-1.929.3-.318,3.255,2.372,7.148,3.875,1.9.795,4.006,1.238,5.495.723a3.292,3.292,0,0,0,2.137-2.081,2.076,2.076,0,0,0-.9-2.6,6.477,6.477,0,0,0-2.687-.743,13.477,13.477,0,0,0-3.227.226,43.756,43.756,0,0,1-6.088.966c-1.707.042-2.774-.376-2.728-.546" transform="translate(0.652 2.589)"/>
    <path id="Path_133" data-name="Path 133" d="M8.414-79.685c.186-.057.457.373.817,1.017a22.227,22.227,0,0,0,1.485,2.294A15.8,15.8,0,0,0,14-73.142a15.26,15.26,0,0,0,3.886,1.969c1.79.659,3.6.754,3.611,1.09,0,.216-.469.362-1.215.422a9.227,9.227,0,0,1-2.749-.345,13.273,13.273,0,0,1-4.283-2.073,13.935,13.935,0,0,1-3.536-3.583,9.929,9.929,0,0,1-1.269-2.671c-.2-.771-.216-1.3-.032-1.352" transform="translate(0.265 1.934)"/>
    <path id="Path_134" data-name="Path 134" d="M13.794-72.763c.083-.189,1.161.233,2.882.308a22.825,22.825,0,0,0,6.442-.873,16.141,16.141,0,0,1,3.821-.491,6.413,6.413,0,0,1,3.572,1.061,5.356,5.356,0,0,1,1.965,2.307,3.971,3.971,0,0,1,.3,1.84,3.877,3.877,0,0,1-.6,1.7,4.859,4.859,0,0,1-2.284,1.774,7.152,7.152,0,0,1-3.437.456,11.694,11.694,0,0,1-3.526-.929,20.237,20.237,0,0,1-5.292-3.55c-1.254-1.13-1.979-1.951-1.879-2.067.148-.17,1.058.45,2.41,1.411a25.893,25.893,0,0,0,5.229,3.081c2.054.828,4.391,1.095,6,.384a3.582,3.582,0,0,0,1.683-1.277,2.55,2.55,0,0,0,.4-1.107,2.636,2.636,0,0,0-.205-1.213,4.092,4.092,0,0,0-1.492-1.723,5.177,5.177,0,0,0-2.872-.858,16.116,16.116,0,0,0-3.535.4,18.994,18.994,0,0,1-6.777.521c-1.852-.287-2.887-1-2.8-1.158" transform="translate(0.442 2.122)"/>
    <path id="Path_135" data-name="Path 135" d="M20.838-32.36c.373.01.486,1.118.374,2.289a15.739,15.739,0,0,1-.507,2.633,14.555,14.555,0,0,1-.825,2.39c-.448,1-1.041,1.851-1.325,1.709-.4-.2-.115-1.149.185-2.141s.645-2.035.706-2.285.326-1.388.549-2.477.445-2.13.843-2.118" transform="translate(0.588 3.45)"/>
    <path id="Path_136" data-name="Path 136" d="M29.331-42.718c.05-.373,1.064-.389,2.127-.362l2.428.11,2.3.059c1,.046,1.94.126,1.964.448.033.434-.909.682-1.932.772a17.989,17.989,0,0,1-2.36.022,19.467,19.467,0,0,1-2.5-.187c-1.084-.161-2.08-.471-2.027-.862" transform="translate(0.939 3.106)"/>
    <path id="Path_137" data-name="Path 137" d="M49.465-36c.229.292-.927,1.376-2.348,2.27a22.423,22.423,0,0,1-3.41,1.739,21.034,21.034,0,0,1-3.425,1.136c-1.524.368-3,.445-3.043.133-.069-.439,1.3-.829,2.713-1.307,1.426-.454,2.91-1.011,3.25-1.161s1.879-.839,3.291-1.6c1.42-.74,2.728-1.528,2.972-1.213" transform="translate(1.193 3.331)"/>
    <path id="Path_138" data-name="Path 138" d="M35.63-16.639c.741-.114,1.166,5,1.236,5.622s.643,5.363,0,5.408c-.874.064-1.226-4.643-1.3-5.263s-.728-5.646.056-5.767" transform="translate(1.129 3.953)"/>
    <path id="Path_139" data-name="Path 139" d="M44.764-21.345c-.045-.38,1.51-.669,3.131-.845s3.285-.407,3.639-.5a15.841,15.841,0,0,0,3.2-1.048c1.334-.583,2.363-1.5,2.6-1.289.347.278-.588,1.574-2.04,2.37A11.918,11.918,0,0,1,51.8-21.42,21.5,21.5,0,0,1,48-20.967c-1.654.047-3.186.007-3.231-.379" transform="translate(1.434 3.684)"/>
    <path id="Path_140" data-name="Path 140" d="M23.23-11.39c.671.335-.194,1.734-.284,1.913S22.211-7.915,21.638-8.2c-.784-.391.055-1.676.146-1.856s.738-1.686,1.447-1.332" transform="translate(0.682 4.12)"/>
    <path id="Path_141" data-name="Path 141" d="M34.986-55.269c-.046.747-6.038.24-6.784.189a31.885,31.885,0,0,1-3.468-.387c-1.5-.261-2.862-.761-2.777-1.071.115-.422,1.48-.257,2.94-.137l3.391.3c.729.051,6.746.317,6.7,1.108" transform="translate(0.703 2.667)"/>
    <path id="Path_142" data-name="Path 142" d="M28.059-69.212c.117-.741,1.717-.337,1.916-.305s1.717.23,1.617.864c-.136.865-1.621.452-1.82.421s-1.837-.2-1.713-.979" transform="translate(0.898 2.255)"/>
    <path id="Path_143" data-name="Path 143" d="M13.4-58.171c.336-.173.987.746,1.744,1.647a24.612,24.612,0,0,0,1.811,1.99,24.963,24.963,0,0,0,1.955,1.626c.872.68,1.758,1.253,1.621,1.549-.179.394-1.271.086-2.3-.535a11.835,11.835,0,0,1-2.168-1.691,12.583,12.583,0,0,1-1.9-2.2c-.714-1.063-1.111-2.208-.762-2.385" transform="translate(0.425 2.622)"/>
    <path id="Path_144" data-name="Path 144" d="M78.9-121.4c.066-.141,1.254.355,2.312,1.906a15.4,15.4,0,0,1,2.1,6.357c.757,4.789,1.555,9.829,1.73,10.933a16.658,16.658,0,0,0,.928,3.681,5.1,5.1,0,0,0,1.7,2.154,6.319,6.319,0,0,0,2.856,1.081,10.188,10.188,0,0,0,5.594-.947,2.852,2.852,0,0,0,1.257-1.148c.178-.356.149-.621.239-.638s.313.232.229.786a2.851,2.851,0,0,1-1.283,1.718,9.886,9.886,0,0,1-6.18,1.44,7.345,7.345,0,0,1-3.457-1.241A6.3,6.3,0,0,1,84.766-98a12.627,12.627,0,0,1-.747-2.507c-.144-.681-.216-1.184-.26-1.462-.162-1.107-1.042-6.2-1.667-11a17.591,17.591,0,0,0-1.608-6.085c-.78-1.483-1.716-2.168-1.584-2.353" transform="translate(2.527 0.597)"/>
    <path id="Path_145" data-name="Path 145" d="M87.292-107.506c.179-.072.593.654,1.2,1.747a21.154,21.154,0,0,0,2.547,3.789,9.54,9.54,0,0,0,3.792,2.685,5.978,5.978,0,0,0,2.67.367,5.612,5.612,0,0,0,2.413-.8,4.526,4.526,0,0,0,2.136-3.4,10.974,10.974,0,0,0-.448-4.133c-.292-1.12-.524-1.862-.369-1.929.192-.087.674.546,1.168,1.655a9.421,9.421,0,0,1,.862,4.541,5.84,5.84,0,0,1-.846,2.59,5.61,5.61,0,0,1-1.807,1.781,6.808,6.808,0,0,1-2.983.985,7.241,7.241,0,0,1-3.24-.425,10.149,10.149,0,0,1-4.28-3.122,15.048,15.048,0,0,1-2.388-4.228c-.446-1.209-.6-2.036-.426-2.108" transform="translate(2.794 0.989)"/>
    <path id="Path_146" data-name="Path 146" d="M81.843-120.485c.229-.3,2.112.889,4.263,1.916l4.958,2.379a42.426,42.426,0,0,1,4.647,2.483c1.969,1.209,3.5,2.779,3.287,3.007-.3.327-1.956-.916-3.911-1.96-1.928-1.084-4.081-2.109-4.58-2.356s-2.835-1.268-4.971-2.464c-2.152-1.177-3.937-2.693-3.693-3.005" transform="translate(2.621 0.626)"/>
    <path id="Path_147" data-name="Path 147" d="M99.274-118.851c.041-.18.712-.173,1.726-.011a13.026,13.026,0,0,1,3.719,1.171,8.517,8.517,0,0,1,1.86,1.274,6.689,6.689,0,0,1,1.308,1.664,6.3,6.3,0,0,1,.79,2.539,4.6,4.6,0,0,1-.5,2.568,8.278,8.278,0,0,1-.479.77,1,1,0,0,0-.188.574,5.024,5.024,0,0,1-.083,1.095,1.9,1.9,0,0,1-.834,1.125,3,3,0,0,1-2.261.3,7.591,7.591,0,0,1-1.579-.674c-.807-.448-1.339-.594-1.339-.756-.005-.224.718-.323,1.657-.024a12.653,12.653,0,0,0,1.473.4,2.041,2.041,0,0,0,1.375-.261c.331-.256.318-.427.3-1.248a2.312,2.312,0,0,1,.358-1.2c.193-.313.344-.506.436-.706a3.36,3.36,0,0,0,.363-1.851,5.088,5.088,0,0,0-.64-2,6.54,6.54,0,0,0-2.6-2.5,22.235,22.235,0,0,0-3.351-1.427c-.943-.344-1.561-.619-1.516-.815" transform="translate(3.18 0.675)"/>
    <path id="Path_148" data-name="Path 148" d="M78.574-121.057c.03-.194.991-.16,2.444-.205a54.166,54.166,0,0,0,5.425-.471c2.019-.264,4.114-.579,5.841-.752s3.086-.2,3.571-.2a24.993,24.993,0,0,1,3.428.2,15.683,15.683,0,0,1,5.45,1.7,11.093,11.093,0,0,1,2.361,1.733,4.206,4.206,0,0,1,1.249,2.306A2.673,2.673,0,0,1,108-114.94c-.249.381-.5.488-.545.438-.164-.14.409-.9.059-2.088a3.7,3.7,0,0,0-1.167-1.69,11.494,11.494,0,0,0-2.185-1.432,19.146,19.146,0,0,0-8.3-1.673c-.464.005-1.76.034-3.446.207l-5.835.666a29.276,29.276,0,0,1-5.593.1c-1.5-.152-2.449-.462-2.418-.648" transform="translate(2.517 0.557)"/>
    <path id="Path_149" data-name="Path 149" d="M100.99-96.736c.18.028.272.4.165.961a3.433,3.433,0,0,1-1.1,1.86,5.75,5.75,0,0,1-3.3,1.331,5.779,5.779,0,0,1-1.28-.025,5.552,5.552,0,0,1-1.988-.666c-1.3-.716-1.991-1.951-1.713-2.119.356-.248,1.174.58,2.264,1.03a5.558,5.558,0,0,0,2.606.484,5.514,5.514,0,0,0,2.622-.977c.987-.671,1.329-1.946,1.72-1.879" transform="translate(2.938 1.388)"/>
    <path id="Path_150" data-name="Path 150" d="M107.3-105.062c.074-.161.552-.144,1.281.16a2.968,2.968,0,0,1,1.156.876,2.343,2.343,0,0,1,.465,1.821,1.853,1.853,0,0,1-.524.981,4.921,4.921,0,0,1-.672.51,1.315,1.315,0,0,0-.359.331,2.659,2.659,0,0,0-.262.451c-.16.336-.31.707-.486,1.008a3.014,3.014,0,0,1-.482.638,4.149,4.149,0,0,1-1.654.89,2.871,2.871,0,0,0-.92.469,9.029,9.029,0,0,0-.839.974,3.061,3.061,0,0,1-1.289.94,2.813,2.813,0,0,1-1.331.169c-.782-.1-1.163-.479-1.088-.6.1-.2.53-.133,1.092-.239a2.457,2.457,0,0,0,1.663-1.028,7.745,7.745,0,0,1,.927-1.168,3.824,3.824,0,0,1,1.325-.741,3.069,3.069,0,0,0,1.2-.583,4.268,4.268,0,0,0,.7-1.293,3.831,3.831,0,0,1,.4-.672,2.614,2.614,0,0,1,.674-.612,5,5,0,0,0,.522-.355.623.623,0,0,0,.2-.318,1.33,1.33,0,0,0-.158-.948,2.87,2.87,0,0,0-.694-.761c-.523-.414-.933-.708-.847-.9" transform="translate(3.212 1.118)"/>
    <path id="Path_151" data-name="Path 151" d="M107.06-115.755c.008-.173.538-.3,1.325-.105a5.014,5.014,0,0,1,2.508,1.6,5.453,5.453,0,0,1,1.319,2.942,6.813,6.813,0,0,1,0,1.163c-.014.3-.026.526-.032.644a9.5,9.5,0,0,0,.072,1.575,6.856,6.856,0,0,1-.172,2.937,2.985,2.985,0,0,1-.931,1.368,2.332,2.332,0,0,1-1.335.5c-.881.026-1.274-.513-1.157-.607.14-.176.54-.04,1.042-.228a1.882,1.882,0,0,0,1.217-1.4,6.847,6.847,0,0,0,.033-2.438,9.988,9.988,0,0,1-.069-1.715c.005-.116.012-.333.025-.627a7.322,7.322,0,0,0,0-1.023,4.711,4.711,0,0,0-.96-2.308,5.857,5.857,0,0,0-1.86-1.583c-.59-.328-1.044-.486-1.027-.695" transform="translate(3.429 0.772)"/>
    <path id="Path_152" data-name="Path 152" d="M78.422-121.3c.134-.367,1.4.058,2.4.925a23.008,23.008,0,0,1,2.071,2.049,11.379,11.379,0,0,1,1.695,2.247c.633,1.106.7,2.354.378,2.387-.434.057-.777-.883-1.419-1.752a21.934,21.934,0,0,0-1.606-1.995L80-119.462c-.815-.872-1.718-1.481-1.581-1.842" transform="translate(2.511 0.597)"/>
    <path id="Path_153" data-name="Path 153" d="M81.606-120.41c.152-.345,1.833.192,3.7.4a40.166,40.166,0,0,0,4.318.293c.865.042,7.661-.212,7.677.439.022.867-6.763.9-7.688.863a24.339,24.339,0,0,1-4.5-.382c-1.973-.36-3.672-1.256-3.5-1.615" transform="translate(2.613 0.626)"/>
    <path id="Path_154" data-name="Path 154" d="M79.415-121.053c.05-.37.659-.438,1.288-.34a6.689,6.689,0,0,1,1.389.4,6.115,6.115,0,0,1,1.23.588c.5.319.892.736.723,1.007-.23.375-.751.26-1.259.089s-1.016-.419-1.141-.463-.7-.224-1.234-.43-1.05-.461-1-.855" transform="translate(2.544 0.597)"/>
    <path id="Path_155" data-name="Path 155" d="M99.579-99.647c.281-.247.6-.114.818.14a1.988,1.988,0,0,1,.353.658,1.8,1.8,0,0,1,.153.688c0,.315-.13.606-.449.626-.848.043-.834-.72-.911-.829-.013-.127-.523-.77.036-1.285" transform="translate(3.181 1.29)"/>
    <path id="Path_156" data-name="Path 156" d="M103.033-107.277c.448-.581,1.469.3,1.626.376.136.1,1.263.657,1,1.226-.381.806-1.532-.006-1.672-.114-.164-.074-1.447-.846-.953-1.488" transform="translate(3.297 1.044)"/>
    <path id="Path_157" data-name="Path 157" d="M79.247-121.071c.125-.116.816.412,1.489,1.535a12.662,12.662,0,0,1,1.469,4.547,44.12,44.12,0,0,1,.348,4.966c.041,1.435.073,2.541.086,2.937s.045,1.445.089,2.8a17.887,17.887,0,0,0,.5,4.4,5.923,5.923,0,0,0,2.16,3.216c.857.622,1.6.71,1.584.888.015.2-.857.4-2.021-.165a6.058,6.058,0,0,1-2.887-3.57,16.5,16.5,0,0,1-.642-4.728c-.039-1.351-.068-2.4-.079-2.8s-.051-1.5-.1-2.936-.071-3.186-.252-4.848a16.439,16.439,0,0,0-1.013-4.324c-.445-1.105-.89-1.78-.727-1.919" transform="translate(2.537 0.608)"/>
    <path id="Path_158" data-name="Path 158" d="M84.777-119.3c-.1.19-1.79-.633-4.52-1.464a57.445,57.445,0,0,0-10.436-2.118c-3.944-.472-8.049-.679-11.4-.914s-5.933-.491-6.859-.609a63.865,63.865,0,0,1-6.509-1.065,36.365,36.365,0,0,1-10.212-3.809,24.635,24.635,0,0,1-7.722-6.66c-1.641-2.218-2.173-3.966-2.061-4.005.233-.114,1,1.479,2.726,3.485a26.757,26.757,0,0,0,7.651,6.114,37.157,37.157,0,0,0,9.9,3.6c3.041.673,5.467.936,6.376,1.053s3.462.363,6.8.589,7.463.462,11.461,1.007a46.871,46.871,0,0,1,10.561,2.529c2.734,1.039,4.326,2.121,4.242,2.271" transform="translate(0.802 0.004)"/>
    <path id="Path_159" data-name="Path 159" d="M79.278-113.733c-.342-.156.076-1.463-.058-2.869a7.008,7.008,0,0,0-.9-3.02,7.236,7.236,0,0,0-2.07-2.154c-1.081-.773-2.33-1.088-2.292-1.406.029-.439,1.549-.43,2.93.365a6.983,6.983,0,0,1,2.546,2.523,6.807,6.807,0,0,1,.621,1.3,6.845,6.845,0,0,1,.39,2.352c.008,1.7-.821,3.1-1.17,2.909" transform="translate(2.369 0.531)"/>
    <path id="Path_160" data-name="Path 160" d="M69.413-105.579c-.2.059-.5-.671-1.231-1.584a18.335,18.335,0,0,0-3.294-2.985,26.33,26.33,0,0,1-3.81-3.273,16.063,16.063,0,0,1-1.765-2.5c-.211-.348-.736-1.289-1.35-2.489a24.4,24.4,0,0,0-2.306-3.838,9.7,9.7,0,0,0-3.044-2.657c-.959-.511-1.694-.622-1.68-.8,0-.2.826-.368,2.012.025a8.572,8.572,0,0,1,3.655,2.661,21.177,21.177,0,0,1,2.523,4c.621,1.205,1.108,2.105,1.309,2.436a15.28,15.28,0,0,0,1.628,2.288,31.3,31.3,0,0,0,3.589,3.182,13.485,13.485,0,0,1,3.237,3.468c.647,1.147.7,2.024.526,2.065" transform="translate(1.631 0.453)"/>
    <path id="Path_161" data-name="Path 161" d="M69.034-105.314c-.372-.062.1-3.237-.719-6.474a18.189,18.189,0,0,0-1.643-4.421,16.015,16.015,0,0,0-1.527-2.367,16.442,16.442,0,0,0-1.82-1.975,18.533,18.533,0,0,0-3.595-2.6,22.154,22.154,0,0,0-3.845-1.638c-1.073-.343-1.8-.529-1.78-.7.023-.207.8-.29,1.979-.121a14.6,14.6,0,0,1,4.213,1.378,17.154,17.154,0,0,1,3.914,2.711,17.057,17.057,0,0,1,1.959,2.139,16.636,16.636,0,0,1,1.663,2.55,17.165,17.165,0,0,1,1.684,4.781,14.972,14.972,0,0,1,.183,4.731c-.171,1.26-.481,2.036-.665,2" transform="translate(1.733 0.46)"/>
    <path id="Path_162" data-name="Path 162" d="M65.426-114.616c-.1.158-.6.017-1.323-.344a7.925,7.925,0,0,1-2.446-1.883,5.475,5.475,0,0,1-.928-1.557c-.211-.543-.335-1.04-.471-1.445a5.427,5.427,0,0,0-.721-1.492,6.291,6.291,0,0,0-1.081-1.164,9.342,9.342,0,0,0-2.325-1.373c-1.773-.767-3.648-.953-3.631-1.283,0-.425,2.016-.576,4.062.142a8.924,8.924,0,0,1,2.728,1.5,7.343,7.343,0,0,1,1.313,1.43,6.6,6.6,0,0,1,.9,1.829,7.6,7.6,0,0,0,1.108,2.644,12.681,12.681,0,0,0,1.957,1.938c.586.5.959.885.853,1.057" transform="translate(1.682 0.466)"/>
    <path id="Path_163" data-name="Path 163" d="M80.13-133.169c.146.094-.2.869-1.133,1.71a13.388,13.388,0,0,1-3.952,2.245c-3.049,1.224-6.346,2.33-7.082,2.549a45.971,45.971,0,0,1-6.937,1.72c-3.083.515-6.029.266-6.007-.045.019-.447,2.847-.527,5.8-1.156a65.661,65.661,0,0,0,6.748-1.757c.716-.214,3.965-1.366,7.039-2.458a18.729,18.729,0,0,0,3.871-1.774c.954-.6,1.484-1.159,1.655-1.034" transform="translate(1.762 0.22)"/>
    <path id="Path_164" data-name="Path 164" d="M79.217-132.786c.071.032.067.312-.28.639a2.353,2.353,0,0,1-1.718.413,16.835,16.835,0,0,1-2.211-.444,18.538,18.538,0,0,0-2.462-.321,17.61,17.61,0,0,0-4.87.39,16.233,16.233,0,0,0-2.783.9,16.448,16.448,0,0,0-2.45,1.32c-1.134.709-2.369,1.868-3.736,2.9a11.271,11.271,0,0,1-4.147,2.055c-1.211.293-2.028.246-2.044.1-.03-.226.722-.448,1.787-.9a14.115,14.115,0,0,0,3.652-2.212,43.5,43.5,0,0,1,3.762-3.033,16.837,16.837,0,0,1,2.663-1.422,16.854,16.854,0,0,1,3-.985,16.852,16.852,0,0,1,5.257-.333,15.492,15.492,0,0,1,2.624.487c.827.247,1.5.531,2.072.656a2.431,2.431,0,0,0,1.331.014c.293-.111.457-.273.549-.22" transform="translate(1.682 0.201)"/>
    <path id="Path_165" data-name="Path 165" d="M71.491-113.914c-.358.138-1.175-1.557-2.39-3.116a20.689,20.689,0,0,0-3.093-3.266,20.058,20.058,0,0,0-3.564-2.318c-1.633-.876-3.325-1.364-3.258-1.689.075-.42,1.952-.23,3.775.585a15.792,15.792,0,0,1,3.87,2.416,16.583,16.583,0,0,1,3.268,3.557c1.2,1.764,1.755,3.7,1.391,3.831" transform="translate(1.896 0.498)"/>
    <path id="Path_166" data-name="Path 166" d="M33.553-119.3c-.08.15-.771-.051-1.619-.728a8.752,8.752,0,0,1-2.357-3.2,22.994,22.994,0,0,1-1.592-6.393,47.735,47.735,0,0,0-1.043-5.87,14.264,14.264,0,0,0-1.27-3.129c-.444-.788-.806-1.281-.684-1.4.141-.149.722.172,1.38.927a9.868,9.868,0,0,1,1.74,3.244,33.462,33.462,0,0,1,1.166,6.059,27.07,27.07,0,0,0,1.431,6.077,10.95,10.95,0,0,0,1.821,3.074c.623.736,1.136,1.16,1.029,1.345" transform="translate(0.8)"/>
    <path id="Path_167" data-name="Path 167" d="M28.439-134.334c.068-.165.6-.1,1.307.259a6.62,6.62,0,0,1,2.225,1.948,7.576,7.576,0,0,1,1.319,2.9,8.546,8.546,0,0,1,.176,1.895,15.448,15.448,0,0,1-.108,1.738c-.086.822-.244,1.8-.318,2.714a9.339,9.339,0,0,0,.063,2.41c.115.626.262,1.046.115,1.139-.17.111-.58-.2-.92-.887a6.24,6.24,0,0,1-.477-2.718c.012-1.01.155-2,.232-2.79s.118-1.387.112-1.61a7.738,7.738,0,0,0-.159-1.608,7.431,7.431,0,0,0-1.041-2.474c-1-1.652-2.678-2.555-2.526-2.914" transform="translate(0.911 0.181)"/>
  </g>
</svg>
