<svg xmlns="http://www.w3.org/2000/svg" width="469.17" height="342.484" viewBox="0 0 469.17 342.484">
  <g id="Group_19" data-name="Group 19" transform="matrix(0.438, -0.899, 0.899, 0.438, -2498.661, 100.277)" opacity="0.254">
    <g id="Group_16" data-name="Group 16" transform="translate(1044.188 2194.563) rotate(25)">
      <path id="Path_351" data-name="Path 351" d="M233.8.009c-.222-.169-2.288,2.116-5.718,6.328A222.393,222.393,0,0,0,214.639,24.62c-5.145,7.924-10.707,17.783-14.2,29.466-3.552,11.642-5.061,24.659-5.834,37.715-.754,13.066-1.17,26.27-1.994,38.9a323.127,323.127,0,0,1-3.975,35.306A169.4,169.4,0,0,1,181.665,193c-1.343,3.537-2.482,6.632-3.68,9.076-1.111,2.482-2,4.435-2.751,5.718-.72,1.293-1.649,3.17-2.973,5.427-1.446,2.178-2.989,4.932-5.1,7.834a130.353,130.353,0,0,1-17.6,19.513c-15.007,13.717-35.656,28.245-57.889,37.838a178.589,178.589,0,0,1-33.246,10.832,162.889,162.889,0,0,1-29.663,3.68C11.337,293.273.117,290.553,0,291.254c-.069.322,2.695,1.083,7.668,2.181,2.482.588,5.568.839,9.1,1.339,3.543.441,7.589.529,12.008.7A152.316,152.316,0,0,0,59.1,292.437,174.961,174.961,0,0,0,93.13,281.806c22.753-9.6,43.8-24.324,59.116-38.307a133.3,133.3,0,0,0,18.127-20.124c2.191-3.02,3.79-5.871,5.286-8.137,1.368-2.344,2.332-4.288,3.076-5.627.773-1.327,1.7-3.346,2.848-5.909,1.242-2.529,2.429-5.712,3.815-9.358a171.814,171.814,0,0,0,7.161-27.638,319.786,319.786,0,0,0,3.972-35.753c.786-12.713,1.145-25.957,1.79-38.939.667-12.951,2.022-25.676,5.286-36.993C206.8,43.7,212,33.978,216.827,26.007c4.873-7.974,9.4-14.29,12.465-18.759,3.083-4.463,4.751-7.054,4.51-7.239" transform="matrix(-0.914, 0.407, -0.407, -0.914, 333.791, 283.609)" fill="#fff"/>
      <path id="Path_352" data-name="Path 352" d="M33.444.354c-.138-.516-1.768-.56-3.909.5A21.31,21.31,0,0,0,23.019,6.36c-3.834,4.782-7.514,9.608-8.469,10.672-.883,1.036-4.619,5.417-8.312,9.743C2.642,31.024-.619,35.149.1,35.816c.964.9,4.942-2.541,8.869-6.55,3.937-3.99,7.727-8.628,8.61-9.705.9-1,5.02-6.084,8.341-10.863a35.469,35.469,0,0,1,5.014-5.665C32.417,1.684,33.622.955,33.444.354" transform="matrix(-0.914, 0.407, -0.407, -0.914, 143.484, 81.144)" fill="#fff"/>
      <path id="Path_353" data-name="Path 353" d="M48.324.045c-.216-.21-1.023.338-2.479,1.12A44.091,44.091,0,0,1,39.4,3.823a53.773,53.773,0,0,0-9.721,4.159,79.347,79.347,0,0,0-10.2,6.945c-3.3,2.632-6.56,5.255-9.664,8.071a37.352,37.352,0,0,0-7.636,9.271A17.486,17.486,0,0,0,.187,37.407a9.185,9.185,0,0,0,.429,5.167,9.866,9.866,0,0,0,4.3,4.788,12.409,12.409,0,0,0,5.712,1.687,16.18,16.18,0,0,0,9.167-2.779,45.447,45.447,0,0,0,8.441-7.358A76.36,76.36,0,0,0,35.674,29.6C44.725,16.354,48.446,1.776,47.582,1.579c-1.324-.473-5.953,13.5-14.941,25.9A80.831,80.831,0,0,1,25.4,36.218a43.68,43.68,0,0,1-7.715,6.676,12.452,12.452,0,0,1-6.885,2.2,8.477,8.477,0,0,1-3.893-1.133A6,6,0,0,1,4.3,41.11c-.707-1.524-.269-4.072,1.361-6.913,3-5.705,9.824-11.017,16.136-16.359a90.77,90.77,0,0,1,9.542-7.007,67.129,67.129,0,0,1,9.017-4.6A25.18,25.18,0,0,0,46.712,2.4c1.343-1.23,1.812-2.166,1.612-2.36" transform="matrix(-0.914, 0.407, -0.407, -0.914, 167.44, 44.821)" fill="#fff"/>
      <path id="Path_354" data-name="Path 354" d="M0,22.784c-.006.545,2.044.951,5.227,1.023a55.111,55.111,0,0,0,11.739-1.38,111.9,111.9,0,0,0,18.9-6.388c1.878-.729,9.724-4.247,16.881-7.871C59.9,4.523,66.615,1.227,66.261.329c-.494-1.242-7.733,1.2-15.079,4.488-7.361,3.27-15.013,6.876-16.847,7.586a155.587,155.587,0,0,1-18.243,6.4c-4.056,1.12-8.068,1.85-11.073,2.419-3,.507-5.014.936-5.02,1.559" transform="matrix(-0.914, 0.407, -0.407, -0.914, 202.138, 31.969)" fill="#fff"/>
      <path id="Path_355" data-name="Path 355" d="M0,21.433c.119,1.111,6.212.961,12.606-.3a68.364,68.364,0,0,0,14.252-4.453A52.873,52.873,0,0,0,39.067,9.455C43.949,5.59,47.182.671,46.387.1c-1.061-.8-4.8,3.155-9.549,6.4A69.093,69.093,0,0,1,25.3,13.058,96.716,96.716,0,0,1,11.8,17.5C5.751,19.095-.132,20.221,0,21.433" transform="matrix(-0.914, 0.407, -0.407, -0.914, 129.987, 131.508)" fill="#fff"/>
      <path id="Path_356" data-name="Path 356" d="M61.369,7.524c-.15-.576-3.671.031-8.838-1.959-2.6-.889-5.6-2.313-9.214-3.427A48.281,48.281,0,0,0,31.653.078,50.625,50.625,0,0,0,8.731,4.266c-3.145,1.339-6.14,3.3-7.6,5.971a8.48,8.48,0,0,0-.879,6.272,6.623,6.623,0,0,0,1.2,2.416,7.977,7.977,0,0,0,3.036,2.256,29.511,29.511,0,0,0,8.459,2.009c6.572.714,14.547-.739,21.585-3.361C41.618,17.229,48,14.043,52.8,11.765c4.773-2.332,7.815-4.022,7.621-4.469-.26-.61-3.624.326-8.628,2.119-5.02,1.74-11.617,4.623-18.459,6.917-6.832,2.332-14.143,3.549-19.989,2.9a26.875,26.875,0,0,1-7.217-1.662c-1.64-.735-1.881-1.521-2.062-2.081A4.56,4.56,0,0,1,4.6,12.168c.792-1.487,2.842-3.03,5.743-4.256A49.348,49.348,0,0,1,31.493,3.8,50.277,50.277,0,0,1,42.412,5.314c3.371.842,6.522,2.069,9.38,2.732a18.281,18.281,0,0,0,7.079.551c1.709-.282,2.563-.807,2.5-1.073" transform="matrix(-0.914, 0.407, -0.407, -0.914, 160.379, 107.844)" fill="#fff"/>
      <path id="Path_357" data-name="Path 357" d="M31.336.107C30.7-.842,22.58,4.626,16.574,13.02a62.613,62.613,0,0,0-7.2,12.747,73.645,73.645,0,0,0-2.851,8.259c-.329,1.124-1.17,4.119-1.987,8S2.891,50.629,2.115,55.2C.578,64.377-.614,73.031.343,73.209c1.305.25,3.461-8.215,5.4-17.307.939-4.572,1.893-9.22,2.679-13.035C9.235,39.08,10,36.2,10.314,35.121a75,75,0,0,1,2.738-7.808,70.146,70.146,0,0,1,6.563-12.14C24.933,7.045,32.062,1.061,31.336.107" transform="matrix(-0.914, 0.407, -0.407, -0.914, 120.671, 120.736)" fill="#fff"/>
      <path id="Path_358" data-name="Path 358" d="M4.731,42.936c1.033-.466-.585-5.158-.776-10.3A38.37,38.37,0,0,1,5.172,20.994c.241-1.183,1.925-6.128,3.562-11,1.652-4.863,2.375-9.8,1.39-9.987C8.837-.231,7.26,4.088,5.26,8.723a83.476,83.476,0,0,0-3.9,11.254A33.74,33.74,0,0,0,.24,32.955c.654,5.765,3.418,10.522,4.491,9.98" transform="matrix(-0.914, 0.407, -0.407, -0.914, 95.712, 172.488)" fill="#fff"/>
      <path id="Path_359" data-name="Path 359" d="M3.108.01C2.617.176,3.59,4.2,6.563,9.678c2.911,5.5,7.909,12.165,12.547,19.078A77.083,77.083,0,0,1,25.2,39.428a40.321,40.321,0,0,1,3.142,10.5,12.076,12.076,0,0,1-1.033,7.633,6.626,6.626,0,0,1-2.983,2.676,4.227,4.227,0,0,1-3.405.069c-1.521-.563-3.493-2.864-5.58-5.273A53.95,53.95,0,0,1,5.314,35.7a57.688,57.688,0,0,1-2.059-20.44c.423-5.543,1.361-9.126.832-9.289-.56-.2-2.332,3.22-3.374,8.979a51.356,51.356,0,0,0,1.03,21.723A54.842,54.842,0,0,0,12.265,57.549c1.127,1.324,2.2,2.529,3.274,3.64a12.729,12.729,0,0,0,3.793,2.748,8.183,8.183,0,0,0,6.557-.078,10.553,10.553,0,0,0,4.835-4.278c1.593-2.638,2.1-6.394,1.571-10.156A42.588,42.588,0,0,0,28.777,37.8,74.652,74.652,0,0,0,22.2,26.669c-4.948-7-10.1-13.3-13.42-18.324C5.418,3.359,3.715-.218,3.108.01" transform="matrix(-0.914, 0.407, -0.407, -0.914, 86.823, 149.896)" fill="#fff"/>
      <path id="Path_360" data-name="Path 360" d="M6.777,0C6.352-.167,4.527,4.146,5.278,11c.66,6.816,4.2,15.395,9.023,23.2C19.077,42,24.25,49.66,26.91,56.486a42.443,42.443,0,0,1,2.522,8.957c.363,2.4-.21,3.515-.61,4.062a5.182,5.182,0,0,1-3.374,1.934c-1.99.429-4.494-.128-6.9-2.235-2.391-2.025-4.469-5.339-6.478-8.832A71.823,71.823,0,0,1,6.946,49.15a78.218,78.218,0,0,1-4.341-21.8c-.357-5.99,0-9.943-.541-10.015C1.469,17.24.277,21.155.049,27.383a66.466,66.466,0,0,0,3.4,22.965,69.645,69.645,0,0,0,5.2,11.927c2.084,3.671,4.216,7.264,7.3,9.937a14.177,14.177,0,0,0,5.076,2.882,11,11,0,0,0,5.145.241A9.144,9.144,0,0,0,32.03,71.8a7.812,7.812,0,0,0,1.236-2.729,11.419,11.419,0,0,0,.1-4.15,45.43,45.43,0,0,0-2.757-9.912c-2.892-7.364-8.3-15.213-13.135-22.762-4.867-7.511-8.456-15.395-9.636-21.632C6.571,4.38,7.472.143,6.777,0" transform="matrix(-0.914, 0.407, -0.407, -0.914, 95.229, 198.227)" fill="#fff"/>
      <path id="Path_361" data-name="Path 361" d="M.011,38.667c.235,1.08,7.082-.175,13.536-3.68a57.186,57.186,0,0,0,13.3-9.971,54.568,54.568,0,0,0,9.486-12.484C39.726,6.572,41.059.256,40.158.019c-1.314-.385-3.5,5.286-7.007,10.635a66.93,66.93,0,0,1-9.079,11.561,69.012,69.012,0,0,1-12.343,9.52C5.9,35.352-.293,37.471.011,38.667" transform="matrix(-0.914, 0.407, -0.407, -0.914, 135.75, 217.027)" fill="#fff"/>
      <path id="Path_362" data-name="Path 362" d="M67.861,4.552c-.088-.6-4.35-.272-10.841-.507a209.05,209.05,0,0,1-24.192-2.51C28.352.9,23.732-.015,19,0A22.3,22.3,0,0,0,6,3.713,13.435,13.435,0,0,0,.069,13.249,12.234,12.234,0,0,0,1.2,19.918a9.713,9.713,0,0,0,4.851,4.738,22.138,22.138,0,0,0,4.522,1.267c1.562.322,3.267.642,5.086.914,7.226,1.114,16.54,1.48,25.119-1.161a38.344,38.344,0,0,0,11.567-5.64,38.1,38.1,0,0,0,7.7-7.73c3.677-4.945,6.428-7.593,6.187-7.971-.394-.607-4,1.715-8.128,6.3a42,42,0,0,1-7.63,6.723,37.731,37.731,0,0,1-10.722,4.766c-7.884,2.231-16.572,1.862-23.491.786-3.393-.57-6.788-1.114-8.61-1.875a5.72,5.72,0,0,1-2.907-2.842,8.232,8.232,0,0,1-.735-4.516,9.464,9.464,0,0,1,4.281-6.7A18.606,18.606,0,0,1,19.025,3.929c4.184-.063,8.725.745,13.289,1.3C41.39,6.417,50.375,7.046,57.038,6.633c6.676-.354,10.91-1.524,10.822-2.081" transform="matrix(-0.914, 0.407, -0.407, -0.914, 167.595, 175.802)" fill="#fff"/>
      <path id="Path_363" data-name="Path 363" d="M.141,16.807c.629.933,3.026-.063,5.4-1.6a25.1,25.1,0,0,0,4.967-4.319,17.413,17.413,0,0,0,3.452-5.411C15.025,2.789,14.753.01,13.767,0c-1.321-.047-2,2-3.164,3.915A28.386,28.386,0,0,1,7.592,8.229c-.363.441-2.288,2.263-4.281,3.987C1.342,13.962-.535,15.8.141,16.807" transform="matrix(-0.914, 0.407, -0.407, -0.914, 120.74, 251.734)" fill="#fff"/>
      <path id="Path_364" data-name="Path 364" d="M58.695.317C58.551-.81,43,1.065,27.135,5.951c-3.965,1.2-7.949,2.535-11.73,3.94C11.7,11.315,7.869,12.57,4.746,15.03A12.7,12.7,0,0,0,1.125,19.4,10.846,10.846,0,0,0,0,24.221a8.082,8.082,0,0,0,2.673,6.028,10.752,10.752,0,0,0,5.458,2.5,30.278,30.278,0,0,0,8.982-.1,53.709,53.709,0,0,0,21.329-7.727A51,51,0,0,0,53.737,10.388c3.17-4.713,4.306-8.265,3.925-8.434-.654-.319-2.507,2.776-5.975,6.9a58.147,58.147,0,0,1-15.16,12.9A53.027,53.027,0,0,1,16.613,28.7a27.176,27.176,0,0,1-7.771.147,6.8,6.8,0,0,1-3.518-1.515A4.08,4.08,0,0,1,3.97,24.178a7.727,7.727,0,0,1,3.249-6.025c2.3-1.862,5.849-3.142,9.564-4.585,3.7-1.415,7.6-2.792,11.464-4.059C43.707,4.326,58.879,1.5,58.695.317" transform="matrix(-0.914, 0.407, -0.407, -0.914, 162.405, 221.717)" fill="#fff"/>
      <path id="Path_365" data-name="Path 365" d="M1.257,0C1-.057.462,1.038.155,3.144a19.874,19.874,0,0,0,.9,8.794A22.644,22.644,0,0,0,8.408,22.367c3.608,3.023,7.793,5.364,11.536,8.259a60.229,60.229,0,0,1,10.228,9.611A36.384,36.384,0,0,1,36.5,51.063c1.211,3.53.9,6.625-.31,8.578a5.664,5.664,0,0,1-3.424,2.823,8.031,8.031,0,0,1-4.669-.448,22.425,22.425,0,0,1-7.74-4.779C15.008,52.365,10.289,44.29,7.754,35.806,5.116,27.312,4.127,18.574,3.369,12.114,2.659,5.636,2.177,1.37,1.676,1.395,1.028,1.426.687,5.708.816,12.3a100.63,100.63,0,0,0,3.4,24.565c2.491,9.029,7.424,17.78,13.461,23.3a26.119,26.119,0,0,0,9.145,5.6,12.028,12.028,0,0,0,6.942.513,9.677,9.677,0,0,0,5.865-4.648,12.033,12.033,0,0,0,1.615-5.468,17.254,17.254,0,0,0-.951-6.353c-2.854-8.369-10.018-16.428-18.121-22.18-4.031-2.97-8.325-5.23-11.68-7.834a21.231,21.231,0,0,1-7-8.763C.9,4.813,1.958.071,1.257,0" transform="matrix(-0.914, 0.407, -0.407, -0.914, 102.786, 243.635)" fill="#fff"/>
      <path id="Path_366" data-name="Path 366" d="M56.5,0c-.654-.125-1.268,4.209-5.1,9.27C47.663,14.4,40.6,19.557,32.162,22.567,23.737,25.791,14.595,27.584,7.04,30.73A13.441,13.441,0,0,0,2.026,34.51,9.262,9.262,0,0,0,0,39.846,7.252,7.252,0,0,0,1.4,44.356,8.4,8.4,0,0,0,3.525,46.39a10.475,10.475,0,0,0,6.485,1.715c3.067-.11,6.253-1.336,9.671-2.707a70.622,70.622,0,0,0,10.744-5.687,71,71,0,0,0,10.253-8.259A64.033,64.033,0,0,0,54.295,12.327c2.6-5.743,3.336-9.811,2.929-9.924-.689-.222-2.2,3.515-5.211,8.766a74.154,74.154,0,0,1-13.883,17.6,72.5,72.5,0,0,1-9.824,7.652,70.123,70.123,0,0,1-10.143,5.3C14.9,43.048,11.969,44.1,9.844,44.146a6.434,6.434,0,0,1-4.109-1.023A3.652,3.652,0,0,1,3.97,39.971a5.333,5.333,0,0,1,1.2-3.014A9.569,9.569,0,0,1,8.73,34.341c6.632-2.795,16.133-4.8,24.787-8.306,8.791-3.327,16.468-9.336,20.017-15.291C57.233,4.778,57-.029,56.5,0" transform="matrix(-0.914, 0.407, -0.407, -0.914, 141.564, 179.281)" fill="#fff"/>
      <path id="Path_367" data-name="Path 367" d="M38.966,64.142c.169-.585-1.862-1.474-4.6-3.271A43.286,43.286,0,0,1,25.3,52.7c-5.949-7-10.713-15.924-11.786-17.761A115.982,115.982,0,0,1,5.454,16.478C2.634,8.209,2.03-.009,1.063,0,.431.013-.055,2.138,0,5.43a51.1,51.1,0,0,0,1.9,12.1,93.1,93.1,0,0,0,8.14,19.291c1.13,1.915,5.752,11.054,12.465,18.349a33.316,33.316,0,0,0,10.613,7.974c3.314,1.43,5.7,1.537,5.84,1" transform="matrix(-0.914, 0.407, -0.407, -0.914, 118.76, 283.269)" fill="#fff"/>
      <path id="Path_368" data-name="Path 368" d="M.015,7.641c-.238.476,2.466,2.235,6.932,4.344A87.454,87.454,0,0,0,24.47,17.6a101.213,101.213,0,0,0,19.5,2.15c2.867.131,5.4-.05,7.424-.131a41.959,41.959,0,0,0,4.3-.3,103.7,103.7,0,0,0,28.752-6.6A86.783,86.783,0,0,0,99.8,5.034c3.806-2.588,6.1-4.51,5.831-4.895-.385-.566-3.111.654-7.095,2.673A152.059,152.059,0,0,1,83.16,9.252,114.835,114.835,0,0,1,55.353,15.4,119.07,119.07,0,0,1,25.2,13.947,139.393,139.393,0,0,1,7.886,9.569C3.332,8.06.293,7.068.015,7.641" transform="matrix(-0.914, 0.407, -0.407, -0.914, 212.296, 47.594)" fill="#fff"/>
      <path id="Path_369" data-name="Path 369" d="M16.081.314c-.645-.93-3.22.326-5.577,2.21A36.279,36.279,0,0,0,5.615,7.359a33.984,33.984,0,0,0-3.84,5.217C.335,15-.513,17.527.342,17.984c1.177.635,2.814-1.283,4.472-3.3,1.634-2.05,3.33-4.238,3.768-4.72.419-.491,2.444-2.635,4.4-4.651C14.9,3.265,16.772,1.3,16.081.314" transform="matrix(-0.914, 0.407, -0.407, -0.914, 152.975, 21)" fill="#fff"/>
      <path id="Path_370" data-name="Path 370" d="M19.26,1.028c-.41-2.238-9.267-.156-10.365.047-.548.1-2.907.5-5.086,1.114A6.3,6.3,0,0,0,.489,3.942c-.9,1.117-.363,2.072.085,2.1,1.305-.16,1.493-.075,3.9-.21a48.249,48.249,0,0,0,5.136-.876c1.1-.2,10.09-1.562,9.655-3.925" transform="matrix(-0.914, 0.407, -0.407, -0.914, 154.276, 98.559)" fill="#fff"/>
      <path id="Path_371" data-name="Path 371" d="M.908.1C-.144.544-.075,1.9.107,3.242.31,4.581.629,5.958.67,6.275s.181,1.627.4,2.892c.238,1.258.563,2.5,1.537,2.607,1.318.141,1.99-1.17,2.159-2.651a11.625,11.625,0,0,0-.185-3.386A12.727,12.727,0,0,0,3.7,2.253C3.064.791,2.013-.357.908.1" transform="matrix(-0.914, 0.407, -0.407, -0.914, 46.771, 111.417)" fill="#fff"/>
      <path id="Path_372" data-name="Path 372" d="M.7.179c-2,1.092.908,5.474,1.217,6.04s2.532,4.907,4.241,3.975c2.335-1.271-.473-5.3-.779-5.865S2.805-.97.7.179" transform="matrix(-0.914, 0.407, -0.407, -0.914, 49.113, 149.794)" fill="#fff"/>
      <path id="Path_373" data-name="Path 373" d="M9.93,1.439C9.78-.834,5.136.246,4.572.324S-.369.872.025,2.781c.538,2.6,4.532,1.527,5.086,1.452s4.976-.4,4.82-2.795" transform="matrix(-0.914, 0.407, -0.407, -0.914, 124.301, 145.726)" fill="#fff"/>
      <path id="Path_374" data-name="Path 374" d="M21.667,3.508c.235-1.13-2.413-2.019-5.186-2.194-2.773-.2-5.524-.081-6.109-.128A48.152,48.152,0,0,1,5,.657C2.742.338.754-.444.185.335c-.817,1.07,1.183,3.051,3.884,3.9a21.051,21.051,0,0,0,6.144.892,52.769,52.769,0,0,0,6.194-.088c2.613-.222,5.02-.366,5.261-1.53" transform="matrix(-0.914, 0.407, -0.407, -0.914, 161.82, 163.554)" fill="#fff"/>
      <path id="Path_375" data-name="Path 375" d="M16.984,25.227c.883-.717-.929-3.674-2.97-6.7-2.184-3.1-4.328-6.128-4.807-6.81S6.712,8,4.744,5.25A31.048,31.048,0,0,1,2.478,1.7C1.958.762,1.664.027,1.167,0,.522-.042-.041.859,0,2.343A11.291,11.291,0,0,0,1.6,7.19a72.339,72.339,0,0,0,4.353,6.757,78.827,78.827,0,0,0,5.083,6.816c2.4,2.839,5.02,5.217,5.949,4.463" transform="matrix(-0.914, 0.407, -0.407, -0.914, 93.211, 228.962)" fill="#fff"/>
      <path id="Path_376" data-name="Path 376" d="M.015,15.86c.288,1.1,5.032.307,9.912-1.155a109.443,109.443,0,0,0,10.926-4A101.2,101.2,0,0,0,30.8,6.058C34.989,3.8,38.651,1.225,38.175.387c-.654-1.167-4.72.51-8.995,2.347C24.784,4.671,20.4,6.6,19.36,7.056c-1.064.413-5.8,2.247-10.613,4.112C4.109,12.974-.294,14.7.015,15.86" transform="matrix(-0.914, 0.407, -0.407, -0.914, 145.165, 226.38)" fill="#fff"/>
      <path id="Path_377" data-name="Path 377" d="M1.193,36.8C2.339,36.857,3,32.513,3.982,28c.92-4.532,2.206-9.242,2.535-10.259.3-1.023,1.756-5.37,3.393-9.383C11.478,4.321,13.205.6,12.36.09,11.24-.6,8.576,2.763,6.545,6.828a58.373,58.373,0,0,0-3.793,9.739,61.866,61.866,0,0,0-2.441,10.8c-.62,4.813-.307,9.389.883,9.439" transform="matrix(-0.914, 0.407, -0.407, -0.914, 103.39, 132.609)" fill="#fff"/>
      <path id="Path_378" data-name="Path 378" d="M17.128,0c-.538-.019-1.061,3.818-.832,9.674.163,5.856,1.246,13.626,1.934,21.523.714,7.887.66,15.98-.883,22.233a17.781,17.781,0,0,1-2.876,7.223,5.345,5.345,0,0,1-2.939,2.153,4.3,4.3,0,0,1-3.255-.523,7.98,7.98,0,0,1-3.7-5.267c-.71-2.654-.679-6.156-.6-9.721A78.4,78.4,0,0,1,5.1,36.41,87.432,87.432,0,0,1,10.712,17.5c2.05-4.9,3.743-7.981,3.3-8.265-.52-.341-2.942,2.341-5.6,7.161A68.649,68.649,0,0,0,1.464,35.725,74.558,74.558,0,0,0,.074,47.142c-.106,3.737-.232,7.355.66,10.866a11.938,11.938,0,0,0,5.615,7.74,8.355,8.355,0,0,0,6.14.886,9.4,9.4,0,0,0,5.13-3.568,21.4,21.4,0,0,0,3.612-8.738c1.677-6.829,1.64-15.448.7-23.488-.908-8.065-2.319-15.692-3.058-21.385C18.073,3.771,17.757.016,17.128,0" transform="matrix(-0.914, 0.407, -0.407, -0.914, 107.542, 114.263)" fill="#fff"/>
      <path id="Path_379" data-name="Path 379" d="M5.639.006C4.524-.2,3.207,4.447,2.309,9.474,1.392,14.5.913,19.889.794,21.063S.121,27.278.024,32.054c-.119,4.782.194,9.267,1.158,9.3C2.518,41.4,3.191,36.99,3.717,32.3c.444-4.848.892-9.677,1-10.832.128-1.145.7-6.266,1.277-11.461C6.487,5,6.825.226,5.639.006" transform="matrix(-0.914, 0.407, -0.407, -0.914, 95.538, 111.572)" fill="#fff"/>
    </g>
    <g id="Group_18" data-name="Group 18" transform="translate(1329.762 2487.558) rotate(87)">
      <path id="Path_380" data-name="Path 380" d="M10.416.229C9.493-.44,8.26.473,7.07,1.472,5.718,2.7,4.7,3.616,4.442,3.847c-.254.207-1.189.958-2.61,2.1C.724,6.911-.325,7.916.094,8.8c.566,1.2,2.194,1.011,3.706.282A14.127,14.127,0,0,0,6.939,6.9,15.274,15.274,0,0,0,9.787,4.026c1.052-1.446,1.6-3.092.629-3.8" transform="matrix(-0.914, 0.407, -0.407, -0.914, 169.425, 26.766)" fill="#fff"/>
      <path id="Path_381" data-name="Path 381" d="M122.315,0c-.623-.222-3.623,8-9.8,19.814-6.04,11.882-15.5,27.171-26.349,42.193C75.384,77.077,63.535,92.09,54.221,104.593c-9.351,12.469-16.152,22.415-18.506,26.039a294.111,294.111,0,0,0-15.667,26.2C13.132,169.859,6.15,186.8,2.757,204.1c-3.577,17.248-3.443,34.614-.923,47.026.538,3.114,1.324,5.909,1.95,8.375.786,2.429,1.405,4.554,2.072,6.247,1.383,3.368,2.263,5.22,2.488,5.133.789-.291-2.316-7.909-3.987-20.177-1.881-12.209-1.665-29.059,2.022-45.853C9.89,188,16.753,171.505,23.57,158.68A296.767,296.767,0,0,1,39,132.817c2.332-3.587,9.1-13.411,18.415-25.835,9.27-12.456,21.094-27.522,31.794-42.814,10.753-15.241,20.052-30.921,25.629-43.207C120.558,8.733,122.794.158,122.315,0" transform="matrix(-0.914, 0.407, -0.407, -0.914, 221.975, 247.462)" fill="#fff"/>
      <path id="Path_382" data-name="Path 382" d="M29.726.025c-.914-.61-8.2,9.868-13.783,22.189A178.814,178.814,0,0,0,5.646,51.3,170.9,170.9,0,0,0,.579,79.963c-1.221,12.581-.272,24.421.648,24.367C2.6,104.284,2.654,92.622,4.26,80.351a213.349,213.349,0,0,1,5.2-28.045,219.127,219.127,0,0,1,9.887-28.577C24.446,11.514,30.771.692,29.726.025" transform="matrix(-0.914, 0.407, -0.407, -0.914, 164.642, 96.531)" fill="#fff"/>
      <path id="Path_383" data-name="Path 383" d="M6.061.018c-1.036-.4-3.79,5.78-5.02,12.838A71.076,71.076,0,0,0,.118,29.115,67.625,67.625,0,0,0,2.524,44.284c1.737,6.456,4.77,11.965,5.618,11.561,1.239-.563-.773-6.228-2.028-12.453A94.216,94.216,0,0,1,4.052,28.921a95.917,95.917,0,0,1,.67-15.486C5.495,6.681,7.21.444,6.061.018" transform="matrix(-0.914, 0.407, -0.407, -0.914, 145.138, 97.125)" fill="#fff"/>
      <path id="Path_384" data-name="Path 384" d="M5.973,4.428c-.228.6,2.879,1.959,6.782,5.111a40.353,40.353,0,0,1,5.981,6.14A38.167,38.167,0,0,1,23.7,24.3a32.56,32.56,0,0,1,1.972,19.088c-1,5.568-5.442,5.273-6.679,5.117a8.023,8.023,0,0,1-3.3-1.217,16.187,16.187,0,0,1-4.572-4.7A45.959,45.959,0,0,1,4.214,25.425,51.779,51.779,0,0,1,4.023,7.9C4.787,3.217,5.788.216,5.294.015c-.56-.247-2.375,2.516-3.771,7.348A44.576,44.576,0,0,0,.568,26.045a46.723,46.723,0,0,0,7.27,18.79A19.8,19.8,0,0,0,13.6,50.653a12.114,12.114,0,0,0,4.885,1.768,10.669,10.669,0,0,0,5.493-.67,8.543,8.543,0,0,0,3.612-2.839A12.441,12.441,0,0,0,29.555,44.3,34.065,34.065,0,0,0,30.1,33.787a37.015,37.015,0,0,0-2.967-10.944A37.964,37.964,0,0,0,21.3,13.589a34.887,34.887,0,0,0-7.014-6.14c-4.6-2.92-8.159-3.515-8.309-3.02" transform="matrix(-0.914, 0.407, -0.407, -0.914, 129.141, 58.503)" fill="#fff"/>
      <path id="Path_385" data-name="Path 385" d="M.139,27.435c.729.861,4.147-1.458,7.286-4.494A66.834,66.834,0,0,0,14,15.455a62.963,62.963,0,0,0,5.258-7.79C21.283,4.119,22.606.511,21.746.079c-1.192-.61-3.333,2.426-5.611,5.608C13.9,8.9,11.5,12.269,10.892,13.026,10.3,13.8,7.5,17.2,4.745,20.356,2.023,23.539-.644,26.512.139,27.435" transform="matrix(-0.914, 0.407, -0.407, -0.914, 159.025, 74.986)" fill="#fff"/>
      <path id="Path_386" data-name="Path 386" d="M44.843.076c-.385-.469-3.051,1.33-7.834,2.573-2.375.673-5.261,1.255-8.45,2.044A42.255,42.255,0,0,0,18.592,8.4,41.185,41.185,0,0,0,3.163,22.647,19.051,19.051,0,0,0,.083,30.54a9.818,9.818,0,0,0,.8,5.424A8.343,8.343,0,0,0,4.7,39.876a11.458,11.458,0,0,0,8.5.66,24.057,24.057,0,0,0,8.434-5.011,68.036,68.036,0,0,0,7.3-7.029A62.77,62.77,0,0,0,38.988,13.449c2.069-4.385,2.77-7.486,2.35-7.646-1.217-.5-6.053,10.935-15.126,20.186a73.164,73.164,0,0,1-7.051,6.5,21.077,21.077,0,0,1-7.07,4.225,7.584,7.584,0,0,1-5.568-.357,4.341,4.341,0,0,1-2.078-2.091,5.715,5.715,0,0,1-.423-3.258,15.315,15.315,0,0,1,2.5-6.225A39.452,39.452,0,0,1,20.376,11.672C26.169,8.254,32.963,7.146,37.839,5.1c4.948-1.918,7.4-4.619,7-5.026" transform="matrix(-0.914, 0.407, -0.407, -0.914, 183.32, 50.285)" fill="#fff"/>
      <path id="Path_387" data-name="Path 387" d="M2.633,45.285c1.139-.169.836-5.433,1.117-10.982a101.161,101.161,0,0,1,1.3-12.622,99.869,99.869,0,0,1,2.92-11.624c1.487-4.989,3.405-9.53,2.529-10C9.346-.565,6.448,3.707,4.48,8.824A61.813,61.813,0,0,0,1.165,20.967,65.129,65.129,0,0,0,.026,34.256c.113,5.852,1.437,11.217,2.607,11.029" transform="matrix(-0.914, 0.407, -0.407, -0.914, 141.921, 145.449)" fill="#fff"/>
      <path id="Path_388" data-name="Path 388" d="M6.645,0c-.513.006-.789,3.787.836,9.186,1.521,5.4,5.048,12.024,8.1,18.731C18.6,34.58,20.453,42,19.564,47.725a17.313,17.313,0,0,1-2.357,6.788C16.2,55.971,15.376,56.072,14.9,56.1a4.391,4.391,0,0,1-2.882-1.186A18.946,18.946,0,0,1,7.79,49.484C5.049,44.664,3.531,37.7,3.784,30.915c.188-6.807,1.79-13.395,2.964-18.283,1.2-4.892,1.944-8.143,1.468-8.3C7.6,4.138,6.081,7.108,4.3,11.9A67.2,67.2,0,0,0,.088,30.756C-.4,38.07,1.161,45.834,4.307,51.4A22.3,22.3,0,0,0,9.58,58.037a8.385,8.385,0,0,0,5.493,2,6.045,6.045,0,0,0,2.613-.7,7.872,7.872,0,0,0,2.789-2.576,20.823,20.823,0,0,0,3.036-8.478c1.027-6.882-1.2-15-4.541-21.917-3.377-6.9-7.064-13.094-9.045-18.039C7.85,3.437,7.3-.056,6.645,0" transform="matrix(-0.914, 0.407, -0.407, -0.914, 134.723, 114.926)" fill="#fff"/>
      <path id="Path_389" data-name="Path 389" d="M62.847,3.173c-.5-.429-3.158,2.807-8.779,5.273-5.586,2.563-13.877,3.818-22.662,3.912-8.763.185-18.277.488-25.691,3.505a9.043,9.043,0,0,0-5,4.159,7.619,7.619,0,0,0-.282,5.771,12.2,12.2,0,0,0,3.752,5.411,14.742,14.742,0,0,0,5.439,2.829A23.9,23.9,0,0,0,19.4,34.8c7.414-.832,15.683-4.322,22.709-9.182a56.654,56.654,0,0,0,15.72-16.39C61.06,4.046,62.13.172,61.749.018c-.667-.3-2.472,3.148-6.037,7.771A64.523,64.523,0,0,1,40.035,22.555c-6.657,4.394-14.569,7.6-21.059,8.3-6.528.829-11.214-1.574-12.234-2.651A8.378,8.378,0,0,1,4.21,24.58c-.629-1.925-.178-3.809,3.011-5.029,6.456-2.657,15.476-3.1,24.336-3.471,8.885-.282,17.87-1.962,23.663-5.314,5.9-3.28,8.071-7.348,7.627-7.593" transform="matrix(-0.914, 0.407, -0.407, -0.914, 194.826, 95.568)" fill="#fff"/>
      <path id="Path_390" data-name="Path 390" d="M.007,14.729c-.263,1.077,6.582,3.026,14.1,2.951a64.085,64.085,0,0,0,16.881-2.429,61.26,61.26,0,0,0,14.844-6.2c6.1-3.474,10.713-8.2,10.077-8.882C55-.854,49.991,2.9,44.054,5.806a77.029,77.029,0,0,1-14.112,5.643,79.7,79.7,0,0,1-15.921,2.51c-7.064.463-13.755-.435-14.015.77" transform="matrix(-0.914, 0.407, -0.407, -0.914, 175.425, 159.189)" fill="#fff"/>
      <path id="Path_391" data-name="Path 391" d="M74.728,21.577c-.059-.676-4.319-.366-10.472-1.994-6.184-1.537-13.943-5.464-21.967-9.774C34.262,5.565,25.445,1.3,17.4.351a20.234,20.234,0,0,0-10.719.861A10.769,10.769,0,0,0,1.275,5.5,9.008,9.008,0,0,0,.264,12.3,15.314,15.314,0,0,0,6.408,20.81a30.069,30.069,0,0,0,11.439,4.9A93.736,93.736,0,0,0,30.722,27.42c8.566.751,17.129.413,23.225-1.277,6.134-1.6,9.549-4.072,9.33-4.422-.335-.651-3.984.983-9.871,1.925-5.877,1.033-13.974,1.023-22.346.091-8.381-.814-17.075-2.072-22.271-6.112A11.47,11.47,0,0,1,4.123,11.4a4.987,4.987,0,0,1,.52-3.853,6.756,6.756,0,0,1,3.48-2.638,16.463,16.463,0,0,1,8.725-.61c7.229.826,15.639,4.757,23.732,8.826,8.084,4.109,16.387,7.94,23.122,8.988,6.722,1.139,11.126-.06,11.026-.535" transform="matrix(-0.914, 0.407, -0.407, -0.914, 220.277, 145.749)" fill="#fff"/>
      <path id="Path_392" data-name="Path 392" d="M3.69,36.679c1.12-.257.642-4.428.457-8.835-.247-4.407-.153-9.07-.081-10.087.044-1.017.391-5.383,1.03-9.47C5.659,4.187,6.479.35,5.54.034,4.3-.395,2.479,3.311,1.468,7.567A52.057,52.057,0,0,0,.126,17.529a55.023,55.023,0,0,0,.31,10.638c.607,4.632,2.1,8.788,3.255,8.513" transform="matrix(-0.914, 0.407, -0.407, -0.914, 130.355, 177)" fill="#fff"/>
      <path id="Path_393" data-name="Path 393" d="M6.653,0c-.438-.088-1.433,4.109.285,10.215,1.6,6.115,6.043,13.26,10.541,20.183a94.087,94.087,0,0,1,6.05,10.569,33.714,33.714,0,0,1,3.148,10.212,11.835,11.835,0,0,1-1.371,7.442,8.174,8.174,0,0,1-3.02,2.876,5.613,5.613,0,0,1-3.618.664c-1.681-.235-3.749-1.659-5.643-4.069A46.676,46.676,0,0,1,7.7,49.359a47.886,47.886,0,0,1-3.389-10.65,50.868,50.868,0,0,1,.172-20.136C5.636,13.234,7.117,9.9,6.622,9.656c-.52-.288-2.8,2.763-4.61,8.275A46.161,46.161,0,0,0,.679,39.369a48.684,48.684,0,0,0,3.461,11.6,48.426,48.426,0,0,0,5.784,9.614c2.134,2.745,5.042,5.036,8.071,5.489a9.53,9.53,0,0,0,6.15-1.089,12.207,12.207,0,0,0,4.516-4.241,15.692,15.692,0,0,0,1.984-9.946c-.851-7.643-5.33-15.545-10.043-22.427-4.729-6.907-9.189-13.473-11.2-18.95C7.267,3.989,7.373.02,6.653,0" transform="matrix(-0.914, 0.407, -0.407, -0.914, 126.758, 160.224)" fill="#fff"/>
      <path id="Path_394" data-name="Path 394" d="M66.29.525c-.532-.366-2.607,3.2-8.034,5.317a24.669,24.669,0,0,1-9.7,1.609,48.385,48.385,0,0,1-11.67-2.112C28.922,2.979,20.29-.223,12.578.012A28.288,28.288,0,0,0,7.2.6,9.893,9.893,0,0,0,2.51,2.845,7.626,7.626,0,0,0,.31,6.556a9.045,9.045,0,0,0-.3,2.651,10.3,10.3,0,0,0,2.059,5.949,16.434,16.434,0,0,0,8.168,5.355,45.616,45.616,0,0,0,23.613.807A63.49,63.49,0,0,0,54,12.919c4.91-3.155,7.665-5.784,7.4-6.137-.419-.566-3.634,1.371-8.669,3.918a76,76,0,0,1-19.617,6.992,43.687,43.687,0,0,1-21.6-.948A12.662,12.662,0,0,1,5.23,12.769,6.353,6.353,0,0,1,3.95,9.11,4.356,4.356,0,0,1,5.192,5.771C6.241,4.641,9.336,4.068,12.638,4A42.773,42.773,0,0,1,23.673,5.5c3.928.97,8.021,2.341,12.218,3.436a47.641,47.641,0,0,0,12.628,1.818A24.785,24.785,0,0,0,59.317,8.2a16.156,16.156,0,0,0,5.931-4.951C66.293,1.705,66.521.657,66.29.525" transform="matrix(-0.914, 0.407, -0.407, -0.914, 178.675, 185.613)" fill="#fff"/>
      <path id="Path_395" data-name="Path 395" d="M15.462.033c-.282-.369-4.106,2.391-6.854,8.8A28.642,28.642,0,0,0,6.43,20.479a30.12,30.12,0,0,0,3.624,13.395c2.141,4.228,4.807,8.049,6.973,11.793a33.644,33.644,0,0,1,4.356,10.891,16.522,16.522,0,0,1-.423,8.685,10.085,10.085,0,0,1-2.469,4.012,2.765,2.765,0,0,1-3.036.717c-1.568-.588-3.377-2.895-4.91-6.059a60.66,60.66,0,0,1-6.7-22.577A65.885,65.885,0,0,1,5.532,19.192C6.984,13.371,8.6,9.725,8.1,9.481c-.526-.282-2.923,3.07-5.023,8.995A58.159,58.159,0,0,0,.161,41.641a61.262,61.262,0,0,0,6.87,24.126c1.621,3.183,3.64,6.5,6.942,7.877a6.453,6.453,0,0,0,4.673.091,7.891,7.891,0,0,0,2.488-1.552,13.971,13.971,0,0,0,3.558-5.6,20.372,20.372,0,0,0,.61-10.76,36.766,36.766,0,0,0-4.885-12.146c-2.31-3.9-4.992-7.646-7.054-11.517a27.923,27.923,0,0,1-3.63-11.824,28.823,28.823,0,0,1,1.3-10.606C12.986,3.7,15.981.49,15.462.033" transform="matrix(-0.914, 0.407, -0.407, -0.914, 129.988, 220.166)" fill="#fff"/>
      <path id="Path_396" data-name="Path 396" d="M.013,36.909c-.213.46,2.131,2.05,6.19,3.505A47.33,47.33,0,0,0,22.03,42.9a55.536,55.536,0,0,0,16.894-2.776,55.831,55.831,0,0,0,9.392-4.166A52.275,52.275,0,0,0,56.4,30.427,66.076,66.076,0,0,0,67.216,18.691C73.682,9.71,78.048.477,77.288.042c-1.221-.726-6.482,8.04-13.016,16.405A72.792,72.792,0,0,1,53.862,27.367,50.166,50.166,0,0,1,46.4,32.515a53.742,53.742,0,0,1-8.729,3.828,58.035,58.035,0,0,1-15.714,2.835A62.362,62.362,0,0,1,6.9,37.92C2.9,37.1.279,36.308.013,36.909" transform="matrix(-0.914, 0.407, -0.407, -0.914, 179.935, 248.76)" fill="#fff"/>
      <path id="Path_397" data-name="Path 397" d="M8.116.062c-.948-.588-3.7,3.1-5.4,7.662A42.825,42.825,0,0,0,.27,18.487,40.492,40.492,0,0,0,.414,28.893c.61,4.5,2.322,8.413,3.224,8.118,1.289-.4.623-4.322.454-8.491a63.237,63.237,0,0,1,.1-9.608,64.17,64.17,0,0,1,2.05-9.984C7.428,4.616,9.158.694,8.116.062" transform="matrix(-0.914, 0.407, -0.407, -0.914, 118.433, 264.86)" fill="#fff"/>
      <path id="Path_398" data-name="Path 398" d="M3.183,0c-.507-.116-1.3,3.1.692,7.3A24.292,24.292,0,0,0,8.3,13.548c1.937,2.044,4.191,3.881,6.319,5.78a32.016,32.016,0,0,1,5.55,5.975,13.033,13.033,0,0,1,2.241,6.441,8.392,8.392,0,0,1-1.067,4.885,5.952,5.952,0,0,1-1.9,1.944,6.439,6.439,0,0,1-2.526.883,9.43,9.43,0,0,1-4.8-.723c-3.68-1.314-6.55-5.865-7.683-10.882C2,17.617,3.636,7.42,2.666,7.3,1.408,6.963-1.387,17.354.826,28.664a23.484,23.484,0,0,0,3.236,8.2,14.427,14.427,0,0,0,6.5,5.527,13.226,13.226,0,0,0,6.879.992,10.475,10.475,0,0,0,4.076-1.455,10,10,0,0,0,3.2-3.211,12.24,12.24,0,0,0,1.668-7.2A16.578,16.578,0,0,0,23.421,23.1a33.518,33.518,0,0,0-6.364-6.591c-2.282-1.887-4.563-3.587-6.428-5.3A27.821,27.821,0,0,1,6.146,6.065C3.956,2.773,3.834.012,3.183,0" transform="matrix(-0.914, 0.407, -0.407, -0.914, 109.563, 244.215)" fill="#fff"/>
      <path id="Path_399" data-name="Path 399" d="M47.524.061c-.948-.673-5.07,4.347-10.2,8.863a90.679,90.679,0,0,1-12.453,9.4,89.058,89.058,0,0,1-13.207,6.541C5.743,27.327-.159,28.729,0,29.721c.191,1.283,6.535.814,12.922-1.38A66.017,66.017,0,0,0,26.918,21.7,69.328,69.328,0,0,0,39.875,11.638C45,6.568,48.5.721,47.524.061" transform="matrix(-0.914, 0.407, -0.407, -0.914, 174.591, 136.916)" fill="#fff"/>
      <path id="Path_400" data-name="Path 400" d="M.562.088c-2,.939,1.962,8.982,2.3,10.046.466,1.008,3.148,8.923,4.948,8.341,2.585-.839-.8-8.763-1.274-9.78C6.2,7.621,2.8-.957.562.088" transform="matrix(-0.914, 0.407, -0.407, -0.914, 102.289, 34.142)" fill="#fff"/>
      <path id="Path_401" data-name="Path 401" d="M44.425.056c-.516-.3-1.471.676-3.048,1.843a30.72,30.72,0,0,1-6.438,3.618c-5.208,2.116-11.307,4.069-12.522,4.525-1.289.41-6.8,2.241-12.052,3.358C5.123,14.631.084,14.784,0,15.751c-.135,1.327,5.314,2.188,11,1.293a72.143,72.143,0,0,0,12.634-3.252A107.815,107.815,0,0,0,36.51,8.9,19.633,19.633,0,0,0,43.2,3.736C44.622,1.877,44.919.331,44.425.056" transform="matrix(-0.914, 0.407, -0.407, -0.914, 178.576, 92.882)" fill="#fff"/>
      <path id="Path_402" data-name="Path 402" d="M1.211,0C-1.061.139.535,19.126.676,21.458S1.759,41.513,3.7,41.4c2.654-.163,1.052-17.842.911-20.174S3.608-.143,1.211,0" transform="matrix(-0.914, 0.407, -0.407, -0.914, 130.013, 116.752)" fill="#fff"/>
      <path id="Path_403" data-name="Path 403" d="M20.756,7.05c.169-1.127-2.178-1.95-4.651-2.713-2.673-.776-5.117-1.49-5.683-1.656C9.874,2.5,7.683,1.77,5.12.906,2.8.183.56-.449.113.424-.488,1.6,1.4,3.163,3.7,4.321A33.473,33.473,0,0,0,9.2,6.433a36.2,36.2,0,0,0,6.056,1.53c2.71.407,5.324.269,5.5-.914" transform="matrix(-0.914, 0.407, -0.407, -0.914, 214.402, 139.867)" fill="#fff"/>
      <path id="Path_404" data-name="Path 404" d="M.511.035C-.557.411.188,3.882,1.465,7.409a79.218,79.218,0,0,0,3.418,7.849,72.541,72.541,0,0,0,3.824,7.117c1.843,2.983,3.928,5.549,4.757,5.048,1.139-.692-.066-3.712-1.505-6.81C10.5,17.527,8.8,14.325,8.444,13.562S6.56,9.524,4.908,5.988C3.3,2.708,1.647-.365.511.035" transform="matrix(-0.914, 0.407, -0.407, -0.914, 102.572, 130.823)" fill="#fff"/>
      <path id="Path_405" data-name="Path 405" d="M38.76.247C38.1-.7,34.225,1.33,29.715,2.325A56.58,56.58,0,0,1,19.175,3.718c-1.083.088-5.777.013-10.262-.25C4.428,3.252.14,3.061.006,4.04c-.178,1.3,3.968,2.469,8.553,3.111a59.139,59.139,0,0,0,10.722.51A40.993,40.993,0,0,0,30.714,5.918C35.665,4.378,39.461,1.2,38.76.247" transform="matrix(-0.914, 0.407, -0.407, -0.914, 154.309, 186.907)" fill="#fff"/>
      <path id="Path_406" data-name="Path 406" d="M2.624.007C1.516-.187.405,3.637.114,7.837a50.777,50.777,0,0,0,.307,9.586A47.612,47.612,0,0,0,2.186,26.3c1.127,3.768,2.886,7.026,3.777,6.669,1.252-.485.482-3.925-.188-7.564-.739-3.624-1.349-7.492-1.433-8.4-.113-.911-.438-5.07-.5-9.035C3.72,4,3.817.214,2.624.007" transform="matrix(-0.914, 0.407, -0.407, -0.914, 121.369, 208.71)" fill="#fff"/>
    </g>
    <g id="Group_17" data-name="Group 17" transform="translate(1212.252 2381.631) rotate(68)">
      <path id="Path_407" data-name="Path 407" d="M126.3,132.785c-.595.175-2.5-4.951-5.543-12.663-1.731-3.781-3.368-8.372-5.809-13.044-1.174-2.357-2.3-4.845-3.6-7.314-1.358-2.441-2.742-4.932-4.141-7.439a207.391,207.391,0,0,0-18.59-27.1c-2.914-3.824-5.84-6.913-8.084-9.445-1.127-1.261-2.113-2.357-2.926-3.264-.864-.861-1.546-1.537-2.015-2-.942-.936-2.663-2.641-4.951-4.907-2.269-2.288-5.386-4.835-8.738-7.874-3.436-2.945-7.427-6.021-11.586-9.207-4.31-2.983-8.679-6.266-13.317-8.988A231.716,231.716,0,0,0,11.587,5.793C4.5,2.692-.162.632,0,.147c.2-.6,5.155.682,12.578,3.289A166.635,166.635,0,0,1,38.94,16.387c4.779,2.685,9.273,5.971,13.689,8.982C56.9,28.58,60.976,31.7,64.481,34.7c3.424,3.089,6.6,5.7,8.9,8.04,2.325,2.316,4.075,4.056,5.032,5.011.482.476,1.177,1.164,2.056,2.037.836.92,1.84,2.037,3,3.317,2.294,2.573,5.286,5.718,8.256,9.617a191.789,191.789,0,0,1,18.734,27.763c1.365,2.585,2.723,5.148,4.053,7.665,1.255,2.548,2.335,5.114,3.443,7.549,2.31,4.832,3.759,9.583,5.23,13.52,2.535,8.031,3.643,13.417,3.117,13.564" transform="matrix(0.914, 0.407, -0.407, 0.914, 59.302, 61.001)" fill="#fff"/>
      <path id="Path_408" data-name="Path 408" d="M.06,6.006c-.207-.144.1-1.12,1.311-2.4A12.244,12.244,0,0,1,7.815.314,17.3,17.3,0,0,1,18.1,1.537a33.685,33.685,0,0,1,9.7,6.7A90.477,90.477,0,0,1,41.906,25.9c3.505,5.577,5.743,10.093,6.588,11.686s2.992,5.865,5.6,11.4S59.77,61.3,62.95,67.742A184.189,184.189,0,0,0,72.223,84.62c2.682,4.394,4.648,7.154,4.219,7.511-.448.388-3.086-1.887-6.325-6.059A108.457,108.457,0,0,1,59.658,69.429C56.243,62.975,53.1,56.187,50.5,50.685S45.818,40.968,44.989,39.4C43.355,36.3,36,21.611,25.219,10.926a32.837,32.837,0,0,0-8.475-6.375A15.714,15.714,0,0,0,8.209,2.87C2.939,3.327.539,6.444.06,6.006" transform="matrix(0.914, 0.407, -0.407, 0.914, 69.406, 3.504)" fill="#fff"/>
      <path id="Path_409" data-name="Path 409" d="M3.08,20.746c-.31-.494.3-1.377-.263-3.108a16.206,16.206,0,0,0-1.534-3.083A8.386,8.386,0,0,1,.094,9.113c.754-4.225,4.269-6.741,6.957-7.84A16.909,16.909,0,0,1,12.95.021a20.467,20.467,0,0,1,5.583.52,25.734,25.734,0,0,1,8.228,3.605c5.13,3.427,8.8,7.549,8.234,8.231-.886,1.089-5.311-2.325-10.14-5.064a27.162,27.162,0,0,0-7.179-2.892,17.451,17.451,0,0,0-4.547-.46A13.5,13.5,0,0,0,8.6,4.944c-2.069.792-4.335,2.645-4.842,4.82-.695,1.918,1.546,4.619,1.618,7.521a4.262,4.262,0,0,1-1.008,3.1c-.6.585-1.124.579-1.293.357" transform="matrix(0.914, 0.407, -0.407, 0.914, 50.578, 0)" fill="#fff"/>
      <path id="Path_410" data-name="Path 410" d="M23.838,51.179c.125.2-.663,1.033-2.541,1.139a8.238,8.238,0,0,1-6.547-3.368c-1.99-2.563-2.673-6.206-2.948-9.705-.291-3.483-.494-7.111-2.266-9.677C7.8,26.9,4.19,24.984,1.758,21.291A9.573,9.573,0,0,1,.074,14.822a9.362,9.362,0,0,1,3.07-5.433A58.668,58.668,0,0,1,10.089,4.3a37.4,37.4,0,0,1,4.432-2.429A20.65,20.65,0,0,1,19.34.294a16.41,16.41,0,0,1,8.641.7C33.759,3.079,40.54,5.63,47.135,8.565a96.361,96.361,0,0,1,16.9,9.408c4.206,3.061,6.528,5.561,6.234,5.906-.448.535-3.242-1.286-7.63-3.762a154.608,154.608,0,0,0-16.966-8.156C39.207,9.3,32.244,6.75,26.757,4.775a13.52,13.52,0,0,0-10.6.689,32.066,32.066,0,0,0-3.934,2.188,58.252,58.252,0,0,0-6.334,4.626c-2.106,1.872-2.607,4.122-.823,6.888,1.552,2.676,5.108,4.648,7.577,8.35,2.438,3.9,2.3,8.156,2.454,11.514.081,3.408.507,6.388,1.765,8.425A7.489,7.489,0,0,0,21.4,50.81c1.39.313,2.307.063,2.435.369" transform="matrix(0.914, 0.407, -0.407, 0.914, 21.282, 7.236)" fill="#fff"/>
      <path id="Path_411" data-name="Path 411" d="M97,18.129c-.279.491-3.336-1.462-8.034.26a21.548,21.548,0,0,0-7.07,4.748,92.424,92.424,0,0,1-8.262,7.176c-6.068,4.666-13.905,7.9-20.646,7.977A24.6,24.6,0,0,1,39.71,35.12a34.285,34.285,0,0,1-3.962-2.692c-1.721-1.324-3.7-3.114-5.871-4.986a32.642,32.642,0,0,0-7.408-5.1c-2.8-1.28-6.2-1.9-9.664-2.82a21.138,21.138,0,0,1-9.611-4.945,11.326,11.326,0,0,1-2.8-4.394,8.449,8.449,0,0,1-.1-4.76A7.461,7.461,0,0,1,4.571.262C6.2-.27,7.134.143,7.1.334,7.1.7,6.245.862,5.228,1.6A6.692,6.692,0,0,0,2.793,5.97a6.142,6.142,0,0,0,.372,3.189,8.8,8.8,0,0,0,2.272,3.036,18.929,18.929,0,0,0,8.281,3.743c3.255.782,6.9,1.33,10.334,2.829a35.1,35.1,0,0,1,8.4,5.646c4.447,4,7.777,6.572,9.211,7.28a20.716,20.716,0,0,0,11.189,2.616c5.809-.069,12.75-2.789,18.59-7.014,2.979-2.056,5.6-4.416,8.284-6.657,2.679-2.216,5.608-4.081,8.5-4.735a10.6,10.6,0,0,1,6.876.448c1.53.717,2.053,1.577,1.89,1.778" transform="matrix(0.914, 0.407, -0.407, 0.914, 19.7, 60.775)" fill="#fff"/>
      <path id="Path_412" data-name="Path 412" d="M41.156,79.565c-2.172.682-14.878-41.5-16.493-46.66-.4-1.289-1.462-4.7-2.832-9.1-1.418-4.4-2.729-9.88-5.358-14.2a15,15,0,0,0-4.838-5.111A12.669,12.669,0,0,0,5.963,2.588C2.408,2.287.4,3.968.061,3.53c-.194-.213.056-.936,1.03-1.731A8.538,8.538,0,0,1,5.967.031a13.735,13.735,0,0,1,7.283,1.618,17.321,17.321,0,0,1,6.338,5.962c3.27,5.007,4.613,10.688,6.037,15,1.355,4.4,2.41,7.824,2.807,9.114,1.609,5.161,15.016,47.12,12.725,47.837" transform="matrix(0.914, 0.407, -0.407, 0.914, 92.23, 24.443)" fill="#fff"/>
      <path id="Path_413" data-name="Path 413" d="M1.587,10.845c-.4.351-1.865-.976-1.54-3.562A7.315,7.315,0,0,1,1.784,3.5,9.3,9.3,0,0,1,5.827.88,25.569,25.569,0,0,1,14.171,0c2.328.028,4.116.163,4.757.2A76.52,76.52,0,0,1,30.811,1.757c5.089,1.086,9.636,2.876,9.364,3.8-.372,1.283-5.045.488-10-.16C25.219,4.692,19.939,4.188,18.7,4.132c-.62-.028-2.335-.116-4.572-.144a29.155,29.155,0,0,0-7.179.448A6.989,6.989,0,0,0,4.172,5.781,6.262,6.262,0,0,0,2.563,7.894c-.707,1.418-.432,2.638-.976,2.951" transform="matrix(0.914, 0.407, -0.407, 0.914, 21.551, 58.348)" fill="#fff"/>
      <path id="Path_414" data-name="Path 414" d="M.024,14.318c.269-.545,2.519.285,6.034.8A41.735,41.735,0,0,0,19.24,14.96C29,13.342,38.709,8.271,40.875,7.373l7.608-3.6C52.135,2.159,57.021-.335,62.6.037A15.471,15.471,0,0,1,69.884,2.6a24.3,24.3,0,0,1,4.741,4.134c2.366,2.685,3.505,4.663,3.167,4.973-.51.463-2.316-1.008-4.942-3.127C70.244,6.51,66.544,3.818,62.388,3.73c-4.175-.156-8.578,1.975-12.228,3.646l-7.6,3.562c-2.156.873-12.015,6.306-22.778,7.708a33.907,33.907,0,0,1-14.318-1C1.751,16.465-.242,14.806.024,14.318" transform="matrix(0.914, 0.407, -0.407, 0.914, 52.01, 119.221)" fill="#fff"/>
      <path id="Path_415" data-name="Path 415" d="M78.327,5.312C77.758,5.465,77,2.968,73.492,2.8A7.865,7.865,0,0,0,68.2,4.3,27.856,27.856,0,0,0,63.18,9.753a27.52,27.52,0,0,1-6.159,6.162,27.179,27.179,0,0,1-7.273,3.54,37.334,37.334,0,0,1-9.765,1.618,47.928,47.928,0,0,1-9.289-.554,57.184,57.184,0,0,1-14.559-4.281C6.317,12.015-.672,4.7.051,4.05c.9-.976,8.184,5.214,17.523,8.782a62.025,62.025,0,0,0,13.7,3.756,45.474,45.474,0,0,0,8.544.541,34.124,34.124,0,0,0,8.71-1.471,24.276,24.276,0,0,0,6.247-2.97,25.327,25.327,0,0,0,5.508-5.283,27.344,27.344,0,0,1,6.053-5.831A9.986,9.986,0,0,1,73.892.238,6.169,6.169,0,0,1,78.258,3.3c.548,1.221.322,1.972.069,2.015" transform="matrix(0.914, 0.407, -0.407, 0.914, 48.746, 128.63)" fill="#fff"/>
      <path id="Path_416" data-name="Path 416" d="M.009,17.526c.1-.588,1.321-.689,2.835-1.374a16.615,16.615,0,0,0,5.145-3.809c1.728-1.768,3.286-4.012,4.863-5.815A26.469,26.469,0,0,1,16.4,3.02a13.716,13.716,0,0,1,4.457-2.5,12.17,12.17,0,0,1,8.362.494,20,20,0,0,1,6.031,4.006C36.6,6.338,37.3,7.37,37,7.749c-.848,1.142-4.8-1.837-9.054-3.261A9.447,9.447,0,0,0,22.1,4.3a10.346,10.346,0,0,0-3.211,1.784A23.92,23.92,0,0,0,15.876,9.12a62.106,62.106,0,0,1-5.292,5.9,13.443,13.443,0,0,1-7.1,3.64c-2.272.247-3.6-.592-3.471-1.133" transform="matrix(0.914, 0.407, -0.407, 0.914, 86.602, 139.766)" fill="#fff"/>
      <path id="Path_417" data-name="Path 417" d="M16.641,81.025c-1.058.36-4.616-8.494-7.758-18.161A213.214,213.214,0,0,1,2.927,40.33a132.265,132.265,0,0,1-2.835-21.9C-.394,8.808,1.171-.136,2.1,0,3.449.174,2.9,8.927,3.784,18.21A180.712,180.712,0,0,0,6.792,39.526C7.221,41.8,9.662,52.1,12.447,61.781c2.726,9.683,5.349,18.856,4.194,19.244" transform="matrix(0.914, 0.407, -0.407, 0.914, 138.765, 128.315)" fill="#fff"/>
      <path id="Path_418" data-name="Path 418" d="M1.773,3.8C.656,4,.1,3.451.017,2.759A2.507,2.507,0,0,1,.34,1.32a2.341,2.341,0,0,1,.851-1.1,1.291,1.291,0,0,1,1.84.454c1.543,2.141,1.017,2,.945,2.175-.072.138.125.488-2.2.955" transform="matrix(0.914, 0.407, -0.407, 0.914, 128.003, 117.926)" fill="#fff"/>
      <path id="Path_419" data-name="Path 419" d="M2.326,4.271a1.374,1.374,0,0,1-2.05-.507A3.009,3.009,0,0,1,.01,2.2,2.771,2.771,0,0,1,.323.732,1.359,1.359,0,0,1,2.2.165C4.576,1.267,3.913,1.9,3.954,2.128c-.044.2.426,1-1.627,2.144" transform="matrix(0.914, 0.407, -0.407, 0.914, 125.83, 127.324)" fill="#fff"/>
      <path id="Path_420" data-name="Path 420" d="M1.6,5.432C.478,5.6-.1,4.662.015,3.6A4.047,4.047,0,0,1,.953,1.514,3.756,3.756,0,0,1,2.622.162C3.539-.208,4.515.049,4.706,1c.473,2.535-.4,2.544-.57,2.845C3.9,4.058,3.867,5,1.6,5.432" transform="matrix(0.914, 0.407, -0.407, 0.914, 138.761, 112.665)" fill="#fff"/>
      <path id="Path_421" data-name="Path 421" d="M3.991,4.449C2.317,5.986,1.093,3.986.9,3.776S-.829,2.071.6.756c1.959-1.8,3.014.144,3.2.354s1.953,1.712.185,3.339" transform="matrix(0.914, 0.407, -0.407, 0.914, 147.545, 120.963)" fill="#fff"/>
      <path id="Path_422" data-name="Path 422" d="M2.421,3.561C.255,4.259.193,2.588.133,2.4S-.505.826,1.345.231c2.532-.817,2.482.776,2.541.961s.82,1.634-1.465,2.369" transform="matrix(0.914, 0.407, -0.407, 0.914, 147.323, 134.526)" fill="#fff"/>
      <path id="Path_423" data-name="Path 423" d="M44.523,1.273c-.135.6-1.471.56-3.139,1.3a21.813,21.813,0,0,0-5.918,4.144,46.23,46.23,0,0,1-6.826,5.505,30.182,30.182,0,0,1-4.867,2.416,30.117,30.117,0,0,1-13.36,2.025c-5.968-.4-10.857-3.3-10.381-4.131.595-1.208,5.327.488,10.556.435a32.429,32.429,0,0,0,11.73-1.994,28.487,28.487,0,0,0,4.216-2.134,66.506,66.506,0,0,0,6.541-4.979c2.369-1.875,5.2-3.562,7.693-3.8,2.491-.3,3.925.707,3.756,1.217" transform="matrix(0.914, 0.407, -0.407, 0.914, 57.245, 92.563)" fill="#fff"/>
    </g>
  </g>
</svg>
