<svg xmlns="http://www.w3.org/2000/svg" width="243.705" height="258.349" viewBox="0 0 243.705 258.349">
  <g id="Group_9" data-name="Group 9" transform="translate(888.022 -2428.871) rotate(39)">
    <g id="Group_8" data-name="Group 8" transform="translate(927 2348.578)">
      <path id="Path_271" data-name="Path 271" d="M37.14-8.241c1.165,1.012-.076,1.974-.2,2.116s-1,1.282-2,.416a1.263,1.263,0,0,1-.023-2.169,1.419,1.419,0,0,1,2.222-.363" transform="translate(38.498 258.921)"/>
      <path id="Path_272" data-name="Path 272" d="M32.642-14.047c.346-.686,1.367-.5,2.211.138a5.984,5.984,0,0,1,1.528,1.8,5.544,5.544,0,0,1,.806,2.069c.161.97-.108,1.887-.762,1.912-.906.038-1.3-.584-1.634-1.176-.314-.6-.592-1.254-.686-1.4l-.972-1.354c-.414-.611-.866-1.263-.492-1.991" transform="translate(36.479 252.388)"/>
      <path id="Path_273" data-name="Path 273" d="M30.326-15.77c.6-1.42.93-.947.987-.925s.505.125-.011,1.339c-.7,1.66-.981,1.148-1.034,1.125s-.579-.038.057-1.539" transform="translate(33.685 249.8)"/>
      <path id="Path_274" data-name="Path 274" d="M25.811-15.041c-.087-1.541,1.017-1.295,1.15-1.3s1.142-.149,1.216,1.169c.1,1.8-.932,1.494-1.068,1.5s-1.21.259-1.3-1.369" transform="translate(28.964 250.288)"/>
      <path id="Path_275" data-name="Path 275" d="M22.507-13.114c-1.42-.6-.947-.93-.925-.985s.125-.507,1.339.008c1.66.7,1.146.981,1.125,1.036s-.04.577-1.539-.059" transform="translate(24.118 252.553)"/>
      <path id="Path_276" data-name="Path 276" d="M19.836-9.568c-1.157-1.021-.416-1.394-.352-1.467s.473-.664,1.462.208c1.352,1.193.6,1.49.541,1.562s-.429.775-1.651-.3" transform="translate(21.54 255.962)"/>
      <path id="Path_277" data-name="Path 277" d="M21.079-5.678c-1.43.577-1.4-.176-1.435-.255s-.35-.641.872-1.135c1.672-.675,1.577.055,1.607.134s.467.645-1.044,1.256" transform="translate(21.98 260.39)"/>
      <path id="Path_278" data-name="Path 278" d="M23.86-1.609a1.087,1.087,0,0,1-1.849.225,1.142,1.142,0,0,1-.376-1.759c1.023-1.484,1.768-.528,1.9-.441s1.256.635.329,1.976" transform="translate(23.972 264.188)"/>
      <path id="Path_279" data-name="Path 279" d="M33.016-11.918c1.515-.284,1.392.728,1.416.847s.272.993-1.025,1.235c-1.772.333-1.583-.624-1.6-.743s-.391-1.038,1.212-1.339" transform="translate(35.637 255.209)"/>
      <path id="Path_280" data-name="Path 280" d="M30.548-13.151a1.076,1.076,0,0,1,1.8-.433,1.131,1.131,0,0,1,.543,1.7c-.86,1.585-1.685.724-1.819.652s-1.295-.486-.52-1.919" transform="translate(33.989 253.027)"/>
      <path id="Path_281" data-name="Path 281" d="M29.733-11.31c.221-.739.707-.915,1.146-.775a1.7,1.7,0,0,1,.792.592,1.572,1.572,0,0,1,.45.813.886.886,0,0,1-.756,1.038c-1.73.444-1.543.079-1.634-.011-.064-.089-.41-.1,0-1.658" transform="translate(33.148 255.029)"/>
      <path id="Path_282" data-name="Path 282" d="M27.39-12.534a.833.833,0,0,1,.354-1.392,1.78,1.78,0,0,1,1.2.028,1.666,1.666,0,0,1,.949.615A.815.815,0,0,1,29.545-12c-1.647.766-1.2.775-1.307.679-.119.028.189.066-.847-1.214" transform="translate(30.471 252.904)"/>
      <path id="Path_283" data-name="Path 283" d="M28.925-15.011c1.021-1.157,1.458-.361,1.539-.293s.728.533-.144,1.522c-1.193,1.352-1.547.552-1.626.484s-.847-.492.231-1.713" transform="translate(31.824 251.094)"/>
      <path id="Path_284" data-name="Path 284" d="M26.586-14.969c-.371-.675-.153-1.144.255-1.36a1.707,1.707,0,0,1,.976-.144,1.582,1.582,0,0,1,.9.25.887.887,0,0,1,.208,1.267c-.9,1.543-1.029,1.152-1.157,1.157-.108-.017-.363.216-1.178-1.169" transform="translate(29.625 250.134)"/>
      <path id="Path_285" data-name="Path 285" d="M26.438-13.911c1.409-.628,1.6.541,1.651.671a1.078,1.078,0,0,1-.635,1.6c-1.649.734-1.751-.388-1.806-.516s-.7-1.1.79-1.759" transform="translate(28.578 252.822)"/>
      <path id="Path_286" data-name="Path 286" d="M26.174-14.8c1.422.6.826,1.227.785,1.318s-.253.819-1.469.308c-1.662-.7-1.036-1.254-1-1.346s.176-.91,1.679-.28" transform="translate(27.325 251.766)"/>
      <path id="Path_287" data-name="Path 287" d="M28.3-12.269a.879.879,0,0,1,1.42-.363,2.013,2.013,0,0,1,.654,1.034,1.879,1.879,0,0,1,.083,1.148.855.855,0,0,1-1.21.618c-1.658-.671-1.346-.692-1.386-.847-.049-.121-.223-.121.439-1.59" transform="translate(31.207 254.211)"/>
      <path id="Path_288" data-name="Path 288" d="M24.368-12.151c1.242-.917,1.46-.1,1.52-.023s.558.618-.5,1.4c-1.45,1.07-1.592.265-1.651.187s-.675-.6.635-1.564" transform="translate(26.419 254.52)"/>
      <path id="Path_289" data-name="Path 289" d="M33.421-8.894a.916.916,0,0,1,1.413.244,2,2,0,0,1,.233,1.074,1.861,1.861,0,0,1-.191,1.017.9.9,0,0,1-1.278.382c-1.592-.783-1.176-1.11-1.2-1.261.017-.136-.293-.55,1.021-1.456" transform="translate(36.327 258.41)"/>
      <path id="Path_290" data-name="Path 290" d="M34-10.441c-.577-1.43-.108-1.288-.064-1.305s.34-.229.834,1c.677,1.67.21,1.467.166,1.484s-.325.335-.936-1.174" transform="translate(37.841 255.43)"/>
      <path id="Path_291" data-name="Path 291" d="M33.872-12.847a.9.9,0,0,1,1.507.28,2.263,2.263,0,0,1,.21,1.356A2.094,2.094,0,0,1,35.143-10a.875.875,0,0,1-1.418.1c-1.133-1.375-.836-1.307-.8-1.5.011-.159-.159-.291.951-1.445" transform="translate(36.883 253.888)"/>
      <path id="Path_292" data-name="Path 292" d="M29.373-7.579A.842.842,0,0,1,30.7-8.048a1.754,1.754,0,0,1,.62.932,1.631,1.631,0,0,1,.07,1.048.822.822,0,0,1-1.2.522c-1.664-.711-1.367-.484-1.375-.62-.066-.085-.051.1.554-1.413" transform="translate(32.315 259.412)"/>
      <path id="Path_293" data-name="Path 293" d="M22.7-8.588c1.019-1.157,1.135-.643,1.176-.609s.393.236-.48,1.225c-1.193,1.352-1.252.815-1.288.781s-.486-.174.592-1.4" transform="translate(24.666 258.159)"/>
      <path id="Path_294" data-name="Path 294" d="M30.377-10.535c.507-.582,1.093-.465,1.377-.045a1.6,1.6,0,0,1,.221,1.108,1.535,1.535,0,0,1-.4,1.006.849.849,0,0,1-1.331-.1c-1.027-1.248-.94-.868-.885-.938-.036-.047-.038.233,1.017-1.029" transform="translate(32.919 256.371)"/>
      <path id="Path_295" data-name="Path 295" d="M28.628-13.153c-.047-.768.615-1.1,1.3-.923a2.454,2.454,0,0,1,1.239.823,2.294,2.294,0,0,1,.639,1.244c.1.643-.24,1.222-.9,1.174-1.762-.155-1.547-.42-1.692-.584-.119-.142-.437-.153-.59-1.734" transform="translate(32.127 252.791)"/>
      <path id="Path_296" data-name="Path 296" d="M30.162-14.529a.851.851,0,0,1,.575-1.365,1.935,1.935,0,0,1,1.282.193,1.8,1.8,0,0,1,.927.792.824.824,0,0,1-.5,1.278,6.154,6.154,0,0,0-1.339.429c-.106.072-.1-.023-.123-.034-.142,0,.093.07-.821-1.293" transform="translate(33.655 250.755)"/>
      <path id="Path_297" data-name="Path 297" d="M31.773-13.948c1.515-.284,1.392.728,1.416.845s.272.993-1.025,1.237c-1.772.333-1.583-.624-1.6-.743s-.391-1.038,1.212-1.339" transform="translate(34.242 252.93)"/>
      <path id="Path_298" data-name="Path 298" d="M26.446-15.511c.049-.768.764-1.014,1.456-.77a2.748,2.748,0,0,1,1.235.955A2.573,2.573,0,0,1,29.757-14c.091.671-.25,1.271-.9,1.229-1.745-.14-1.6-.669-1.764-.836-.106-.185-.683-.34-.643-1.906" transform="translate(29.679 250.266)"/>
      <path id="Path_299" data-name="Path 299" d="M23.108-12.547a.941.941,0,0,1,.361-1.511,2.488,2.488,0,0,1,1.36-.246,2.3,2.3,0,0,1,1.248.346.919.919,0,0,1,.318,1.407c-1.127,1.354-1.413.906-1.615.921-.174-.036-.632.274-1.672-.917" transform="translate(25.655 252.576)"/>
      <path id="Path_300" data-name="Path 300" d="M27.928-9.741c-.053-.773.664-1.091,1.335-.8A2.1,2.1,0,0,1,30.286-9.5a1.97,1.97,0,0,1,.248,1.348.836.836,0,0,1-1.259.69c-.783-.435-1.1-.654-1.25-.632-.125,0-.064-.083-.079-.106s-.079-.045-.028-.193a4.1,4.1,0,0,0,.008-1.343" transform="translate(31.314 256.693)"/>
      <path id="Path_301" data-name="Path 301" d="M22.92-13.6c1.492-.125,1.452.541,1.585.658.055.134.6.45.178,1.658-.327.838-.913.993-1.411.781a2.025,2.025,0,0,1-.868-.785,2.149,2.149,0,0,1-.526-1.116A1.032,1.032,0,0,1,22.92-13.6" transform="translate(24.545 253.359)"/>
      <path id="Path_302" data-name="Path 302" d="M32.466-10.78a.878.878,0,0,1,1.418-.391,2.009,2.009,0,0,1,.677,1.038,1.864,1.864,0,0,1,.1,1.161.852.852,0,0,1-1.205.63c-1.658-.675-1.352-.683-1.39-.84-.055-.121-.216-.11.4-1.6" transform="translate(35.918 255.861)"/>
      <path id="Path_303" data-name="Path 303" d="M32.364-11.647a.9.9,0,0,1,.153-1.452,2.061,2.061,0,0,1,1.15-.293,1.915,1.915,0,0,1,1.1.221.88.88,0,0,1,.327,1.314c-.961,1.5-1.1,1.121-1.265,1.135-.136-.008-.378.253-1.46-.925" transform="translate(35.991 253.603)"/>
      <path id="Path_304" data-name="Path 304" d="M27.82-14.636a.868.868,0,0,1-.236-1.492,2.058,2.058,0,0,1,1.227-.569,1.927,1.927,0,0,1,1.263.149.839.839,0,0,1,.335,1.358,13.264,13.264,0,0,0-.921,1.08c-.076.112-.151.036-.18.04-.136.068.013.064-1.488-.567" transform="translate(30.597 249.851)"/>
      <path id="Path_305" data-name="Path 305" d="M26.664-14.313a.846.846,0,0,1,1.458-.008,1.89,1.89,0,0,1,.3,1.2,1.745,1.745,0,0,1-.346,1.112.816.816,0,0,1-1.348.04c-1.167-1.388-1.042-.985-.983-1.138-.049-.119-.032.129.915-1.208" transform="translate(28.859 252.105)"/>
      <path id="Path_306" data-name="Path 306" d="M24.19-11.339c-.577-1.43.6-1.575.73-1.628a1.079,1.079,0,0,1,1.581.694c.675,1.67-.45,1.734-.579,1.787s-1.121.656-1.732-.853" transform="translate(26.971 253.936)"/>
      <path id="Path_307" data-name="Path 307" d="M31.246-9.374c-.021-.773.673-1.065,1.316-.787a2.089,2.089,0,0,1,1.006,1,1.951,1.951,0,0,1,.272,1.3.833.833,0,0,1-1.222.728,4.82,4.82,0,0,0-1.282-.571c-.127-.011-.07-.093-.083-.117-.138-.1.066.091-.006-1.549" transform="translate(35.02 257.122)"/>
      <path id="Path_308" data-name="Path 308" d="M31.008-7.979c.18-.751.73-.921,1.133-.722a1.442,1.442,0,0,1,.662.783,1.384,1.384,0,0,1,.123.993.912.912,0,0,1-1.231.584A5.076,5.076,0,0,0,30.573-6.6c-.051-.019.062.221.435-1.377" transform="translate(34.286 258.789)"/>
      <path id="Path_309" data-name="Path 309" d="M32.579-9.5c-.236-.732.308-1.22,1.014-1.314a3.021,3.021,0,0,1,1.53.244,2.8,2.8,0,0,1,1.222.792c.437.495.535,1.161,0,1.539-1.439.974-1.87.225-2.114.191A1.98,1.98,0,0,1,32.579-9.5" transform="translate(36.502 256.48)"/>
      <path id="Path_310" data-name="Path 310" d="M24.9-3.081c.34-1.5.942-1.053,1.025-1.034s.726.079.433,1.365c-.4,1.757-.942,1.261-1.023,1.244s-.8.015-.435-1.575" transform="translate(27.838 263.936)"/>
      <path id="Path_311" data-name="Path 311" d="M21.887-11.649c1.441.363,1.276.9,1.411,1.065a1.751,1.751,0,0,1,.233,1.7,1.017,1.017,0,0,1-1.522.741,2.305,2.305,0,0,1-.981-1.023,2.434,2.434,0,0,1-.439-1.42,1.019,1.019,0,0,1,1.3-1.061" transform="translate(23.105 255.528)"/>
      <path id="Path_312" data-name="Path 312" d="M23.2-11.3c1.43-.577,1.43.244,1.464.331s.38.715-.843,1.21c-1.67.675-1.6-.121-1.636-.206s-.5-.724,1.014-1.335" transform="translate(24.791 255.735)"/>
      <path id="Path_313" data-name="Path 313" d="M33.673-1.9a1.351,1.351,0,0,1,.214-2.016A1.448,1.448,0,0,1,35.7-4.64c1.732.671.526,2.167.35,2.3-.07.221-1.339,1.776-2.375.441" transform="translate(37.37 263.31)"/>
      <path id="Path_314" data-name="Path 314" d="M27.428-.34c.806-1.3.894-.966.991-.964.068.017.287-.087.777,1.125.669,1.749-.864,1.643-.985,1.541a1.254,1.254,0,0,1-.792-.263c-.306-.261-.41-.741.008-1.439" transform="translate(30.473 267.134)"/>
      <path id="Path_315" data-name="Path 315" d="M27.926-4.518c1.063-1.1,1.144-.688,1.231-.662.059.04.386.036.323,1.341-.112,1.844-1.286,1.22-1.369,1.121-.144.008-1.356-.592-.185-1.8" transform="translate(30.775 262.72)"/>
      <path id="Path_316" data-name="Path 316" d="M31.771-4.565c.836-1.367,1.469-.352,1.458-.236.11.066.507,1.025-.853,1.2a8.565,8.565,0,0,0-1.39.242c-.025-.019-.045.2.785-1.21" transform="translate(34.748 262.724)"/>
      <path id="Path_317" data-name="Path 317" d="M26.006-8.22c1.057-1.182,1.564-.085,1.568.03.1.083.52,1.048-.813,1.3-1.762.344-1.484.068-1.524,0s-.3-.112.768-1.331" transform="translate(28.269 258.805)"/>
      <path id="Path_318" data-name="Path 318" d="M22.429-5.11c1.312-.813,1.356-.157,1.394-.1s.393.475-.73,1.169c-1.53.951-1.5.3-1.543.238s-.505-.454.879-1.312" transform="translate(24.066 262.453)"/>
      <path id="Path_319" data-name="Path 319" d="M26.172-11.991a.905.905,0,0,1,1.305-.8,2.256,2.256,0,0,1,1.057.853,2.1,2.1,0,0,1,.495,1.178.878.878,0,0,1-.964,1.038c-1.768-.2-1.513-.4-1.621-.55-.1-.127-.35-.127-.272-1.723" transform="translate(29.357 254.206)"/>
      <path id="Path_320" data-name="Path 320" d="M24.675-11.69a.824.824,0,0,1,.626-1.341,1.844,1.844,0,0,1,1.278.327,1.7,1.7,0,0,1,.794.923.842.842,0,0,1-.751,1.144c-1.768.18-1.335.329-1.388.244-.015-.006-.015.059.013-.161.049-.068-.108-.482-.571-1.135" transform="translate(27.486 253.993)"/>
      <path id="Path_321" data-name="Path 321" d="M26.075-13c.333-1.5,1.276-.981,1.4-.955s1.08.155.794,1.443c-.391,1.759-1.252,1.195-1.373,1.167S25.72-11.406,26.075-13" transform="translate(29.183 252.859)"/>
      <path id="Path_322" data-name="Path 322" d="M24.531-12.777c-.556-.537-.524-1-.276-1.256a1.091,1.091,0,0,1,.728-.274,1.031,1.031,0,0,1,.741.127c.314.193.458.62.225,1.244a6.064,6.064,0,0,0-.427,1.208c-.034.025.2.074-.991-1.048" transform="translate(27.031 252.561)"/>
      <path id="Path_323" data-name="Path 323" d="M31.08-3.9a.806.806,0,0,1,.864-1.116,1.7,1.7,0,0,1,1.087.679,1.708,1.708,0,0,1,.456,1.212.9.9,0,0,1-1.205.87c-1.135-.393-.942-.127-.932-.223-.066.006.191.157-.27-1.422" transform="translate(34.825 263.002)"/>
      <path id="Path_324" data-name="Path 324" d="M25-11.68a.912.912,0,0,1,1.558-.223,2.362,2.362,0,0,1,.675,1.3,2.188,2.188,0,0,1-.07,1.371.883.883,0,0,1-1.365.52c-1.422-1.068-1.142-1.048-1.165-1.256-.049-.17-.219-.221.367-1.711" transform="translate(27.576 254.905)"/>
      <path id="Path_325" data-name="Path 325" d="M24.315-.655c.586-1.426,1.592-.679,1.73-.624a1.124,1.124,0,0,1,.713,1.63c-.686,1.668-1.594.9-1.73.845S23.693.85,24.315-.655" transform="translate(27.09 266.932)"/>
      <path id="Path_326" data-name="Path 326" d="M23.208-13.365a.985.985,0,0,1-.261-1.507,2.674,2.674,0,0,1,.993-.787,2.441,2.441,0,0,1,1.133-.371.963.963,0,0,1,1.11.883c.151,1.753-.749,1.668-.9,1.8a1.578,1.578,0,0,1-2.078-.017" transform="translate(25.484 250.647)"/>
      <path id="Path_327" data-name="Path 327" d="M23.709-7.62c.076-.77.444-1.034.741-1.021a.868.868,0,0,1,.577.325c.151.021.838.983-.49,1.581a8.121,8.121,0,0,0-1.048.539c-.034-.008.053.2.221-1.424" transform="translate(26.343 258.943)"/>
      <path id="Path_328" data-name="Path 328" d="M24.976-5.656c.144-.758.669-.964,1.146-.781a1.628,1.628,0,0,1,.785.711,1.522,1.522,0,0,1,.314.947A.821.821,0,0,1,26.2-4c-1.8-.216-1.443-.064-1.477-.185-.079-.055-.008.14.25-1.475" transform="translate(27.716 261.347)"/>
      <path id="Path_329" data-name="Path 329" d="M31.643-1.867c.607-.473,1.059-.393,1.3-.091a1.222,1.222,0,0,1,.229.766,1.116,1.116,0,0,1-.146.743c-.191.306-.6.452-1.2.18C30.2-1.037,30.5-.837,30.512-.92c-.021-.059-.132.089,1.131-.947" transform="translate(34.212 266.169)"/>
      <path id="Path_330" data-name="Path 330" d="M118.144-124.25c.189.036.013,1.853-.469,5.034s-1.252,7.725-2.458,13.188A129.192,129.192,0,0,1,109.792-87.5,98.523,98.523,0,0,1,99.24-67.489c-4.323,6.48-9.185,12.664-13.74,18.628-2.277,2.982-4.493,5.9-6.5,8.8-2.033,2.884-4.039,5.628-5.741,8.354C69.674-26.366,66.845-21.43,64.51-17.55c-2.169,3.973-3.782,6.923-4.633,8.483C59.049-7.5,57.638-4.578,55.715-.722c-.976,1.921-1.9,4.162-3.005,6.56L51.021,9.593q-.805,1.98-1.66,4.086A273.77,273.77,0,0,0,36.678,52.941,287.788,287.788,0,0,0,30.2,91.033c-.255,2.568-.486,4.92-.692,7.01-.144,2.067-.274,3.873-.378,5.386-.242,2.98-.448,4.669-.613,4.665-.225,0-.35-1.7-.4-4.7,0-1.543-.008-3.36-.013-5.433.108-2.116.233-4.489.365-7.076a242.7,242.7,0,0,1,5.769-38.52,261.609,261.609,0,0,1,12.626-39.7q.866-2.123,1.677-4.126l1.708-3.793C51.364,2.319,52.3.057,53.289-1.883,55.238-5.775,56.7-8.7,57.507-10.306c.857-1.577,2.483-4.561,4.669-8.576C64.525-22.8,67.378-27.8,71-33.189c1.725-2.753,3.752-5.527,5.811-8.436,2.031-2.933,4.277-5.873,6.571-8.857,4.591-5.966,9.451-12.082,13.759-18.418A100.163,100.163,0,0,0,107.71-88.318a145.437,145.437,0,0,0,5.8-18.116c2.714-10.76,4.187-17.906,4.635-17.815" transform="translate(31.542 129.19)"/>
      <path id="Path_331" data-name="Path 331" d="M70.114,30.713c-.14.132-.845-.441-1.989-1.562A44.952,44.952,0,0,1,63.652,24.2,84.436,84.436,0,0,1,52.811,6.516,93.4,93.4,0,0,1,45.954-14.5c-.3-1.588-.63-3.08-.86-4.463-.174-1.394-.335-2.67-.48-3.8s-.263-2.114-.365-2.927c-.045-.819-.083-1.464-.106-1.912-.053-.891-.146-2.519-.272-4.684-.019-2.167.013-4.877.106-7.921a102.705,102.705,0,0,1,3.381-20.468A92.423,92.423,0,0,1,50.9-70.527a56.368,56.368,0,0,1,3.939-8.037c2.685-4.514,5.367-6.777,5.571-6.55.344.329-1.821,2.867-4.054,7.394a71.305,71.305,0,0,0-3.4,8.025c-1.254,2.969-2.139,6.329-3.184,9.686a110,110,0,0,0-3.109,19.941c-.087,2.961-.121,5.6-.112,7.708.117,2.107.206,3.691.255,4.561.023.435.062,1.063.108,1.859.1.792.225,1.751.367,2.85s.3,2.341.475,3.7c.223,1.348.545,2.8.838,4.344A97.97,97.97,0,0,0,55.114,5.476a103.722,103.722,0,0,0,9.941,17.666c1.452,2.322,2.976,4,3.841,5.331.91,1.3,1.367,2.1,1.218,2.239" transform="translate(49.233 173.097)"/>
      <path id="Path_332" data-name="Path 332" d="M46.864-71.851c.344.236-1.246,2.409-.4,6.272a56.244,56.244,0,0,0,1.9,6.611,60.035,60.035,0,0,0,3,7.443c2.394,5.021,5.44,9.977,7.753,14.139,2.369,4.136,3.926,7.532,4.47,8.748a48.609,48.609,0,0,1,3.048,8.99,36.116,36.116,0,0,1,.83,7.526c-.008,2.676-.31,5.393-.577,8.016a58.768,58.768,0,0,0-.424,7.5,24.28,24.28,0,0,0,.919,6.208c1.008,3.523,2.757,5.312,2.473,5.571-.231.318-2.581-1.225-4.111-5a22.1,22.1,0,0,1-1.494-6.66,50.462,50.462,0,0,1,.14-7.844c.2-2.653.446-5.3.424-7.789a34.978,34.978,0,0,0-.811-6.944,47.127,47.127,0,0,0-2.859-8.489c-.526-1.172-2.042-4.414-4.381-8.513-2.288-4.119-5.331-9.132-7.691-14.4a53.74,53.74,0,0,1-2.863-7.88,41.863,41.863,0,0,1-1.486-7.006,9.258,9.258,0,0,1,.783-5.1c.6-1.114,1.22-1.515,1.354-1.4" transform="translate(50.136 187.98)"/>
      <path id="Path_333" data-name="Path 333" d="M15.2-54.569c-.045-.424,3.391-.921,8.46-2.313a92.9,92.9,0,0,0,18.18-7.269c13-6.715,24.965-16.809,27.529-18.978a201.906,201.906,0,0,0,22.348-22.41c8.961-10.423,15.85-21.385,16.427-21.03.766.435-5.622,11.877-14.5,22.635A173.96,173.96,0,0,1,80.1-89.236c-4.211,4.083-7.693,7.027-9,8.143-2.6,2.2-14.646,12.535-28.11,19.19a76.571,76.571,0,0,1-18.921,6.726c-5.3,1.038-8.844.972-8.871.607" transform="translate(17.061 126.578)"/>
      <path id="Path_334" data-name="Path 334" d="M33.5-75.058c-.753.045-1.21-3.939-.467-8.114a36.068,36.068,0,0,1,2.944-9.152,34.419,34.419,0,0,1,4.828-7.667c2.5-3.063,5.571-5.174,5.968-4.673.586.711-1.876,3.2-3.99,6.216A46.073,46.073,0,0,0,38.4-91.2a47.075,47.075,0,0,0-2.891,8.513c-.955,3.829-1.182,7.594-2.012,7.626" transform="translate(36.651 151.09)"/>
      <path id="Path_335" data-name="Path 335" d="M27.931-49.209c-.27-.337.851-1.36,1.742-3.343a17.644,17.644,0,0,0,1.4-7.991,50.876,50.876,0,0,0-1.358-8.982c-.562-2.685-.87-4.843-.944-5.626a23.977,23.977,0,0,1-.055-5.62,17.352,17.352,0,0,1,3.6-8.6,30.242,30.242,0,0,1,6.114-5.824c1.806-1.3,3.084-1.991,3.288-1.74.289.354-.649,1.486-2.158,3.06a51.414,51.414,0,0,0-5.217,5.981,16.008,16.008,0,0,0-2.95,7.428,22.367,22.367,0,0,0,.036,5c.068.722.38,2.727.936,5.391a43.845,43.845,0,0,1,1.235,9.5,16.08,16.08,0,0,1-2.4,8.893c-1.452,2.124-3.075,2.765-3.266,2.468" transform="translate(31.302 159.796)"/>
      <path id="Path_336" data-name="Path 336" d="M40.308-97.257c.4.062.395,1.577.843,3.807.414,2.245,1.422,5.193,2.369,8.421A28.249,28.249,0,0,1,44.7-75.263a35.614,35.614,0,0,1-.834,5.826A35.731,35.731,0,0,1,37.71-56.1,25.813,25.813,0,0,1,31.5-50.179a11.208,11.208,0,0,1-2.439,1.295c-.622.238-1,.306-1.082.161-.244-.446.917-1.32,2.462-2.829a38.1,38.1,0,0,0,5.238-6.021,37.773,37.773,0,0,0,5.58-12.458,34.425,34.425,0,0,0,.745-5.367,28.809,28.809,0,0,0-.93-8.98,44.7,44.7,0,0,1-1.67-8.869c-.076-2.506.522-4.079.9-4.009" transform="translate(31.368 159.483)"/>
      <path id="Path_337" data-name="Path 337" d="M28.876-105.181c.327-.722,4.158.675,8.409,1.14a40.22,40.22,0,0,0,9.731.015,39.187,39.187,0,0,0,8.89-2.33c3.769-1.38,6.94-3.5,7.36-2.961.56.673-2.411,3.5-6.371,5.266a32.091,32.091,0,0,1-9.519,2.676,33.694,33.694,0,0,1-10.467-.168c-4.559-.79-8.385-2.927-8.033-3.638" transform="translate(32.383 145.853)"/>
      <path id="Path_338" data-name="Path 338" d="M14.622-101.048c-.208-.32,1.121-1.522,3.332-3.137a53.809,53.809,0,0,1,8.863-5.242,32.346,32.346,0,0,1,10.767-2.982,24.781,24.781,0,0,1,6.783.3,19.891,19.891,0,0,1,6.174,2.18c2.84,1.541,5.469,4.228,8.131,6.282a12.992,12.992,0,0,0,7.967,3.128c2.3-.008,3.608-1.023,3.839-.73.318.244-.828,1.974-3.693,2.46-2.772.511-6.643-.579-9.6-2.835-2.99-2.15-5.533-4.665-7.952-5.947a17.687,17.687,0,0,0-5.348-1.908,22.811,22.811,0,0,0-6.061-.242,33.1,33.1,0,0,0-9.986,2.6c-3.387,1.4-6.55,3.171-8.952,4.419s-4.043,1.995-4.264,1.649" transform="translate(16.387 142.364)"/>
      <path id="Path_339" data-name="Path 339" d="M63.813-104.789c.229.244-.671,1.56-2.591,3.024a22.472,22.472,0,0,1-8.118,3.8,29.776,29.776,0,0,1-9.521.69,36.226,36.226,0,0,1-5.605-.923,39.119,39.119,0,0,1-5.149-1.592c-2.466-.91-5.227-2.407-7.865-3.7a28.764,28.764,0,0,0-7.224-2.649c-1.993-.365-3.372-.265-3.44-.62-.1-.4,1.29-1.1,3.614-1.108a21.38,21.38,0,0,1,8.1,2.1c2.8,1.216,5.5,2.627,7.774,3.455A39.106,39.106,0,0,0,38.6-100.8a35.219,35.219,0,0,0,5.206.832,31.219,31.219,0,0,0,8.729-.458,29.3,29.3,0,0,0,7.736-2.816c1.991-1.029,3.239-1.889,3.544-1.549" transform="translate(16.043 147.586)"/>
      <path id="Path_340" data-name="Path 340" d="M48.621-89.42c-.758.025-1.144-3.8-.554-7.825a40.985,40.985,0,0,1,2.39-8.935,38.917,38.917,0,0,1,3.956-7.776c2.071-3.186,4.671-5.631,5.145-5.2.69.609-1.29,3.368-3.005,6.507a58.4,58.4,0,0,0-3.593,7.418,59.432,59.432,0,0,0-2.4,8.4c-.821,3.744-1.11,7.386-1.938,7.4" transform="translate(53.625 134.855)"/>
      <path id="Path_341" data-name="Path 341" d="M53.9-63.335c-.407-.053-.461-1.4-.777-3.362a36.488,36.488,0,0,0-1.989-7.195c-.985-2.632-2.209-5.321-3.141-7.573s-1.594-4.03-1.8-4.718c-.446-1.273-2.284-7.224-.944-12.961a12.465,12.465,0,0,1,3.74-6.779c1.626-1.38,3.005-1.677,3.116-1.422.229.439-.785,1.218-1.872,2.63a13.508,13.508,0,0,0-2.523,6.061,25.968,25.968,0,0,0,1.023,11.628c.17.6.834,2.307,1.753,4.514s2.124,4.958,3.031,7.781a23.808,23.808,0,0,1,1.356,7.914c-.07,2.186-.6,3.536-.974,3.481" transform="translate(50.251 148.073)"/>
      <path id="Path_342" data-name="Path 342" d="M47.965-106.731c.3-.219,1.282.683,2.485,2.32A29.6,29.6,0,0,1,53.9-97.69a42.106,42.106,0,0,1,2.383,12.6,41.014,41.014,0,0,1-1.218,12.019A30.662,30.662,0,0,1,52.6-66.489c-.925,1.647-1.683,2.619-1.965,2.47-.41-.214-.159-1.42.363-3.139.454-1.749,1.176-4.037,1.619-6.475a48.5,48.5,0,0,0,.989-11.348,48.7,48.7,0,0,0-2.1-11.885,62.093,62.093,0,0,0-2.581-6.66c-.8-1.749-1.312-2.956-.968-3.2" transform="translate(53.711 148.817)"/>
      <path id="Path_343" data-name="Path 343" d="M17.755-86.969c-.057-.783,4.962-1.469,10.153-2.757a103.269,103.269,0,0,0,11.7-3.544,100.923,100.923,0,0,0,10.506-4.773c4.465-2.271,8.426-4.854,8.829-4.31.535.7-3.13,3.9-7.609,6.5a68.134,68.134,0,0,1-10.771,5.081A71.5,71.5,0,0,1,28.448-87.26c-5.427,1.061-10.641,1.089-10.692.291" transform="translate(19.927 153.683)"/>
      <path id="Path_344" data-name="Path 344" d="M69.059-.421C68.7-.364,67.9-3.741,67.067-8.985A180.172,180.172,0,0,1,65.29-28.721a224.715,224.715,0,0,1,1.42-33.669,215.173,215.173,0,0,1,5.928-31.237,180.516,180.516,0,0,1,5.652-17.615c1.834-4.6,3.2-7.526,3.5-7.409.429.166-.41,3.283-1.855,7.976C78.58-105.951,76.645-99.633,75.066-93a251.009,251.009,0,0,0-5.7,30.919,258.138,258.138,0,0,0-1.551,33.287c.1,7.29.628,14.353,1,19.608.431,5.246.669,8.7.248,8.765" transform="translate(73.103 135.471)"/>
      <path id="Path_345" data-name="Path 345" d="M67.454,5.224c-.365-.142.456-2.91,1.832-7.074s3.268-9.737,4.7-15.58a69.831,69.831,0,0,0,2.222-16.93,47.2,47.2,0,0,0-1.087-10.077,83.317,83.317,0,0,0-2.727-9.393c-1.524-4.514-3.71-9.992-5.229-15.595A44.767,44.767,0,0,1,65.4-84.911c.388-4.215,1.56-6.758,1.829-6.66.469.14-.121,2.746-.1,6.745a52.816,52.816,0,0,0,2.441,14.718c1.594,5.37,3.807,10.813,5.363,15.4a83.173,83.173,0,0,1,2.8,9.7,49.174,49.174,0,0,1,1.172,10.631,66.564,66.564,0,0,1-2.475,17.571,116.44,116.44,0,0,1-5.5,15.576c-1.759,4.047-3.1,6.6-3.476,6.454" transform="translate(73.261 165.864)"/>
      <path id="Path_346" data-name="Path 346" d="M69.886-3.976c-.429-.072-.238-2.324-.482-5.713a69.626,69.626,0,0,0-2.36-12.537c-1.254-4.625-2.708-9.415-3.6-13.434a59.232,59.232,0,0,1-1.284-8.381,41.889,41.889,0,0,1,.244-8.139,116.048,116.048,0,0,1,2.655-12.864c2.146-8.795,4.33-17.011,4.973-16.864.879.2-.652,8.562-2.528,17.42-.942,4.44-1.993,8.944-2.426,12.632a40.591,40.591,0,0,0-.25,7.621,58.685,58.685,0,0,0,1.252,7.984c.855,3.892,2.262,8.653,3.408,13.4a50.481,50.481,0,0,1,1.67,13.122C71-6.143,70.234-3.906,69.886-3.976" transform="translate(69.662 176.71)"/>
      <path id="Path_347" data-name="Path 347" d="M19.01,11.072c-.278-.293,1.585-2.443,4.448-5.682C26.279,2.109,30.069-2.3,33.66-7.1A240.022,240.022,0,0,0,48.839-29.938c1.441-2.371,7.246-12.793,12.174-22.915,5.007-10.079,9.434-19.7,10.06-19.424.806.348-3.012,10.247-7.8,20.508-4.7,10.3-10.665,20.782-12.121,23.176A198.68,198.68,0,0,1,35.662-5.553,124.81,124.81,0,0,1,24.732,6.6c-3.19,3-5.457,4.756-5.722,4.474" transform="translate(21.305 187.516)"/>
      <path id="Path_348" data-name="Path 348" d="M21.953-36.923c-.093-.785,4.68-1.677,9.413-3.616a53.76,53.76,0,0,0,10.291-5.418,45.746,45.746,0,0,0,8.148-7.3,56.1,56.1,0,0,0,3.916-5.066c.949-1.435,1.647-2.366,1.959-2.231.4.174.206,1.36-.441,3.071a25.291,25.291,0,0,1-3.5,5.819,38.6,38.6,0,0,1-8.549,7.9,44.724,44.724,0,0,1-10.945,5.6c-5.108,1.785-10.217,2.037-10.291,1.246" transform="translate(24.637 200.664)"/>
      <path id="Path_349" data-name="Path 349" d="M0-30.41c.019-.191.613-.333,1.628-.433.507-.051,1.118-.091,1.819-.119L5.792-31.3a49.5,49.5,0,0,0,12.39-3.75c4.461-1.938,8.912-4.366,12.59-6.282,3.665-1.946,6.586-3.336,7.634-3.829a78.926,78.926,0,0,1,7.611-3.118l3.022-.908c1.063-.276,2.195-.482,3.332-.732,2.3-.454,4.68-.607,6.938-.872,1.133-.129,2.239-.282,3.3-.488.531-.1,1.044-.221,1.551-.348l1.6-.384a45.235,45.235,0,0,0,5.4-1.454,9.863,9.863,0,0,0,3.211-1.785c.632-.586.9-1.044,1.08-.976s.233.692-.306,1.626a8.036,8.036,0,0,1-3.294,2.729,32.527,32.527,0,0,1-5.535,2.006c-.5.151-1.008.3-1.522.456-.548.168-1.112.327-1.683.461-1.14.272-2.309.475-3.474.645a58.594,58.594,0,0,0-12.755,2.579c-3.593,1.263-6.316,2.506-7.339,2.986s-3.856,1.861-7.513,3.8c-3.667,1.906-8.192,4.338-12.868,6.221a40.265,40.265,0,0,1-13.2,3.169c-.919.015-1.755.023-2.487.008-.739-.091-1.375-.185-1.893-.282-1.036-.191-1.6-.388-1.581-.59" transform="translate(0 205.533)"/>
      <path id="Path_350" data-name="Path 350" d="M76.977-58.3c.327.023.289,2.78-1.719,6.322-1.953,3.538-5.862,7.386-10.366,10.419a88.049,88.049,0,0,1-13.57,7.452A92.131,92.131,0,0,1,42.688-30.8c-1.18.414-4.336,1.411-8.475,2.407A92.153,92.153,0,0,1,19.879-26.23c-10.107.8-19.509-.811-19.4-1.426.119-.93,9.387-.021,19.186-1.072a107.775,107.775,0,0,0,13.927-2.286c4.024-.978,7.1-1.919,8.247-2.32s4.372-1.454,8.385-3.249a99,99,0,0,0,13.256-7.076,37.573,37.573,0,0,0,10.289-9.258c2.165-3.022,2.753-5.482,3.2-5.386" transform="translate(0.539 203.203)"/>
    </g>
  </g>
</svg>
