<svg xmlns="http://www.w3.org/2000/svg" width="22" height="22" viewBox="0 0 22 22">
  <g id="Group_14" data-name="Group 14" transform="translate(-509 -2806.841)" style="isolation: isolate">
    <g id="Group_13" data-name="Group 13" transform="translate(509 2806.841)">
      <path id="Path_424" data-name="Path 424" d="M11-503.841c-2.987,0-3.362.013-4.535.066a8.073,8.073,0,0,0-2.67.511,5.392,5.392,0,0,0-1.948,1.269,5.393,5.393,0,0,0-1.269,1.948,8.074,8.074,0,0,0-.511,2.67C.013-496.2,0-495.828,0-492.841s.013,3.362.066,4.535a8.074,8.074,0,0,0,.511,2.67,5.392,5.392,0,0,0,1.269,1.948,5.392,5.392,0,0,0,1.948,1.269,8.076,8.076,0,0,0,2.67.511c1.173.054,1.548.066,4.535.066s3.362-.013,4.535-.066a8.075,8.075,0,0,0,2.67-.511,5.392,5.392,0,0,0,1.948-1.269,5.392,5.392,0,0,0,1.269-1.948,8.074,8.074,0,0,0,.511-2.67c.054-1.173.066-1.548.066-4.535s-.013-3.362-.066-4.535a8.074,8.074,0,0,0-.511-2.67,5.393,5.393,0,0,0-1.269-1.948,5.393,5.393,0,0,0-1.948-1.269,8.073,8.073,0,0,0-2.67-.511C14.362-503.828,13.987-503.841,11-503.841Zm0,1.982c2.937,0,3.285.011,4.445.064a6.086,6.086,0,0,1,2.043.379,3.408,3.408,0,0,1,1.265.823,3.408,3.408,0,0,1,.823,1.265,6.085,6.085,0,0,1,.379,2.043c.053,1.16.064,1.508.064,4.445s-.011,3.285-.064,4.445a6.086,6.086,0,0,1-.379,2.043,3.408,3.408,0,0,1-.823,1.265,3.407,3.407,0,0,1-1.265.823,6.085,6.085,0,0,1-2.043.379c-1.16.053-1.508.064-4.445.064s-3.285-.011-4.445-.064a6.085,6.085,0,0,1-2.043-.379,3.407,3.407,0,0,1-1.265-.823,3.408,3.408,0,0,1-.823-1.265,6.087,6.087,0,0,1-.379-2.043c-.053-1.16-.064-1.508-.064-4.445s.011-3.285.064-4.445a6.086,6.086,0,0,1,.379-2.043,3.408,3.408,0,0,1,.823-1.265,3.409,3.409,0,0,1,1.265-.823,6.086,6.086,0,0,1,2.043-.379C7.715-501.848,8.063-501.859,11-501.859Z" transform="translate(0 503.841)" fill="#fff"/>
      <path id="Path_425" data-name="Path 425" d="M127.726-372.759a3.356,3.356,0,0,1-3.356-3.356,3.356,3.356,0,0,1,3.356-3.356,3.356,3.356,0,0,1,3.356,3.356A3.356,3.356,0,0,1,127.726-372.759Zm0-8.526a5.17,5.17,0,0,0-5.17,5.17,5.17,5.17,0,0,0,5.17,5.17,5.17,5.17,0,0,0,5.17-5.17A5.17,5.17,0,0,0,127.726-381.285Z" transform="translate(-116.726 387.115)" fill="#fff"/>
      <path id="Path_426" data-name="Path 426" d="M359.042-415.188a1.438,1.438,0,0,1-1.438,1.438,1.438,1.438,0,0,1-1.438-1.438,1.438,1.438,0,0,1,1.438-1.438A1.438,1.438,0,0,1,359.042-415.188Z" transform="translate(-340.804 420.388)" fill="#fff"/>
    </g>
  </g>
</svg>
