<?xml version="1.0" encoding="UTF-8" standalone="no"?>
<!DOCTYPE svg PUBLIC "-//W3C//DTD SVG 1.1//EN" "http://www.w3.org/Graphics/SVG/1.1/DTD/svg11.dtd">
<svg width="100%" height="100%" viewBox="0 0 22 22" version="1.1" xmlns="http://www.w3.org/2000/svg" xmlns:xlink="http://www.w3.org/1999/xlink" xml:space="preserve" xmlns:serif="http://www.serif.com/" style="fill-rule:evenodd;clip-rule:evenodd;stroke-linejoin:round;stroke-miterlimit:2;">
    <g id="Group_14">
        <g id="Group_13">
            <g id="Path_424" transform="matrix(1,0,0,1,0,503.841)">
                <path d="M11,-503.841C8.013,-503.841 7.638,-503.828 6.465,-503.775C5.553,-503.757 4.65,-503.584 3.795,-503.264C3.061,-502.988 2.396,-502.555 1.847,-501.995C1.287,-501.446 0.854,-500.781 0.578,-500.047C0.258,-499.192 0.085,-498.289 0.067,-497.377C0.013,-496.2 0,-495.828 0,-492.841C0,-489.854 0.013,-489.479 0.066,-488.306C0.084,-487.394 0.257,-486.491 0.577,-485.636C0.853,-484.902 1.286,-484.237 1.846,-483.688C2.395,-483.128 3.06,-482.695 3.794,-482.419C4.649,-482.099 5.552,-481.926 6.464,-481.908C7.637,-481.854 8.012,-481.842 10.999,-481.842C13.986,-481.842 14.361,-481.855 15.534,-481.908C16.446,-481.926 17.349,-482.099 18.204,-482.419C18.938,-482.695 19.603,-483.128 20.152,-483.688C20.712,-484.237 21.145,-484.902 21.421,-485.636C21.741,-486.491 21.914,-487.394 21.932,-488.306C21.986,-489.479 21.998,-489.854 21.998,-492.841C21.998,-495.828 21.985,-496.203 21.932,-497.376C21.914,-498.288 21.741,-499.191 21.421,-500.046C21.145,-500.78 20.712,-501.445 20.152,-501.994C19.603,-502.554 18.938,-502.987 18.204,-503.263C17.349,-503.583 16.446,-503.756 15.534,-503.774C14.362,-503.828 13.987,-503.841 11,-503.841ZM11,-501.859C13.937,-501.859 14.285,-501.848 15.445,-501.795C16.143,-501.787 16.834,-501.659 17.488,-501.416C17.966,-501.24 18.398,-500.958 18.753,-500.593C19.118,-500.238 19.4,-499.806 19.576,-499.328C19.819,-498.674 19.947,-497.983 19.955,-497.285C20.008,-496.125 20.019,-495.777 20.019,-492.84C20.019,-489.903 20.008,-489.555 19.955,-488.395C19.947,-487.697 19.819,-487.006 19.576,-486.352C19.4,-485.874 19.118,-485.442 18.753,-485.087C18.398,-484.722 17.966,-484.44 17.488,-484.264C16.834,-484.021 16.143,-483.893 15.445,-483.885C14.285,-483.832 13.937,-483.821 11,-483.821C8.063,-483.821 7.715,-483.832 6.555,-483.885C5.857,-483.893 5.166,-484.021 4.512,-484.264C4.034,-484.44 3.602,-484.722 3.247,-485.087C2.882,-485.442 2.6,-485.874 2.424,-486.352C2.182,-487.006 2.053,-487.697 2.045,-488.395C1.992,-489.555 1.981,-489.903 1.981,-492.84C1.981,-495.777 1.992,-496.125 2.045,-497.285C2.053,-497.983 2.181,-498.674 2.424,-499.328C2.6,-499.806 2.882,-500.238 3.247,-500.593C3.602,-500.958 4.034,-501.24 4.512,-501.416C5.166,-501.659 5.857,-501.787 6.555,-501.795C7.715,-501.848 8.063,-501.859 11,-501.859Z" style="fill-rule:nonzero;"/>
            </g>
            <g id="Path_425" transform="matrix(1,0,0,1,-116.726,387.115)">
                <path d="M127.726,-372.759C125.885,-372.759 124.37,-374.274 124.37,-376.115C124.37,-377.956 125.885,-379.471 127.726,-379.471C129.567,-379.471 131.082,-377.956 131.082,-376.115C131.082,-374.274 129.567,-372.759 127.726,-372.759ZM127.726,-381.285C124.89,-381.285 122.556,-378.951 122.556,-376.115C122.556,-373.279 124.89,-370.945 127.726,-370.945C130.562,-370.945 132.896,-373.279 132.896,-376.115C132.896,-378.951 130.562,-381.285 127.726,-381.285Z" style="fill-rule:nonzero;"/>
            </g>
            <g id="Path_426" transform="matrix(1,0,0,1,-340.804,420.388)">
                <path d="M359.042,-415.188C359.042,-414.399 358.393,-413.75 357.604,-413.75C356.815,-413.75 356.166,-414.399 356.166,-415.188C356.166,-415.977 356.815,-416.626 357.604,-416.626C358.393,-416.626 359.042,-415.977 359.042,-415.188Z" style="fill-rule:nonzero;"/>
            </g>
        </g>
    </g>
</svg>
