<svg xmlns="http://www.w3.org/2000/svg" width="136.278" height="134.496" viewBox="0 0 136.278 134.496">
  <g id="Group_1" data-name="Group 1" transform="translate(0 361.474)">
    <path id="Path_1" data-name="Path 1" d="M68.316-360.822A64.754,64.754,0,0,1,133.039-296.1a64.754,64.754,0,0,1-64.723,64.723A64.754,64.754,0,0,1,3.593-296.1,64.754,64.754,0,0,1,68.316-360.822Z" transform="translate(-1.853 0)" fill="none" stroke="#000" stroke-linecap="round" stroke-linejoin="round" stroke-width="1.305"/>
    <path id="Path_2" data-name="Path 2" d="M78.43-359.623A64.754,64.754,0,0,1,143.154-294.9,64.754,64.754,0,0,1,78.43-230.177,64.754,64.754,0,0,1,13.707-294.9,64.754,64.754,0,0,1,78.43-359.623Z" transform="translate(-8.227 -0.756)" fill="none" stroke="#000" stroke-linecap="round" stroke-linejoin="round" stroke-width="1.305"/>
    <path id="Path_3" data-name="Path 3" d="M65.375-352.5A64.754,64.754,0,0,1,130.1-287.777a64.754,64.754,0,0,1-64.724,64.723A64.754,64.754,0,0,1,.652-287.777,64.754,64.754,0,0,1,65.375-352.5Z" transform="translate(0 -5.245)" fill="none" stroke="#000" stroke-linecap="round" stroke-linejoin="round" stroke-width="1.305"/>
    <path id="Path_4" data-name="Path 4" d="M80.32-350.7a64.754,64.754,0,0,1,64.723,64.724A64.754,64.754,0,0,1,80.32-221.25,64.754,64.754,0,0,1,15.6-285.973,64.754,64.754,0,0,1,80.32-350.7Z" transform="translate(-9.418 -6.381)" fill="none" stroke="#000" stroke-linecap="round" stroke-linejoin="round" stroke-width="1.305"/>
    <path id="Path_5" data-name="Path 5" d="M65.917-214.77c.73,0,2.19-.063,2.816-.063.98,0,1.981.042,2.961.042a7.724,7.724,0,0,0,4.255-.9,3.328,3.328,0,0,0,1.564-2.943,2.639,2.639,0,0,0-1.189-2.46,6.465,6.465,0,0,0-2.982-.841v-.126a7.052,7.052,0,0,0,1.71-.5,2.729,2.729,0,0,0,1.648-2.648,2.622,2.622,0,0,0-.834-2.1c-.667-.568-1.418-.82-3.545-.82-1.105,0-2.565.063-3.566.063-1.022,0-2.065-.063-2.816-.063l.021.631c1.335.063,1.648.189,1.668.5.063.673.063,1.345.063,2.754v5.213c0,1.409-.042,2.481-.083,3.09-.042.4-.334.483-1.689.547Zm4.526-9.88c0-1.114.042-1.85.083-2.438,0-.252.1-.378,1-.378a1.984,1.984,0,0,1,1.9.82,3.235,3.235,0,0,1,.375,1.681c0,2.123-.9,2.754-2.44,2.754-.375,0-.688,0-.918-.021Zm0,3.111c.229-.021.542-.042.9-.042a3.063,3.063,0,0,1,2.482.8A3.055,3.055,0,0,1,74.4-218.7a4.286,4.286,0,0,1-.5,2.228,2.7,2.7,0,0,1-2.5,1.009c-.688,0-.876-.147-.9-.357-.042-.609-.063-1.429-.063-2.859Z" transform="translate(-41.13 -83.617)"/>
    <path id="Path_6" data-name="Path 6" d="M112.718-215.794l-.792-.063a.868.868,0,0,1-.834-.567c-.709-1.7-2.857-8.871-3.837-12.339a8.961,8.961,0,0,1-2.4.4,6.01,6.01,0,0,1-.334,1.3c-.521,1.661-2.795,8.219-3.441,9.9-.459,1.135-.855,1.282-1.981,1.366l-.021.631c.813,0,1.793-.063,2.44-.063.938,0,1.647.063,2.336.063v-.631c-1.689-.105-1.9-.315-1.71-1.219.125-.525.4-1.429.917-3.153.375-.021,1.126-.042,1.9-.042s1.544.021,1.981.042c.355,1.219.834,2.922,1.022,3.7.1.483-.062.568-1.272.673v.631c1.085-.021,1.919-.063,3.087-.063,1.251,0,2.4.063,2.941.063Zm-7.571-10.931c.48,1.724,1.084,3.91,1.585,5.76-.313,0-.959.021-1.647.021-.667,0-1.377-.021-1.752-.021C104.146-223.719,104.709-225.338,105.147-226.725Z" transform="translate(-62.028 -83.223)"/>
    <path id="Path_7" data-name="Path 7" d="M135.918-227.508l.918.105a1.006,1.006,0,0,1,.792.336,1.2,1.2,0,0,1,.25.547c0,5.024-.209,9.228-.313,10.006-.083.61-.25.925-.73,1.009-.376.063-.793.1-1.022.126l-.021.609c.521,0,1.251-.063,2.231-.063,1.147,0,2.106.063,2.857.063l.041-.609c-.584-.063-1.084-.126-1.439-.189a.794.794,0,0,1-.709-.778c-.125-.841-.187-4.856-.187-9.606,2.315,3.552,5.589,8.492,7.4,11.372a13.712,13.712,0,0,1,1.689-.21v-5.234a53.7,53.7,0,0,1,.271-6.579c.084-.484.209-.673.584-.757a8.517,8.517,0,0,1,1.022-.147l-.021-.631c-.584,0-1.5.084-2.211.084-.73,0-1.668-.084-2.586-.084l-.125.631,1.022.063c.772.063,1.022.231,1.105.946.084.568.209,2.712.188,8.114-2.9-4.225-4.818-7.042-5.422-7.988s-.9-1.409-1.106-1.766a18.674,18.674,0,0,1-2.023.084c-.939,0-2.106-.084-2.461-.084Z" transform="translate(-85.166 -83.617)"/>
    <path id="Path_8" data-name="Path 8" d="M182.578-224.907c0-1.114.021-2.165.042-2.711,2.274-.042,2.649.168,2.9.736a9.108,9.108,0,0,1,.647,2.607l.6-.189a33.035,33.035,0,0,1,.188-4.015,25.418,25.418,0,0,1-4.8.21h-1.9a27.308,27.308,0,0,1-4.442-.21c-.062.925-.23,3.069-.438,4.2l.563.126a14.118,14.118,0,0,1,.876-2.438c.4-.8.667-1.03,2.982-1.03.021.525.021,1.534.021,2.88v4.667c0,2.186-.021,3.048-.084,3.742-.021.42-.25.525-.688.589-.6.063-.98.126-1.418.147l.084.609c.959,0,2.169-.063,3.3-.063,1.564,0,3.024.063,3.65.063l.062-.631c-.584-.021-.9-.063-1.522-.126-.4-.063-.5-.231-.542-.631-.042-.525-.084-1.6-.084-3.7Z" transform="translate(-110.115 -83.402)"/>
    <path id="Path_9" data-name="Path 9" d="M211.517-219.079c0,1.682-.063,2.544-.1,3.006-.042.5-.334.609-1.627.694v.609c.667,0,1.919-.063,2.982-.063,1.126,0,2.4.063,3.128.063l.042-.609c-1.272-.084-1.564-.168-1.585-.715-.042-.588-.084-1.408-.084-3.048v-5.108c0-1.45.042-2.186.063-2.627.042-.463.292-.568,1.564-.631l-.021-.631c-.688,0-1.94.084-3.024.084-1.126,0-2.419-.063-3.024-.084l-.021.631c1.356.084,1.627.147,1.669.715.021.5.042,1.093.042,2.607Z" transform="translate(-131.796 -83.617)"/>
    <path id="Path_10" data-name="Path 10" d="M228.522-227.508l.918.105a1.006,1.006,0,0,1,.792.336,1.2,1.2,0,0,1,.25.547c0,5.024-.208,9.228-.312,10.006-.084.61-.25.925-.73,1.009-.376.063-.792.1-1.022.126l-.021.609c.521,0,1.251-.063,2.231-.063,1.147,0,2.106.063,2.857.063l.041-.609c-.584-.063-1.084-.126-1.439-.189a.793.793,0,0,1-.709-.778c-.125-.841-.188-4.856-.188-9.606,2.315,3.552,5.589,8.492,7.4,11.372a13.711,13.711,0,0,1,1.689-.21v-5.234a53.779,53.779,0,0,1,.271-6.579c.084-.484.209-.673.584-.757a8.529,8.529,0,0,1,1.022-.147l-.021-.631c-.584,0-1.5.084-2.211.084-.73,0-1.668-.084-2.586-.084l-.125.631,1.022.063c.772.063,1.022.231,1.105.946.084.568.209,2.712.188,8.114-2.9-4.225-4.818-7.042-5.422-7.988s-.9-1.409-1.105-1.766a18.686,18.686,0,0,1-2.023.084c-.939,0-2.106-.084-2.461-.084Z" transform="translate(-143.525 -83.617)"/>
    <path id="Path_11" data-name="Path 11" d="M279.369-224.022a22.826,22.826,0,0,1,.313-4.645l-.543-.168-.438,1.072a5.427,5.427,0,0,0-3.608-1.114,6.969,6.969,0,0,0-4.108,1.072,6.8,6.8,0,0,0-2.941,6.012,7.732,7.732,0,0,0,1.293,4.667c1.126,1.471,2.815,2.165,5.506,2.165a12.528,12.528,0,0,0,2.92-.42c.626-.189,1.522-.462,2.044-.567a13.867,13.867,0,0,1-.125-2.25,15.776,15.776,0,0,1,.041-2.186c.042-.463.25-.568,1.21-.715l-.021-.609c-.605.042-1.815.084-2.774.084-.9,0-2.544-.063-3.3-.084l.042.631,1.043.105c.918.063,1.022.231,1.022,1.387,0,.946,0,2.165-.084,2.817-.062.736-.6,1.114-1.731,1.114a3.163,3.163,0,0,1-2.941-1.787,9.247,9.247,0,0,1-.959-4.435,8.98,8.98,0,0,1,1.126-4.793,3.107,3.107,0,0,1,2.857-1.535c1.981,0,3.295,1.429,3.545,4.183Z" transform="translate(-168.51 -83.151)"/>
    <path id="Path_12" data-name="Path 12" d="M68.873-176.982l1.177.091c.43.046.679.16.725.32l.045.274c0,4.906-.113,9.242-.2,10.862-.068,1.3-.362,1.506-.928,1.6a8.559,8.559,0,0,1-1.041.114v.639c.5,0,1.449-.068,2.513-.068,1,0,2.06.068,2.83.068v-.639l-1.177-.137c-.951-.091-1.064-.388-1.087-1.552-.091-2.35-.159-6.481-.159-11h.023c1.426,3.834,4.256,10.566,5.162,13.4l.974-.228c.792-2.076,2.739-7.12,5.162-13.3h.023c-.068,4.861-.158,10.862-.226,12.094-.023.479-.339.639-1.721.73l-.045.639c1.041-.023,2.173-.068,3.079-.068,1.064,0,2.468.046,3.011.068v-.639l-1.245-.114c-.453-.046-.634-.16-.679-.776-.091-1.141-.136-4.381-.136-8.809v-2.921a.446.446,0,0,1,.408-.5c.339-.023,1.041-.091,1.494-.137l-.068-.639c-.657,0-1.608.068-2.491.068-.815,0-1.268-.023-1.766-.068-.34,1.05-2.491,6.253-4.506,11.09-1.426-3.446-4.189-9.63-4.709-11.09a15.272,15.272,0,0,1-1.721.068c-.657,0-1.517-.023-2.694-.068Z" transform="translate(-42.85 -115.453)"/>
    <path id="Path_13" data-name="Path 13" d="M133.408-164.113l-.861-.068a1.048,1.048,0,0,1-1-.662c-.861-2.054-3.215-9.584-4.324-13.395a8.569,8.569,0,0,1-1.857.342c-.068.342-.181.685-.385,1.346-.657,1.94-3.192,9.059-3.917,10.931-.521,1.255-.951,1.415-2.219,1.506v.639c.906,0,1.947-.068,2.6-.068,1.019,0,1.766.068,2.468.068l.023-.639c-1.834-.114-2.06-.342-1.834-1.324.159-.639.5-1.62,1.132-3.606.317-.023,1.245-.023,2.2-.023.974,0,1.947,0,2.309.023.476,1.483,1.064,3.469,1.291,4.268.113.456-.113.548-1.494.662l.045.639c1,0,1.947-.068,3.034-.068,1.132,0,2.264.068,2.785.068Zm-7.766-12.14c.589,1.985,1.336,4.427,1.9,6.412-.226.023-1.087.046-1.924.046-.861,0-1.766-.023-2.106-.046C124.374-172.556,125.076-174.564,125.642-176.253Z" transform="translate(-74.488 -115.064)"/>
    <path id="Path_14" data-name="Path 14" d="M160.66-168.037c0,2.145-.045,3.081-.091,3.629-.045.479-.385.593-1.856.684l-.023.639c.838,0,1.879-.068,3.011-.068.906,0,2.264.068,3.079.068l.068-.639c-1.653-.114-1.879-.205-1.9-.776-.045-.684-.091-1.529-.091-3.309v-2.3h.679c2.2,0,3.419.456,3.645,2.67.045.639.113,1.232.136,1.825.159,1.94,1,2.716,2.785,2.716a5.458,5.458,0,0,0,1.539-.206l.091-.639a5.28,5.28,0,0,1-.657.069c-.77,0-1.132-.479-1.223-1.529a22.065,22.065,0,0,0-.294-2.191c-.339-2.008-1.766-2.83-3.849-3.08v-.091c2.061-.342,3.894-1.278,3.894-3.72a3.154,3.154,0,0,0-.883-2.35c-.634-.639-1.653-.981-3.781-.981-1.177,0-2.332.068-3.419.068-1.064,0-2.264-.068-2.762-.068l-.114.639,1.381.137c.453.045.566.205.566.525.023.5.068,1.369.068,3.514Zm2.2-5.317a24.109,24.109,0,0,1,.113-3.058.377.377,0,0,1,.294-.388,4.89,4.89,0,0,1,1.155-.114,2.442,2.442,0,0,1,2.309.959,3.481,3.481,0,0,1,.476,1.894c0,2.4-1.291,3.263-3.645,3.263h-.7Z" transform="translate(-99.567 -115.453)"/>
    <path id="Path_15" data-name="Path 15" d="M196.415-167.809c0,1.8-.045,2.944-.091,3.377-.045.525-.339.594-1.9.707l-.023.639c.679,0,1.811-.068,2.943-.068,1.087,0,2.355.068,3.215.068l.045-.639c-1.608-.114-1.857-.183-1.879-.707-.023-.571-.091-1.575-.091-3.491v-2.214c.339-.114.543.046,1,.616,1.064,1.438,4.528,5.865,4.958,6.618a17.987,17.987,0,0,1,1.9-.16c.634-.046,1.358-.046,2.173-.023l.113-.639c-1.449-.091-1.811-.205-2.309-.707-.815-.844-3.939-4.746-5.615-7.074,1.789-1.78,3.758-3.834,4.686-4.7a3.719,3.719,0,0,1,2.559-.776l-.023-.639c-.566.023-1.517.068-2.49.068-1.019,0-1.879-.068-2.581-.068l-.158.662,1.313.16c.317.023.385.114.181.434-.77,1.209-4.211,5.043-5.706,5.659v-2.373c0-1.666.068-2.67.113-3.241.023-.525.294-.548,1.653-.639l-.046-.662c-.611,0-1.856.068-2.853.068s-2.241-.068-2.83-.068l-.045.662c1.427.069,1.744.114,1.766.685.045.639.023,1.483.023,3.263Z" transform="translate(-122.1 -115.453)"/>
    <path id="Path_16" data-name="Path 16" d="M233.03-177.1l1.154.091c.543.045.724.182.747.593.023.639.046,1.8.046,3.446v4.815c0,1.324-.023,2.442-.091,3.309-.023.662-.181.844-.611.867l-1.4.137-.023.639c.77,0,2.4-.068,3.486-.068h2.83c2.672,0,4.053.046,4.8.114.113-.593.543-3.583.566-4.13l-.566-.068a6.676,6.676,0,0,1-1.155,2.6c-.543.639-1.132.776-3.305.776-2.061,0-2.2-.114-2.219-.571-.045-.8-.091-2.236-.091-3.56V-170.3c.226-.023.906-.046,1.336-.046,2.106,0,2.332.525,2.513,2.259h.611a35.858,35.858,0,0,1,.023-4.929h-.566c-.2,1.552-.521,1.94-2.559,1.94-.362,0-1.109-.023-1.358-.046v-2.487c0-1.255.045-2.282.091-2.967.023-.274.091-.365.362-.365h1.676c2.219,0,2.558.228,2.875,1.049a9.059,9.059,0,0,1,.5,1.94l.611-.023a33.994,33.994,0,0,1,.045-3.834,28.692,28.692,0,0,1-3.192.137h-3.826c-1.155,0-2.649-.068-3.305-.068Z" transform="translate(-146.33 -115.337)"/>
    <path id="Path_17" data-name="Path 17" d="M273.613-174.043c0-1.209,0-2.442.023-3.058,3.079-.045,3.441.183,3.645.8a12.271,12.271,0,0,1,.5,2.624l.634-.206a30.284,30.284,0,0,1,.2-4.107,28.08,28.08,0,0,1-5.23.205H271.6a28.258,28.258,0,0,1-4.845-.205c-.068,1-.272,3.149-.476,4.29l.566.16a19.586,19.586,0,0,1,.793-2.465c.385-.89.634-1.1,3.713-1.1.046.616.023,1.78.023,3.309V-169c0,2.441-.023,3.491-.068,4.267-.045.434-.272.571-.747.639-.724.068-1.177.114-1.675.137l.091.639c1.041,0,2.264-.068,3.305-.068,1.494,0,2.989.068,3.713.068l.046-.639a16.493,16.493,0,0,1-1.744-.16c-.453-.045-.543-.228-.588-.662-.046-.548-.091-1.849-.091-4.2Z" transform="translate(-167.397 -115.22)"/>
    <path id="Path_18" data-name="Path 18" d="M68.734-123.749c.232,0,.257.009.265.092,0,.129.012.28.012.555v.938c0,.484-.008.88-.012,1.076l.033.021c.108-.042.223-.092.306-.121a1.177,1.177,0,0,0,.521.121.913.913,0,0,0,.985-1.042,1.047,1.047,0,0,0-.145-.571.622.622,0,0,0-.554-.284.95.95,0,0,0-.633.284v-.3c0-.538.017-.838.017-.955a5.681,5.681,0,0,1-.79.063Zm1.121,2.548a.334.334,0,0,1-.3-.183c-.033-.058-.054-.088-.054-.546,0-.488.012-.534.046-.588a.45.45,0,0,1,.364-.221.316.316,0,0,1,.29.171,1.068,1.068,0,0,1,.108.517C70.307-121.518,70.166-121.2,69.856-121.2Z" transform="translate(-42.905 -149.285)"/>
    <path id="Path_19" data-name="Path 19" d="M77.158-119.9c-.037.167-.1.263-.165.263s-.091-.025-.091-.167v-1.038a.422.422,0,0,0-.054-.209.7.7,0,0,0-.625-.254c-.492,0-.819.267-.819.5a.2.2,0,0,0,.228.209.312.312,0,0,0,.182-.054.1.1,0,0,0,.045-.1.608.608,0,0,1-.017-.129.265.265,0,0,1,.3-.288c.194,0,.273.15.273.342v.163a6.489,6.489,0,0,1-.873.359.38.38,0,0,0-.232.379.486.486,0,0,0,.521.525.818.818,0,0,0,.583-.3.337.337,0,0,0,.372.3.471.471,0,0,0,.488-.442Zm-.741-.171a.577.577,0,0,1-.025.183.316.316,0,0,1-.294.217c-.174,0-.256-.167-.256-.346a.31.31,0,0,1,.182-.313c.124-.071.3-.146.393-.2Z" transform="translate(-47.051 -150.941)"/>
    <path id="Path_20" data-name="Path 20" d="M80.84-119.457c.124,0,.285-.013.484-.013.174,0,.4.013.5.013l0-.121c-.186-.013-.223-.033-.228-.113,0-.108-.008-.283-.008-.446v-.513a.33.33,0,0,1,.046-.192.417.417,0,0,1,.364-.225.228.228,0,0,1,.228.134c.033.062.041.108.037.655,0,.334-.008.5-.017.584s-.041.1-.207.117l0,.121c.091,0,.24-.013.463-.013.2,0,.36.013.513.013l0-.121c-.228-.021-.252-.029-.252-.117V-120.8a.5.5,0,0,0-.058-.258.5.5,0,0,0-.476-.246.913.913,0,0,0-.637.3c0-.063-.017-.208-.029-.288a4.436,4.436,0,0,1-.707.058l0,.125c.194,0,.219.017.223.071.008.108.012.275.012.484v.384c0,.2,0,.338-.012.463-.008.1-.037.121-.24.129Z" transform="translate(-50.534 -150.941)"/>
    <path id="Path_21" data-name="Path 21" d="M87.875-122.284c0-.213.017-.55.021-.659l-.037-.013a1.488,1.488,0,0,1-.48.2c0,.138,0,.334,0,.467h-.248l-.021.133.265.029c0,.313-.017.947-.017,1.255a.444.444,0,0,0,.074.267.506.506,0,0,0,.4.15.63.63,0,0,0,.621-.371l-.05-.158h-.054c-.041.175-.141.342-.314.342a.145.145,0,0,1-.149-.146,6.332,6.332,0,0,1-.021-.68c0-.313.008-.513.008-.659l.513-.029.012-.133Z" transform="translate(-54.483 -149.904)"/>
    <path id="Path_22" data-name="Path 22" d="M91.521-123.553a.264.264,0,0,0-.269.28.246.246,0,0,0,.257.258.263.263,0,0,0,.281-.263A.25.25,0,0,0,91.521-123.553Zm.53,2.561c-.2-.017-.236-.033-.24-.129s-.012-.2-.012-.454v-.488c0-.363.008-.559.012-.659a5.146,5.146,0,0,1-.761.075l0,.125c.2-.008.24.008.244.071s.008.217.008.417v.454c0,.233-.008.383-.012.467s-.037.112-.265.121v.121c.128,0,.244-.013.492-.013.232,0,.393.013.534.013Z" transform="translate(-56.95 -149.527)"/>
    <path id="Path_23" data-name="Path 23" d="M94.31-119.457c.124,0,.285-.013.484-.013.174,0,.4.013.5.013l0-.121c-.186-.013-.223-.033-.228-.113,0-.108-.008-.283-.008-.446v-.513a.33.33,0,0,1,.045-.192.417.417,0,0,1,.364-.225.228.228,0,0,1,.228.134c.033.062.041.108.037.655,0,.334-.008.5-.017.584s-.041.1-.207.117l0,.121c.091,0,.24-.013.463-.013.2,0,.36.013.513.013l0-.121c-.228-.021-.252-.029-.252-.117V-120.8a.5.5,0,0,0-.058-.258.5.5,0,0,0-.476-.246.912.912,0,0,0-.637.3c0-.063-.017-.208-.029-.288a4.437,4.437,0,0,1-.708.058l0,.125c.194,0,.219.017.223.071.008.108.012.275.012.484v.384c0,.2,0,.338-.012.463-.008.1-.037.121-.24.129Z" transform="translate(-59.023 -150.941)"/>
    <path id="Path_24" data-name="Path 24" d="M101.251-119.47a1.035,1.035,0,0,0-.248.112.283.283,0,0,0-.169.258c0,.271.273.459.794.459.538,0,1.138-.267,1.138-.842a.509.509,0,0,0-.169-.383.535.535,0,0,0-.352-.117c-.435,0-.724.017-.952.017-.132,0-.231-.067-.231-.167a.228.228,0,0,1,.157-.213.811.811,0,0,0,.5.129c.368,0,.786-.179.786-.655a.6.6,0,0,0-.2-.459.248.248,0,0,1,.116-.021.371.371,0,0,1,.219.067.325.325,0,0,0,.161-.192c0-.058-.087-.138-.19-.138a.737.737,0,0,0-.409.213.847.847,0,0,0-.443-.1.694.694,0,0,0-.774.676.564.564,0,0,0,.141.392.571.571,0,0,0-.281.459.447.447,0,0,0,.1.3.575.575,0,0,0,.48.187c.178,0,.463,0,.765,0a.221.221,0,0,1,.248.225c0,.233-.207.459-.691.459-.376,0-.6-.163-.6-.367a.238.238,0,0,1,.165-.225Zm.484-1.9c.219,0,.273.279.273.517,0,.3-.066.513-.265.513s-.273-.233-.273-.521C101.47-121.225,101.569-121.371,101.735-121.371Z" transform="translate(-63.134 -150.749)"/>
    <path id="Path_25" data-name="Path 25" d="M106.448-116.851a.674.674,0,0,0,.633-.667c0-.259-.12-.442-.339-.442a.3.3,0,0,0-.3.3.254.254,0,0,0,.24.279.267.267,0,0,0,.149-.041c.017-.013.037-.013.037.017a.5.5,0,0,1-.455.446Z" transform="translate(-66.652 -153.052)"/>
    <path id="Path_26" data-name="Path 26" d="M111.11-123.753l.145,0c.062,0,.087.021.087.063,0,.159.008.375.008.68v1c0,.359-.013.579-.017.659s-.041.1-.252.113v.121c.112,0,.236-.013.5-.013.219,0,.376.013.521.013l0-.121c-.215-.013-.24-.029-.248-.125-.008-.2-.008-.371-.008-.659.045-.009.07.008.12.088.083.142.414.65.53.863a4.681,4.681,0,0,1,.757-.046l.009-.125h-.116a.256.256,0,0,1-.195-.084c-.132-.158-.517-.759-.654-.98a5.035,5.035,0,0,1,.414-.4.656.656,0,0,1,.389-.117l0-.117c-.277.017-.575.025-.84.025v.121l.178.013c.054.008.054.029.029.067-.133.2-.451.563-.612.592v-.922c0-.35.008-.692.016-.9a5.489,5.489,0,0,1-.757.063Z" transform="translate(-69.592 -149.285)"/>
    <path id="Path_27" data-name="Path 27" d="M118.636-120.037c-.112.288-.273.409-.5.409a.418.418,0,0,1-.4-.23,1.02,1.02,0,0,1-.1-.484c.2,0,.414,0,.542,0a1.768,1.768,0,0,0,.517-.058.171.171,0,0,0,.075-.167.69.69,0,0,0-.757-.738.9.9,0,0,0-.914.984,1.043,1.043,0,0,0,.182.63.809.809,0,0,0,.695.284.761.761,0,0,0,.79-.559Zm-.645-1.143c.231,0,.294.329.294.513,0,.1-.029.146-.079.163a1.485,1.485,0,0,1-.3.025c-.091,0-.182,0-.269,0C117.647-120.859,117.759-121.18,117.991-121.18Z" transform="translate(-73.378 -150.941)"/>
    <path id="Path_28" data-name="Path 28" d="M122.938-122.284c0-.213.017-.55.021-.659l-.037-.013a1.488,1.488,0,0,1-.48.2c0,.138,0,.334,0,.467h-.248l-.021.133.265.029c0,.313-.017.947-.017,1.255a.442.442,0,0,0,.075.267.505.505,0,0,0,.4.15.63.63,0,0,0,.621-.371l-.05-.158h-.054c-.041.175-.141.342-.314.342a.145.145,0,0,1-.149-.146,6.412,6.412,0,0,1-.021-.68c0-.313.009-.513.009-.659l.513-.029.013-.133Z" transform="translate(-76.579 -149.904)"/>
    <path id="Path_29" data-name="Path 29" d="M127.232-121.309a.914.914,0,0,0-.98.967.865.865,0,0,0,.951.93.9.9,0,0,0,.972-.963A.879.879,0,0,0,127.232-121.309Zm-.021.134a.326.326,0,0,1,.3.2,1.51,1.51,0,0,1,.112.642,1.535,1.535,0,0,1-.1.6.293.293,0,0,1-.285.192.348.348,0,0,1-.323-.221,1.576,1.576,0,0,1-.112-.655,1.276,1.276,0,0,1,.108-.575A.321.321,0,0,1,127.212-121.175Z" transform="translate(-79.153 -150.941)"/>
    <path id="Path_30" data-name="Path 30" d="M132.259-116.851a.674.674,0,0,0,.633-.667c0-.259-.12-.442-.339-.442a.3.3,0,0,0-.3.3.254.254,0,0,0,.24.279.269.269,0,0,0,.149-.041c.017-.013.037-.013.037.017a.5.5,0,0,1-.455.446Z" transform="translate(-82.918 -153.052)"/>
    <path id="Path_31" data-name="Path 31" d="M138.705-120.054c-.108.292-.257.426-.509.426a.442.442,0,0,1-.413-.259,1.179,1.179,0,0,1-.1-.513c0-.442.145-.78.422-.78.19,0,.269.108.269.3a.839.839,0,0,1-.021.146.1.1,0,0,0,.041.108.24.24,0,0,0,.132.033.249.249,0,0,0,.269-.254c0-.284-.285-.459-.679-.459a.922.922,0,0,0-.981.98,1,1,0,0,0,.186.634.847.847,0,0,0,.711.284.754.754,0,0,0,.786-.579Z" transform="translate(-86.013 -150.941)"/>
    <path id="Path_32" data-name="Path 32" d="M144.207-119.9c-.037.167-.1.263-.166.263s-.091-.025-.091-.167v-1.038a.424.424,0,0,0-.054-.209.7.7,0,0,0-.625-.254c-.492,0-.819.267-.819.5a.2.2,0,0,0,.228.209.312.312,0,0,0,.182-.054.106.106,0,0,0,.045-.1.615.615,0,0,1-.017-.129.265.265,0,0,1,.3-.288c.195,0,.273.15.273.342v.163a6.474,6.474,0,0,1-.873.359.38.38,0,0,0-.232.379.487.487,0,0,0,.521.525.817.817,0,0,0,.583-.3.337.337,0,0,0,.372.3.471.471,0,0,0,.488-.442Zm-.741-.171a.574.574,0,0,1-.025.183.316.316,0,0,1-.294.217c-.174,0-.257-.167-.257-.346a.31.31,0,0,1,.182-.313c.124-.071.3-.146.393-.2Z" transform="translate(-89.305 -150.941)"/>
    <path id="Path_33" data-name="Path 33" d="M148.106-120.2c0,.233-.008.425-.016.517-.008.071-.045.092-.24.1l-.017.121c.166,0,.327-.013.53-.013s.4.013.588.013l.012-.121c-.31-.013-.343-.038-.347-.133s-.008-.313-.008-.742a.645.645,0,0,1,.033-.238c.045-.142.12-.263.219-.263.082,0,.112.05.141.138.021.05.07.071.141.071a.259.259,0,0,0,.236-.284.27.27,0,0,0-.273-.28c-.265,0-.406.2-.509.446h-.013a3.348,3.348,0,0,0-.033-.43l-.017-.013a3.333,3.333,0,0,1-.683.075l0,.125h.149c.054,0,.075.021.083.067a3.366,3.366,0,0,1,.029.521Z" transform="translate(-92.753 -150.941)"/>
    <path id="Path_34" data-name="Path 34" d="M152.017-123.749c.232,0,.257.009.265.092,0,.129.013.28.013.555v.938c0,.484-.008.88-.013,1.076l.033.021c.108-.042.223-.092.306-.121a1.176,1.176,0,0,0,.521.121.913.913,0,0,0,.985-1.042,1.048,1.048,0,0,0-.145-.571.623.623,0,0,0-.555-.284.949.949,0,0,0-.633.284v-.3c0-.538.016-.838.016-.955a5.677,5.677,0,0,1-.79.063Zm1.121,2.548a.333.333,0,0,1-.3-.183c-.033-.058-.054-.088-.054-.546,0-.488.013-.534.045-.588a.451.451,0,0,1,.364-.221.316.316,0,0,1,.29.171,1.069,1.069,0,0,1,.108.517C153.589-121.518,153.449-121.2,153.138-121.2Z" transform="translate(-95.39 -149.285)"/>
    <path id="Path_35" data-name="Path 35" d="M158.54-119.051c.327-.009.633-.009.993,0l.046-.3c-.36.013-.662.013-.989,0Z" transform="translate(-99.501 -152.177)"/>
    <path id="Path_36" data-name="Path 36" d="M163.733-120.054c-.108.292-.257.426-.509.426a.442.442,0,0,1-.414-.259,1.179,1.179,0,0,1-.1-.513c0-.442.145-.78.422-.78.19,0,.269.108.269.3a.836.836,0,0,1-.021.146.106.106,0,0,0,.041.108.24.24,0,0,0,.132.033.249.249,0,0,0,.269-.254c0-.284-.285-.459-.679-.459a.922.922,0,0,0-.98.98,1,1,0,0,0,.186.634.847.847,0,0,0,.712.284.754.754,0,0,0,.786-.579Z" transform="translate(-101.785 -150.941)"/>
    <path id="Path_37" data-name="Path 37" d="M168.471-121.309a.915.915,0,0,0-.981.967.866.866,0,0,0,.951.93.9.9,0,0,0,.973-.963A.879.879,0,0,0,168.471-121.309Zm-.021.134a.326.326,0,0,1,.3.2,1.51,1.51,0,0,1,.112.642,1.527,1.527,0,0,1-.1.6.292.292,0,0,1-.285.192.348.348,0,0,1-.322-.221,1.57,1.57,0,0,1-.112-.655,1.277,1.277,0,0,1,.107-.575A.321.321,0,0,1,168.45-121.175Z" transform="translate(-105.141 -150.941)"/>
    <path id="Path_38" data-name="Path 38" d="M173.375-119.457c.124,0,.285-.013.484-.013.174,0,.4.013.5.013l0-.121c-.186-.013-.223-.033-.227-.113,0-.108-.008-.283-.008-.446v-.513a.331.331,0,0,1,.045-.192.418.418,0,0,1,.364-.225.228.228,0,0,1,.227.134c.033.062.041.108.037.655,0,.334-.009.5-.017.584s-.041.1-.207.117l0,.121c.091,0,.24-.013.463-.013.2,0,.36.013.513.013l0-.121c-.227-.021-.252-.029-.252-.117V-120.8a.5.5,0,0,0-.058-.258.5.5,0,0,0-.476-.246.913.913,0,0,0-.637.3c0-.063-.016-.208-.029-.288a4.437,4.437,0,0,1-.707.058l0,.125c.195,0,.219.017.223.071.008.108.012.275.012.484v.384c0,.2,0,.338-.012.463-.008.1-.037.121-.24.129Z" transform="translate(-108.85 -150.941)"/>
    <path id="Path_39" data-name="Path 39" d="M181.286-120.726a3.27,3.27,0,0,1,.029-.646l-.116-.037-.054.15a.749.749,0,0,0-.418-.113.6.6,0,0,0-.674.592.5.5,0,0,0,.348.484c.145.062.368.15.5.217a.208.208,0,0,1,.128.2c0,.159-.116.263-.327.263a.48.48,0,0,1-.451-.275,1.029,1.029,0,0,1-.1-.334l-.112.009c.008.25,0,.521,0,.625a1.736,1.736,0,0,0,.6.117c.381,0,.794-.171.794-.621a.446.446,0,0,0-.281-.43c-.149-.075-.476-.179-.6-.25a.214.214,0,0,1-.132-.2.254.254,0,0,1,.281-.258.529.529,0,0,1,.476.538Z" transform="translate(-113.045 -150.877)"/>
    <path id="Path_40" data-name="Path 40" d="M186.164-120.054c-.108.292-.257.426-.509.426a.442.442,0,0,1-.414-.259,1.179,1.179,0,0,1-.1-.513c0-.442.145-.78.422-.78.19,0,.269.108.269.3a.838.838,0,0,1-.021.146.1.1,0,0,0,.041.108.24.24,0,0,0,.132.033.249.249,0,0,0,.269-.254c0-.284-.285-.459-.679-.459a.922.922,0,0,0-.981.98,1,1,0,0,0,.186.634.847.847,0,0,0,.712.284.754.754,0,0,0,.786-.579Z" transform="translate(-115.921 -150.941)"/>
    <path id="Path_41" data-name="Path 41" d="M190.165-123.553a.264.264,0,0,0-.269.28.246.246,0,0,0,.257.258.263.263,0,0,0,.281-.263A.25.25,0,0,0,190.165-123.553Zm.53,2.561c-.2-.017-.236-.033-.24-.129s-.012-.2-.012-.454v-.488c0-.363.008-.559.012-.659a5.14,5.14,0,0,1-.761.075l0,.125c.2-.008.24.008.244.071s.008.217.008.417v.454c0,.233-.008.383-.012.467s-.037.112-.265.121v.121c.128,0,.244-.013.492-.013.231,0,.393.013.534.013Z" transform="translate(-119.116 -149.527)"/>
    <path id="Path_42" data-name="Path 42" d="M194.046-121.309a.914.914,0,0,0-.98.967.866.866,0,0,0,.951.93.9.9,0,0,0,.972-.963A.879.879,0,0,0,194.046-121.309Zm-.021.134a.326.326,0,0,1,.3.2,1.51,1.51,0,0,1,.112.642,1.535,1.535,0,0,1-.1.6.293.293,0,0,1-.285.192.348.348,0,0,1-.323-.221,1.576,1.576,0,0,1-.112-.655,1.276,1.276,0,0,1,.108-.575A.321.321,0,0,1,194.026-121.175Z" transform="translate(-121.259 -150.941)"/>
    <path id="Path_43" data-name="Path 43" d="M200.042-121.1c.195,0,.248.013.257.08.008.087.012.2.012.371v.442a.619.619,0,0,1-.041.242.5.5,0,0,1-.439.35.168.168,0,0,1-.182-.142,4.6,4.6,0,0,1-.025-.68,6.435,6.435,0,0,1,.037-.83,6.815,6.815,0,0,1-.765.038l-.013.125c.19,0,.236,0,.24.075s.009.15.009.321c0,.258-.009.609-.013.868a.6.6,0,0,0,.046.25.431.431,0,0,0,.426.209.943.943,0,0,0,.716-.359c0,.092.008.25.013.363a7.151,7.151,0,0,1,.77-.063l0-.125c-.236,0-.261-.008-.269-.1-.009-.129-.013-.292-.013-.513v-.492c0-.271.008-.48.013-.588-.269.021-.525.033-.782.033Z" transform="translate(-124.925 -150.969)"/>
    <path id="Path_44" data-name="Path 44" d="M206.8-120.726a3.3,3.3,0,0,1,.029-.646l-.116-.037-.054.15a.749.749,0,0,0-.418-.113.605.605,0,0,0-.675.592.5.5,0,0,0,.348.484c.145.062.368.15.5.217a.208.208,0,0,1,.128.2c0,.159-.116.263-.327.263a.48.48,0,0,1-.451-.275,1.017,1.017,0,0,1-.1-.334l-.112.009c.008.25,0,.521,0,.625a1.738,1.738,0,0,0,.6.117c.381,0,.794-.171.794-.621a.446.446,0,0,0-.281-.43c-.149-.075-.476-.179-.6-.25a.214.214,0,0,1-.132-.2.253.253,0,0,1,.281-.258.529.529,0,0,1,.476.538Z" transform="translate(-129.127 -150.877)"/>
    <path id="Path_45" data-name="Path 45" d="M210.093-116.851a.674.674,0,0,0,.633-.667c0-.259-.12-.442-.339-.442a.3.3,0,0,0-.3.3.254.254,0,0,0,.24.279.269.269,0,0,0,.149-.041c.017-.013.037-.013.037.017a.5.5,0,0,1-.455.446Z" transform="translate(-131.969 -153.052)"/>
    <path id="Path_46" data-name="Path 46" d="M216.727-121.664a1.434,1.434,0,0,1-.219.538c-.1.133-.24.158-.625.158-.186,0-.211-.029-.215-.079-.008-.108-.013-.4-.013-.734v-.726c0-.329.013-.563.021-.717,0-.071.033-.1.116-.1l.223-.021-.013-.125c-.227,0-.422.017-.608.017s-.5-.017-.612-.017l-.009.125.211.017c.083.008.112.033.116.1,0,.088.009.221.009.555v.876c0,.338-.013.6-.025.734,0,.071-.033.092-.124.1l-.219.021,0,.125c.1,0,.467-.013.649-.013.314,0,.633,0,.873,0s.426.008.5.017c.025-.258.058-.65.087-.846Z" transform="translate(-134.916 -149.577)"/>
    <path id="Path_47" data-name="Path 47" d="M223.283-122.669a5.368,5.368,0,0,1,.037-.9l-.108-.033-.078.213a.962.962,0,0,0-.707-.229,1.277,1.277,0,0,0-.89.317,1.449,1.449,0,0,0-.434,1.1,1.473,1.473,0,0,0,.273.926,1.14,1.14,0,0,0,.964.413,1,1,0,0,0,1.055-.763l-.12-.075a.77.77,0,0,1-.753.621.669.669,0,0,1-.6-.35,1.665,1.665,0,0,1-.195-.834,1.651,1.651,0,0,1,.256-.959.589.589,0,0,1,.513-.258c.455,0,.637.417.674.826Z" transform="translate(-138.928 -149.485)"/>
    <path id="Path_48" data-name="Path 48" d="M228.3-121.656c0,.325-.012.479-.021.575s-.078.125-.327.134v.125c.174,0,.385-.013.571-.013.227,0,.492.013.649.013v-.125c-.24-.009-.31-.029-.314-.129-.009-.117-.013-.3-.013-.575v-.476c.1,0,.277-.008.476-.008s.389,0,.538.008v.476c0,.325-.012.48-.017.571s-.07.121-.3.134l0,.125c.12,0,.364-.013.575-.013.227,0,.476.013.612.013l.008-.125c-.253-.013-.306-.029-.31-.117-.013-.117-.017-.346-.017-.638v-.98c0-.221,0-.4.013-.534.008-.1.066-.125.31-.134l0-.125c-.083,0-.4.017-.6.017-.116,0-.414-.013-.575-.017v.125c.219.009.294.029.3.117.008.113.012.246.012.5v.454c-.169,0-.339,0-.534,0s-.381,0-.48,0v-.417c0-.2,0-.4.013-.509s.062-.138.29-.142l.008-.125c-.153,0-.467.017-.612.017-.173,0-.451-.017-.571-.017l0,.125c.253.009.319.029.323.138,0,.129.008.283.008.563Z" transform="translate(-143.243 -149.577)"/>
    <path id="Path_49" data-name="Path 49" d="M235.977-123.37l.244.021a.09.09,0,0,1,.087.1c0,.067.012.229.012.592v.909c0,.334-.012.571-.02.659-.008.071-.041.1-.12.1l-.219.021.008.125c.136,0,.418-.013.641-.013s.5.013.653.013l.013-.125c-.112,0-.227-.021-.29-.029-.079-.008-.1-.046-.108-.121s-.013-.213-.013-.555v-.409a2.086,2.086,0,0,1,.253-.009c.372,0,.405.113.463.45h.12a5.9,5.9,0,0,1,0-.976l-.112-.008c-.05.329-.141.388-.459.388-.087,0-.219,0-.265,0v-.459c0-.367.008-.546.013-.588s.037-.058.083-.058h.252c.4,0,.5.067.567.221a1.562,1.562,0,0,1,.1.388H238a6.816,6.816,0,0,1,.025-.771,6.587,6.587,0,0,1-.765.029h-.588c-.265,0-.567-.013-.7-.017Z" transform="translate(-148.291 -149.555)"/>
    <path id="Path_50" data-name="Path 50" d="M245.624-123.75c.261,0,.285.008.294.112.008.171.008.425.008.771a.729.729,0,0,0-.381-.092.918.918,0,0,0-.96,1.009,1.038,1.038,0,0,0,.182.634.665.665,0,0,0,.559.254.818.818,0,0,0,.583-.271h.013c0,.079,0,.2,0,.284a4.713,4.713,0,0,1,.774-.071l.021-.125h-.182c-.062,0-.083-.025-.091-.1-.016-.158-.021-.358-.021-.713l0-.947c0-.429.016-.742.025-.926-.2.021-.629.05-.815.054Zm-.5,1.718c0-.446.158-.784.459-.784a.337.337,0,0,1,.315.192,1.828,1.828,0,0,1,.029.551c0,.467-.013.53-.041.575a.352.352,0,0,1-.327.2.359.359,0,0,1-.31-.175A1.1,1.1,0,0,1,245.124-122.032Z" transform="translate(-153.727 -149.292)"/>
    <path id="Path_51" data-name="Path 51" d="M251.106-123.553a.264.264,0,0,0-.269.28.246.246,0,0,0,.256.258.263.263,0,0,0,.281-.263A.25.25,0,0,0,251.106-123.553Zm.53,2.561c-.2-.017-.236-.033-.24-.129s-.013-.2-.013-.454v-.488c0-.363.009-.559.013-.659a5.15,5.15,0,0,1-.761.075l0,.125c.2-.008.24.008.244.071s.009.217.009.417v.454c0,.233-.009.383-.013.467s-.037.112-.265.121v.121c.128,0,.244-.013.492-.013.232,0,.393.013.534.013Z" transform="translate(-157.52 -149.527)"/>
    <path id="Path_52" data-name="Path 52" d="M255.621-120.037c-.112.288-.273.409-.5.409a.418.418,0,0,1-.4-.23,1.025,1.025,0,0,1-.1-.484c.2,0,.414,0,.542,0a1.769,1.769,0,0,0,.517-.058.171.171,0,0,0,.074-.167.689.689,0,0,0-.757-.738.9.9,0,0,0-.915.984,1.04,1.04,0,0,0,.182.63.809.809,0,0,0,.695.284.761.761,0,0,0,.79-.559Zm-.646-1.143c.232,0,.294.329.294.513,0,.1-.029.146-.079.163a1.49,1.49,0,0,1-.3.025c-.091,0-.182,0-.269,0C254.632-120.859,254.743-121.18,254.975-121.18Z" transform="translate(-159.706 -150.941)"/>
    <path id="Path_53" data-name="Path 53" d="M259.923-122.284c0-.213.016-.55.021-.659l-.037-.013a1.488,1.488,0,0,1-.48.2c0,.138,0,.334,0,.467h-.248l-.021.133.265.029c0,.313-.017.947-.017,1.255a.444.444,0,0,0,.074.267.506.506,0,0,0,.4.15.63.63,0,0,0,.621-.371l-.05-.158h-.054c-.041.175-.141.342-.314.342a.145.145,0,0,1-.149-.146,6.312,6.312,0,0,1-.021-.68c0-.313.008-.513.008-.659l.513-.029.012-.133Z" transform="translate(-162.907 -149.904)"/>
    <path id="Path_54" data-name="Path 54" d="M265.419-122.775l.261.025v.8c0,.284-.008.488-.017.6,0,.071-.037.1-.248.1l-.008.121c.132,0,.356-.013.55-.013s.405.013.542.013l.013-.121c-.07,0-.145-.013-.219-.021s-.1-.042-.1-.125c-.008-.15-.008-.367-.008-.659,0-.321,0-.555,0-.7l.372-.029.021-.133h-.389a5.713,5.713,0,0,1,0-.65c.021-.163.079-.25.178-.25.128,0,.166.125.166.283a.118.118,0,0,0,.128.129.226.226,0,0,0,.249-.217c0-.167-.145-.334-.459-.334a.715.715,0,0,0-.534.225.96.96,0,0,0-.228.692v.121h-.252Z" transform="translate(-166.848 -149.279)"/>
    <path id="Path_55" data-name="Path 55" d="M270.787-119.9c-.037.167-.1.263-.166.263s-.091-.025-.091-.167v-1.038a.424.424,0,0,0-.054-.209.7.7,0,0,0-.625-.254c-.492,0-.819.267-.819.5a.2.2,0,0,0,.228.209.312.312,0,0,0,.182-.054.105.105,0,0,0,.045-.1.616.616,0,0,1-.017-.129.265.265,0,0,1,.3-.288c.195,0,.273.15.273.342v.163a6.475,6.475,0,0,1-.873.359.38.38,0,0,0-.232.379.487.487,0,0,0,.521.525.817.817,0,0,0,.583-.3.337.337,0,0,0,.372.3.471.471,0,0,0,.488-.442Zm-.741-.171a.573.573,0,0,1-.025.183.316.316,0,0,1-.294.217c-.174,0-.257-.167-.257-.346a.31.31,0,0,1,.182-.313c.124-.071.3-.146.393-.2Z" transform="translate(-169.076 -150.941)"/>
    <path id="Path_56" data-name="Path 56" d="M274.469-119.457c.124,0,.285-.013.484-.013.174,0,.4.013.5.013l0-.121c-.186-.013-.223-.033-.228-.113,0-.108-.008-.283-.008-.446v-.513a.331.331,0,0,1,.046-.192.418.418,0,0,1,.364-.225.228.228,0,0,1,.227.134c.033.062.041.108.037.655,0,.334-.009.5-.017.584s-.041.1-.207.117l0,.121c.091,0,.24-.013.463-.013.2,0,.36.013.513.013l0-.121c-.227-.021-.253-.029-.253-.117V-120.8a.5.5,0,0,0-.058-.258.5.5,0,0,0-.476-.246.913.913,0,0,0-.637.3c0-.063-.016-.208-.029-.288a4.437,4.437,0,0,1-.707.058l0,.125c.195,0,.219.017.223.071.008.108.012.275.012.484v.384c0,.2,0,.338-.012.463-.009.1-.037.121-.24.129Z" transform="translate(-172.559 -150.941)"/>
    <path id="Path_57" data-name="Path 57" d="M282.848-119.9c-.037.167-.1.263-.165.263s-.091-.025-.091-.167v-1.038a.42.42,0,0,0-.054-.209.7.7,0,0,0-.625-.254c-.492,0-.819.267-.819.5a.2.2,0,0,0,.227.209.311.311,0,0,0,.182-.054.1.1,0,0,0,.046-.1.619.619,0,0,1-.016-.129.265.265,0,0,1,.3-.288c.195,0,.273.15.273.342v.163a6.5,6.5,0,0,1-.873.359.379.379,0,0,0-.231.379.486.486,0,0,0,.521.525.818.818,0,0,0,.584-.3.337.337,0,0,0,.372.3.471.471,0,0,0,.488-.442Zm-.74-.171a.583.583,0,0,1-.025.183.317.317,0,0,1-.294.217c-.174,0-.256-.167-.256-.346a.31.31,0,0,1,.182-.313c.124-.071.3-.146.393-.2Z" transform="translate(-176.677 -150.941)"/>
    <path id="Path_58" data-name="Path 58" d="M287.165-122.284c0-.213.017-.55.021-.659l-.037-.013a1.486,1.486,0,0,1-.48.2c0,.138,0,.334,0,.467h-.248l-.021.133.265.029c0,.313-.017.947-.017,1.255a.447.447,0,0,0,.075.267.506.506,0,0,0,.4.15.63.63,0,0,0,.621-.371l-.05-.158h-.054c-.041.175-.141.342-.315.342a.145.145,0,0,1-.149-.146,6.3,6.3,0,0,1-.021-.68c0-.313.008-.513.008-.659l.513-.029.013-.133Z" transform="translate(-180.075 -149.904)"/>
    <path id="Path_59" data-name="Path 59" d="M290.812-123.553a.264.264,0,0,0-.269.28.246.246,0,0,0,.256.258.263.263,0,0,0,.281-.263A.25.25,0,0,0,290.812-123.553Zm.53,2.561c-.2-.017-.236-.033-.24-.129s-.013-.2-.013-.454v-.488c0-.363.009-.559.013-.659a5.149,5.149,0,0,1-.761.075l0,.125c.2-.008.24.008.244.071s.009.217.009.417v.454c0,.233-.009.383-.013.467s-.037.112-.265.121v.121c.128,0,.244-.013.492-.013.232,0,.393.013.534.013Z" transform="translate(-182.543 -149.527)"/>
    <path id="Path_60" data-name="Path 60" d="M295.314-120.054c-.108.292-.257.426-.509.426a.442.442,0,0,1-.414-.259,1.179,1.179,0,0,1-.1-.513c0-.442.145-.78.422-.78.19,0,.269.108.269.3a.836.836,0,0,1-.021.146.106.106,0,0,0,.041.108.24.24,0,0,0,.132.033.249.249,0,0,0,.269-.254c0-.284-.285-.459-.679-.459a.922.922,0,0,0-.98.98,1,1,0,0,0,.186.634.847.847,0,0,0,.711.284.754.754,0,0,0,.786-.579Z" transform="translate(-184.708 -150.941)"/>
    <path id="Path_61" data-name="Path 61" d="M300.381-120.726a3.328,3.328,0,0,1,.029-.646l-.116-.037-.054.15a.75.75,0,0,0-.418-.113.605.605,0,0,0-.674.592.5.5,0,0,0,.348.484c.145.062.368.15.5.217a.208.208,0,0,1,.128.2c0,.159-.116.263-.327.263a.48.48,0,0,1-.451-.275,1.028,1.028,0,0,1-.1-.334l-.112.009c.009.25,0,.521,0,.625a1.736,1.736,0,0,0,.6.117c.381,0,.794-.171.794-.621a.446.446,0,0,0-.281-.43c-.149-.075-.476-.179-.6-.25a.215.215,0,0,1-.132-.2.254.254,0,0,1,.281-.258.53.53,0,0,1,.476.538Z" transform="translate(-188.099 -150.877)"/>
    <path id="Path_62" data-name="Path 62" d="M134.86-259.231a2.931,2.931,0,0,1,1.107.529,1.2,1.2,0,0,1,.374.957,1.269,1.269,0,0,1-.483.99,2.277,2.277,0,0,1-1.587.514l-2.039-.015c.227-.164.2-.629.2-.945v-3.536c0-.818-.039-.762-.193-.959h1.893c.53,0,1.634.112,1.732,1.221C135.936-259.642,135.187-259.385,134.86-259.231Zm-1.4-.134c.478-.011,1.382.037,1.416-.963.035-1.059-.845-.934-1.372-.949Zm.022.437c.02.352-.008,1.382,0,2.254.267-.01,1.717.147,1.764-1.2C135.278-258.915,134.392-258.937,133.48-258.928Z" transform="translate(-82.921 -62.469)"/>
    <path id="Path_63" data-name="Path 63" d="M145.1-258.84l-.006,1.639c0,.734,0,.671.195.954l-1.419-.006c.116-.114.239-.119.239-.947v-3.536c0-.868-.145-.8-.239-.959h1.608a3.48,3.48,0,0,1,1.113.136c1,.361,1.084.891,1.062,1.1a1.38,1.38,0,0,1-1.22,1.379l.326.17c.846.441,1.37,2.534,2.173,2.64l-1.233-.013c-.7-.022-1.611-2.555-2.149-2.551Zm-.006-2.419v1.962c1.069.176,1.444-.429,1.444-.951C146.537-261.146,145.963-261.4,145.093-261.259Z" transform="translate(-90.255 -62.469)"/>
    <path id="Path_64" data-name="Path 64" d="M157.809-261.726a3.112,3.112,0,0,1,2.194.775,2.528,2.528,0,0,1,.845,1.942,2.661,2.661,0,0,1-.631,1.754,2.894,2.894,0,0,1-2.355,1,2.948,2.948,0,0,1-2.355-.959,2.62,2.62,0,0,1-.662-1.791,2.516,2.516,0,0,1,.855-1.944A3.02,3.02,0,0,1,157.809-261.726Zm-.017.387a2.117,2.117,0,0,0-1.8,2.278c.082,1.091.439,2.278,1.864,2.365,1.148.07,1.782-1.178,1.851-2.253C159.76-259.832,159.09-261.367,157.792-261.339Z" transform="translate(-97.172 -62.45)"/>
    <path id="Path_65" data-name="Path 65" d="M181.453-259.483c1.463,1.514,2.118,2.859,2.861,3.168l-1.775.011c.136-.2.037-.559-.916-1.529l-1.071-1.091-.011,1.693c0,.7.038.692.2.924l-1.439,0a1.5,1.5,0,0,0,.192-.927v-3.586c0-.28-.007-.519-.015-.592a.5.5,0,0,0-.2-.375h1.514c-.041.057-.275,0-.253.967l.034,1.46,1.583-1.4a3.624,3.624,0,0,0,.625-.682c.153-.2-.045-.233-.113-.335h1.478a4.731,4.731,0,0,0-.878.6Z" transform="translate(-112.571 -62.414)"/>
    <path id="Path_66" data-name="Path 66" d="M196.917-257.154l-.173.862-3.374-.012c.169-.237.187-.3.187-.929v-3.586c0-.743-.024-.8-.149-.968h1.43a1.388,1.388,0,0,0-.206.968v3.476a3.157,3.157,0,0,0,.007.541c.331.007,1.205.031,1.454.027A1.055,1.055,0,0,0,196.917-257.154Z" transform="translate(-121.451 -62.412)"/>
    <path id="Path_67" data-name="Path 67" d="M204.092-261.751a1.371,1.371,0,0,0-.627.69l-1.22,2.2c-.01,2.048-.142,2.206.259,2.565h-1.584c.236-.166.354-.293.243-2.517-.739-1.222-1.532-2.75-1.941-2.95l1.755.006c-.07.052-.3.1-.066.505l1.088,1.9c.333-.55.626-1.076,1.139-2.112-.006-.2-.1-.227-.179-.3Z" transform="translate(-125.14 -62.426)"/>
    <path id="Path_68" data-name="Path 68" d="M214.157-261.755l2.983,3.5.048-2.792a1.013,1.013,0,0,0-.178-.723h.89a1.9,1.9,0,0,0-.241,1.067l-.029,4.369-.139.019-3.689-4.225-.048,3.295c-.006.45.02.786.173.931l-.8.019a2.048,2.048,0,0,0,.165-.94v-3.847a.879.879,0,0,0-.395-.658Z" transform="translate(-133.755 -62.42)"/>
    <path id="Path_69" data-name="Path 69" d="M165.961-261.726a3.112,3.112,0,0,1,2.194.775,2.527,2.527,0,0,1,.845,1.942,2.661,2.661,0,0,1-.631,1.754,2.9,2.9,0,0,1-2.355,1,2.948,2.948,0,0,1-2.355-.959A2.621,2.621,0,0,1,163-259a2.517,2.517,0,0,1,.855-1.944A3.019,3.019,0,0,1,165.961-261.726Zm-.017.387a2.118,2.118,0,0,0-1.8,2.278c.082,1.091.44,2.278,1.864,2.365,1.148.07,1.782-1.178,1.852-2.253C167.911-259.832,167.241-261.367,165.943-261.339Z" transform="translate(-102.309 -62.45)"/>
    <path id="Path_70" data-name="Path 70" d="M227.767-262.074v-.152a1.466,1.466,0,0,0,.457-.369.506.506,0,0,0,.085-.294.249.249,0,0,0-.036-.149.11.11,0,0,0-.084-.048.269.269,0,0,0-.1.023.467.467,0,0,1-.14.028.323.323,0,0,1-.232-.1.324.324,0,0,1-.1-.243.322.322,0,0,1,.1-.253.467.467,0,0,1,.324-.123.522.522,0,0,1,.389.183.63.63,0,0,1,.173.454,1.007,1.007,0,0,1-.287.7A1.42,1.42,0,0,1,227.767-262.074Z" transform="translate(-143.035 -61.175)"/>
    <path id="Path_71" data-name="Path 71" d="M227.767-262.074v-.152a1.466,1.466,0,0,0,.457-.369.506.506,0,0,0,.085-.294.249.249,0,0,0-.036-.149.11.11,0,0,0-.084-.048.269.269,0,0,0-.1.023.467.467,0,0,1-.14.028.323.323,0,0,1-.232-.1.324.324,0,0,1-.1-.243.322.322,0,0,1,.1-.253.467.467,0,0,1,.324-.123.522.522,0,0,1,.389.183.63.63,0,0,1,.173.454,1.007,1.007,0,0,1-.287.7A1.42,1.42,0,0,1,227.767-262.074Z" transform="translate(-143.035 -61.175)" stroke="#221e1f" stroke-miterlimit="2" stroke-width="0.282" fill-rule="evenodd"/>
    <path id="Path_72" data-name="Path 72" d="M233.449-261.757l-.03,1.208c-.15-.42-.226-.462-.656-.709a1.5,1.5,0,0,0-.684-.227.834.834,0,0,0-.618.246.779.779,0,0,0-.245.561.7.7,0,0,0,.154.439,4.011,4.011,0,0,0,1.06.776,7.391,7.391,0,0,1,.933.607,1.459,1.459,0,0,1,.384.5,1.405,1.405,0,0,1,.135.6,1.415,1.415,0,0,1-.428,1.03,1.49,1.49,0,0,1-1.1.433c-.748,0-1.285-.277-1.654,0v-1.265a8.826,8.826,0,0,0,.627.642,2.589,2.589,0,0,0,.951.321.965.965,0,0,0,.709-.257.829.829,0,0,0,.261-.608.891.891,0,0,0-.1-.393,1.165,1.165,0,0,0-.306-.371,8.409,8.409,0,0,0-.766-.494,7.255,7.255,0,0,1-.891-.6,1.6,1.6,0,0,1-.4-.5,1.309,1.309,0,0,1-.137-.6,1.344,1.344,0,0,1,.4-.976,1.311,1.311,0,0,1,1.024-.409A3.858,3.858,0,0,0,233.449-261.757Z" transform="translate(-144.94 -62.405)"/>
    <path id="Path_73" data-name="Path 73" d="M171.889-49.32h1.768v-.445h-1.185l1-1.251a.859.859,0,0,0,.187-.545.864.864,0,0,0-.257-.632.888.888,0,0,0-.649-.255.829.829,0,0,0-.6.251.95.95,0,0,0-.26.64h.442a.511.511,0,0,1,.149-.33.421.421,0,0,1,.3-.117.412.412,0,0,1,.319.134.459.459,0,0,1,.108.3.624.624,0,0,1-.017.14.579.579,0,0,1-.1.17l-1.21,1.515Z" transform="translate(-107.913 -194.337)"/>
    <path id="Path_74" data-name="Path 74" d="M178.929-50.214q-.013.47-.436.474t-.434-.474v-1.315q.008-.466.434-.474.423.009.436.474Zm-1.315.026a.833.833,0,0,0,.274.66.885.885,0,0,0,.6.234.9.9,0,0,0,.615-.234.866.866,0,0,0,.266-.66v-1.368a.869.869,0,0,0-.266-.662.883.883,0,0,0-.615-.23.868.868,0,0,0-.6.23.835.835,0,0,0-.274.662Z" transform="translate(-111.521 -194.337)"/>
    <path id="Path_75" data-name="Path 75" d="M194.63-49.32H196.4v-.445h-1.185l1-1.251a.859.859,0,0,0,.187-.545.864.864,0,0,0-.257-.632.888.888,0,0,0-.649-.255.829.829,0,0,0-.6.251.95.95,0,0,0-.26.64h.443a.509.509,0,0,1,.149-.33.421.421,0,0,1,.3-.117.412.412,0,0,1,.319.134.459.459,0,0,1,.109.3.645.645,0,0,1-.017.14.588.588,0,0,1-.1.17l-1.211,1.515Z" transform="translate(-122.245 -194.337)"/>
    <path id="Path_76" data-name="Path 76" d="M201.67-50.214q-.013.47-.436.474t-.434-.474v-1.315q.009-.466.434-.474.423.009.436.474Zm-1.315.026a.833.833,0,0,0,.274.66.885.885,0,0,0,.6.234.9.9,0,0,0,.615-.234.866.866,0,0,0,.266-.66v-1.368a.869.869,0,0,0-.266-.662.883.883,0,0,0-.615-.23.868.868,0,0,0-.6.23.835.835,0,0,0-.274.662Z" transform="translate(-125.853 -194.337)"/>
    <path id="Path_77" data-name="Path 77" d="M187.094-56.951l-4.43,6.484" transform="translate(-114.704 -191.499)" fill="none" stroke="#000" stroke-linecap="square" stroke-miterlimit="1.5" stroke-width="1.305"/>
    <path id="Path_78" data-name="Path 78" d="M182.664-56.951l4.43,6.484" transform="translate(-114.704 -191.499)" fill="none" stroke="#000" stroke-linecap="square" stroke-miterlimit="1.5" stroke-width="1.305"/>
    <path id="Path_79" data-name="Path 79" d="M74.2-95.364H156.75" transform="translate(-46.347 -167.291)" fill="none" stroke="#000" stroke-linecap="square" stroke-miterlimit="1.5" stroke-width="1.305"/>
    <path id="Path_80" data-name="Path 80" d="M74.2-253.994H93.069" transform="translate(-46.347 -67.323)" fill="none" stroke="#000" stroke-linecap="square" stroke-miterlimit="1.5" stroke-width="1.305"/>
    <path id="Path_81" data-name="Path 81" d="M246.4-253.994h18.873" transform="translate(-154.871 -67.323)" fill="none" stroke="#000" stroke-linecap="square" stroke-miterlimit="1.5" stroke-width="1.305"/>
  </g>
</svg>
